<svg xmlns="http://www.w3.org/2000/svg" id="whole" viewBox="-250 642 500 300">
  <path id="water" d="M230.7 783.4c-5.6 11.6-13.4 18.2-23.1 19.7-14.8 2.4-29.8-8.3-36.9-14.5-5.3 7.3-11.7 11.4-19.2 12.2-11.4 1.4-22.1-5.4-27.9-10.2-5.3 8.3-12.1 13.1-20.2 14.3-1.4.2-2.6.3-3.9.3-2.9 0-5.8-.5-8.5-1.2-9.7-2.7-18.2-9.2-23.1-13.4-2.5 3.6-5.4 6.5-8.5 8.5-3.4 2.4-7.1 3.7-11 4.2-1.2.2-2.4.2-3.6.2-9.7 0-18.4-5.1-23.5-9-.3.7-.9 1.2-1.2 1.9-1.9 2.7-4.1 5.1-6.5 7-3.7 3.1-8 4.9-12.6 5.6-1.4.2-2.9.3-4.2.3-13.4 0-26.2-9.2-32.6-14.8-5.3 7.3-11.7 11.4-19.2 12.2-11.4 1.4-22.1-5.4-27.9-10.2-5.3 8.3-12.1 13.1-20.2 14.3-1.4.2-2.6.3-3.9.3-12.9 0-25.3-9.2-31.6-14.6-5.4 7.3-12.1 11.9-19.9 13.3-17.3 3.2-33.7-9.7-34.3-10.2l5.9-7.3c.2.2 10.2 8.2 21.4 8.7 1.7 0 3.4 0 5.1-.3 2.9-.5 5.4-1.7 8-3.4 3.2-2.4 6.1-5.8 8.7-10.2l3.2-5.6 4.4 4.8c.2.2 16.8 17.8 31.4 15.6 6.5-1 11.9-5.8 16.1-14.5l3.1-6.1 4.6 4.9c.2.2 12.4 13.1 24.5 11.6 5.8-.7 11.1-4.9 15.3-12.4l3.1-5.4 4.4 4.6c.2.2 17.7 18 33 15.6 2.5-.3 4.8-1.4 7-2.9 2.4-1.7 4.6-3.9 6.5-7 1-1.4 1.9-3.1 2.7-4.8l2.7-5.6.2-.3 4.6 4.6c.2.2 11.9 11.6 23.8 10 2.9-.3 5.8-1.7 8.3-3.7 2.7-2.2 5.3-5.3 7.5-9.4l3.2-5.6 4.4 4.8c.2.2 16.8 17.9 31.5 15.6 6.5-1 11.7-5.8 16.1-14.5l3.1-6.1 4.8 4.9s2.6 2.5 6.1 5.3c2.4 1.7 5.3 3.4 8.3 4.8 3.2 1.2 6.6 2 9.9 1.5 5.8-.7 11-4.9 15.3-12.4l3.1-5.4 4.4 4.6c.2.2 17.7 18 33 15.6 6.5-1 11.9-5.9 16.1-14.4l8.7 3.6z" class="st0"/>
  <g id="boat">
    <path id="Layer_2" d="M186.6 675.3c-33.5 15.4-69.5 25.3-105.9 30.8-37.7 5.8-76.5 6.8-114.7 6.4-37.3-.3-74.2-2.5-111.1-8.6-24.3-4-48.4-9.5-72-16.3-.8-.2-1.6-.5-2.4-.7l-9.3-2.9 3.6 9.2c.3 1 9.7 24.4 24.3 49.6 19.9 34.5 39.3 54.6 57.3 59.5l2.6-9.1c-12.6-3.3-26.9-16.8-42.1-39.4 53.1 17.7 141.3 18 169.1 17.7 5.5-.1 8.7-.2 8.7-.2 2.2-.1 4.4-.3 6.7-.4 6.6-.4 13.2-.9 19.5-1.4 5-.4 10-.9 14.8-1.3 59.6-5.8 104.4-15 124.5-19.7-7.4 16-16.1 31-25.3 40.5l9.7 7.1c30.4-31.3 47.9-112.4 48.6-115.6l1.7-9c.1-.1-8.2 3.8-8.3 3.8zm-16 48.3c-39.5 17.8-107.2 25.6-151.2 28.9-5.5.4-10.5.8-15.2 1-8.7.5-15.7.8-20.5 1-4.5.2-6.9.2-6.9.2-2.9.1-5.8.1-8.7.2-76.7.8-142.5-15.8-163.7-21.8-7.6-13.5-13.5-26.3-17.1-34.5 28.7 7.9 58.1 14.1 87.7 17.6 69.8 8.3 144.4 9.5 213.9-2 15.3-2.5 30.5-5.9 45.5-10 7.9-2.2 15.8-4.6 23.5-7.3 3.1-1.1 23.2-6.4 23.9-9.2-1.8 8-5.7 21.3-11.2 35.9z" class="st0"/>
  </g>
  <g id="oar_1_">
    <g id="oar">
      <path d="M173.7 866.8c-1 7.8-6.1 18-12.2 24-1.4 1.4-2.7 2.5-4.1 3.7-4.4 4.1-8.5 7-12.4 9s-7.5 2.9-10.7 2.9c-2.6 0-4.9-.5-7.5-1.7-6.1-3.1-11.2-8-16.7-13.3l-6.1-5.8c-3.1-2.9-6.5-5.6-9.5-8.3-10.4-8.8-21.1-18.2-29.1-29.2-2.7-3.7-2.4-9.7-2-15.8.5-7.8 1-16.5-5.4-22.4-.3-.3-3.9-3.6-9.7-8.8-2.4-2.2-5.3-4.8-8.3-7.6-6-5.4-12.9-11.9-20.6-18.9-6.8-6.1-13.9-12.8-21.1-19.4-19-17.5-38.4-35.4-51.2-47.1-1.9-1.7-2.9-4.1-2.7-6.6 0-2.4 1-4.4 2.9-6 1-.9 2.2-1.4 3.4-1.4 1.7 0 4.8.9 9.4 4.6 2.2 2 30.8 29.4 58 55.2 7 6.6 13.8 13.1 19.9 19 2.9 2.9 5.8 5.6 8.5 8.2 12.2 11.7 20.9 19.9 20.9 20.1 3.6 3.4 8 5.1 13.6 5.1 3.7 0 7.5-.7 11-1.5.9-.2 1.9-.3 2.7-.5 2-.3 3.9-.7 5.6-.7h1c5.4.5 10.4 4.4 15.5 8.7.9.7 1.7 1.4 2.4 1.9 17.2 13.4 32.6 28.7 45.4 41.8.9.8 1.9 1.9 2.9 2.7 3 2.6 6.6 5.9 6.2 8.1z" class="st1"/>
      <path d="M175.4 850.5c-.9-.9-1.7-1.5-2.4-2.4-11.6-11.9-25.3-25.3-40.6-37.9-2-1.5-3.9-3.2-6-4.8-.8-.7-1.5-1.2-2.4-1.9-6-4.8-12.8-10.2-21.6-11-.7 0-1.4-.2-2-.2-3.4 0-6.8.7-10.2 1.4H90c-3.2.7-6.3 1.2-8.8 1.2-2.7 0-4.4-.5-5.8-1.9-.2 0-9.4-8.8-22.4-21.2-4.8-4.5-10.1-9.7-15.6-15-1.3-1.2-2.6-2.5-3.9-3.7L21 741.2c-9.7-9.3-19.5-18.5-27.8-26.5-2.3-2.2-4.5-4.2-6.5-6.2-1.7-1.6-3.2-3.1-4.7-4.5-2.3-2.2-4.4-4.1-6.2-5.9-4.8-4.6-7.6-7.4-7.6-7.4l-.3-.2c-5.8-4.9-11.4-7.3-16.7-7.3-3.9 0-7.5 1.4-10.5 3.9-4.2 3.6-6.8 8.7-7 14.3-.2 5.8 2.2 11.2 6.5 15.1 7.9 7.2 18.2 16.8 29.5 27.2 4.3 4 8.8 8 13.3 12.1l4.7 4.4c5.6 5.2 11.3 10.3 16.7 15.3 10.5 9.7 20.4 18.9 28.4 26.2 3.1 2.9 6 5.4 8.3 7.6 5.8 5.3 9.4 8.5 9.7 8.8 2.6 2.2 2.2 7.6 1.9 13.4-.5 7.5-.9 16 4.1 23.1 8.8 12.1 20.1 21.8 30.9 31.1 3.1 2.7 6.3 5.4 9.4 8.2 1.9 1.7 3.9 3.6 5.8 5.4 5.8 5.6 11.7 11.4 19.4 15.1 3.9 1.9 8.2 2.9 12.4 2.9 9.5 0 19.5-4.8 30.6-14.8 1.4-1.2 2.9-2.5 4.4-4.1 7.8-7.6 14.3-20.2 15.5-30.4.8-7.9-5.3-13.5-9.8-17.5zm-1.7 16.3c-1 7.8-6.1 18-12.2 24-1.4 1.4-2.7 2.5-4.1 3.7-4.4 4.1-8.5 7-12.4 9-3.9 2-7.5 2.9-10.7 2.9-2.6 0-4.9-.5-7.5-1.7-6.1-3.1-11.2-8-16.7-13.3l-6.1-5.8c-3.1-2.9-6.5-5.6-9.5-8.3-10.4-8.8-21.1-18.2-29.1-29.2-2.7-3.7-2.4-9.7-2-15.8.5-7.8 1-16.5-5.4-22.4-.3-.3-3.9-3.6-9.7-8.8-2.4-2.2-5.3-4.8-8.3-7.6-6-5.4-12.9-11.9-20.6-18.9-5.3-4.8-10.8-9.9-16.3-15-1.6-1.5-3.2-2.9-4.8-4.4-4.3-4-8.7-8-13-11.9-1.6-1.5-3.2-2.9-4.8-4.4-1-1-2.1-1.9-3.1-2.9-3.2-2.9-6.3-5.8-9.3-8.5-.9-.8-1.8-1.7-2.7-2.5-.5-.5-1.1-1-1.6-1.5-.9-.8-1.8-1.6-2.7-2.5-3.7-3.4-7.2-6.6-10.4-9.5-.6-.6-1.3-1.2-1.9-1.7-.7-.6-1.3-1.2-1.9-1.7-1.9-1.7-2.9-4.1-2.7-6.6 0-2.4 1-4.4 2.9-6 1-.9 2.2-1.4 3.4-1.4 1.7 0 4.8.9 9.4 4.6.2.1.4.4.8.7l.5.5c1.3 1.2 3.4 3.2 6.2 5.9.2.2.5.4.7.7.7.7 1.5 1.5 2.4 2.2.5.4.9.9 1.4 1.3.5.5 1 .9 1.5 1.4.4.4.9.9 1.4 1.3 1.6 1.5 3.3 3.2 5.1 4.9 1.1 1 2.2 2.1 3.3 3.2 6.8 6.5 14.5 13.8 22.5 21.4L18 753.9l4.5 4.2c.7.6 1.4 1.3 2 1.9 1 1 2 1.9 3.1 2.9 3.6 3.4 7.1 6.8 10.3 9.9 2.9 2.9 5.8 5.6 8.5 8.2 12.2 11.7 20.9 19.9 20.9 20.1 3.6 3.4 8 5.1 13.6 5.1 3.7 0 7.5-.7 11-1.5.9-.2 1.9-.3 2.7-.5 2-.3 3.9-.7 5.6-.7h1c5.4.5 10.4 4.4 15.5 8.7.9.7 1.7 1.4 2.4 1.9 17.2 13.4 32.6 28.7 45.4 41.8.9.8 1.9 1.9 2.9 2.7 3.1 2.7 6.7 6 6.3 8.2z" class="st0"/>
    </g>
  </g>
</svg>
