<?xml version="1.0" encoding="utf-8"?>
<!-- Generator: Adobe Illustrator 18.1.1, SVG Export Plug-In . SVG Version: 6.00 Build 0)  -->
<!DOCTYPE svg PUBLIC "-//W3C//DTD SVG 1.1//EN" "http://www.w3.org/Graphics/SVG/1.1/DTD/svg11.dtd">
<svg version="1.1" id="boat_2_" xmlns="http://www.w3.org/2000/svg" xmlns:xlink="http://www.w3.org/1999/xlink" x="0px" y="0px"
	 viewBox="-306 486 612 612" enable-background="new -306 486 612 612" xml:space="preserve">
<rect id="blank" x="-306" y="486" fill="none" width="612" height="612"/>
<g id="water">
	<path fill="#7A9BCC" d="M230.7,825.4c-5.6,11.6-13.4,18.2-23.1,19.7c-14.8,2.4-29.8-8.3-36.9-14.5c-5.3,7.3-11.7,11.4-19.2,12.2
		c-11.4,1.4-22.1-5.4-27.9-10.2c-5.3,8.3-12.1,13.1-20.2,14.3c-1.4,0.2-2.6,0.3-3.9,0.3c-2.9,0-5.8-0.5-8.5-1.2
		c-9.7-2.7-18.2-9.2-23.1-13.4c-2.5,3.6-5.4,6.5-8.5,8.5c-3.4,2.4-7.1,3.7-11,4.2c-1.2,0.2-2.4,0.2-3.6,0.2c-9.7,0-18.4-5.1-23.5-9
		c-0.3,0.7-0.9,1.2-1.2,1.9c-1.9,2.7-4.1,5.1-6.5,7c-3.7,3.1-8,4.9-12.6,5.6c-1.4,0.2-2.9,0.3-4.2,0.3c-13.4,0-26.2-9.2-32.6-14.8
		c-5.3,7.3-11.7,11.4-19.2,12.2c-11.4,1.4-22.1-5.4-27.9-10.2c-5.3,8.3-12.1,13.1-20.2,14.3c-1.4,0.2-2.6,0.3-3.9,0.3
		c-12.9,0-25.3-9.2-31.6-14.6c-5.4,7.3-12.1,11.9-19.9,13.3c-17.3,3.2-33.7-9.7-34.3-10.2l5.9-7.3c0.2,0.2,10.2,8.2,21.4,8.7
		c1.7,0,3.4,0,5.1-0.3c2.9-0.5,5.4-1.7,8-3.4c3.2-2.4,6.1-5.8,8.7-10.2l3.2-5.6l4.4,4.8c0.2,0.2,16.8,17.8,31.4,15.6
		c6.5-1,11.9-5.8,16.1-14.5l3.1-6.1l4.6,4.9c0.2,0.2,12.4,13.1,24.5,11.6c5.8-0.7,11.1-4.9,15.3-12.4l3.1-5.4l4.4,4.6
		c0.2,0.2,17.7,18,33,15.6c2.5-0.3,4.8-1.4,7-2.9c2.4-1.7,4.6-3.9,6.5-7c1-1.4,1.9-3.1,2.7-4.8l2.7-5.6l0.2-0.3l4.6,4.6
		c0.2,0.2,11.9,11.6,23.8,10c2.9-0.3,5.8-1.7,8.3-3.7c2.7-2.2,5.3-5.3,7.5-9.4l3.2-5.6l4.4,4.8c0.2,0.2,16.8,17.9,31.5,15.6
		c6.5-1,11.7-5.8,16.1-14.5l3.1-6.1l4.8,4.9c0,0,2.6,2.5,6.1,5.3c2.4,1.7,5.3,3.4,8.3,4.8c3.2,1.2,6.6,2,9.9,1.5
		c5.8-0.7,11-4.9,15.3-12.4l3.1-5.4l4.4,4.6c0.2,0.2,17.7,18,33,15.6c6.5-1,11.9-5.9,16.1-14.4L230.7,825.4z"/>
</g>
<g id="boat">
	<g id="Layer_2">
		<path fill="#7A9BCC" d="M195,713.4l-1.7,9c-0.7,3.2-18.2,84.3-48.6,115.6l-9.7-7.1c9.2-9.4,17.9-24.5,25.3-40.5
			c-20,4.6-64.9,13.9-124.5,19.7c-1.3-1.2-2.6-2.5-3.9-3.7c-4.1-3.9-8.3-7.9-12.5-11.9c44-3.3,111.7-11,151.2-28.9
			c5.5-14.7,9.5-28,11.2-36C131.8,751,81.3,758.7,47,761.2c-29.8,2.3-52.3,1.3-61.9,0.6c-1.7-1.6-3.2-3.1-4.7-4.5
			c-2.3-2.2-4.4-4.1-6.2-5.9C-29.6,740.6-38.6,732-49,730c-10.2-2-19.7,2.9-26.5,13.8c-3.4,5.4-5.3,13.3-5.3,13.3l-0.9,3.7h-3.7
			c-48.8,0-105.1-14.1-127.3-20.2c3.7,8.2,9.6,21,17.1,34.5c21.1,6,86.9,22.6,163.7,21.8c4.3,4,8.8,8,13.3,12.1
			c1.6,1.5,3.1,2.9,4.7,4.4c-27.8,0.4-116,0-169.1-17.7c15.1,22.6,29.5,36.1,42.1,39.4l-2.6,9.1c-18-4.9-37.4-25-57.3-59.5
			c-14.6-25.2-24-48.6-24.3-49.6l-3.6-9.2l9.3,2.9c0.7,0.2,71.7,21.8,130.6,22.6c1-3.4,2.7-8.3,5.4-12.6c8.8-14.3,22.1-20.9,36.4-18
			c15,3.1,27.5,15.8,31.5,31.6c8.3,0.7,31.6,1.9,62.2-0.5c35.5-2.7,88.6-11.1,139.9-34.7L195,713.4z"/>
		<path fill="#7A9BCC" d="M-14.9,761.8c-3.1-0.2-4.9-0.4-5.2-0.4l-3.6-0.3l-0.5-3.6c-0.3-2.1-0.9-4.1-1.6-6.1
			c1.8,1.7,3.9,3.7,6.2,5.9C-18.1,758.8-16.5,760.3-14.9,761.8z"/>
		<path fill="#7A9BCC" d="M35.8,810.1c-4.8,0.5-9.8,0.9-14.8,1.3c-6.4,0.5-12.9,1-19.5,1.4c-2.2,0.1-4.4,0.3-6.7,0.4
			c0,0-3.1,0.1-8.7,0.2c-1.6-1.5-3.2-2.9-4.7-4.4c-4.5-4.1-9-8.2-13.3-12.1c2.9,0,5.8-0.1,8.7-0.2c0,0,2.5-0.1,6.9-0.2
			c4.8-0.2,11.8-0.5,20.5-1c4.6-0.3,9.7-0.6,15.2-1c4.2,4,8.4,8,12.5,11.9C33.2,807.7,34.5,808.9,35.8,810.1z"/>
	</g>
</g>
<g id="oar_1_">
	<g id="oar">
		<g>
			<path fill="#B2D6F9" d="M172.2,920.1c-1,7.8-6.1,18-12.2,24c-1.4,1.4-2.7,2.5-4.1,3.7c-4.4,4.1-8.5,7-12.4,9s-7.5,2.9-10.7,2.9
				c-2.6,0-4.9-0.5-7.5-1.7c-6.1-3.1-11.2-8-16.7-13.3c-2-1.9-4.1-3.9-6.1-5.8c-3.1-2.9-6.5-5.6-9.5-8.3
				c-10.4-8.8-21.1-18.2-29.1-29.2c-2.7-3.7-2.4-9.7-2-15.8c0.5-7.8,1-16.5-5.4-22.4c-0.3-0.3-3.9-3.6-9.7-8.8
				c-2.4-2.2-5.3-4.8-8.3-7.6c-6-5.4-12.9-11.9-20.6-18.9c-6.8-6.1-13.9-12.8-21.1-19.4c-19-17.5-38.4-35.4-51.2-47.1
				c-1.9-1.7-2.9-4.1-2.7-6.6c0-2.4,1-4.4,2.9-6c1-0.9,2.2-1.4,3.4-1.4c1.7,0,4.8,0.9,9.4,4.6c2.2,2,30.8,29.4,58,55.2
				c7,6.6,13.8,13.1,19.9,19c2.9,2.9,5.8,5.6,8.5,8.2c12.2,11.7,20.9,19.9,20.9,20.1c3.6,3.4,8,5.1,13.6,5.1c3.7,0,7.5-0.7,11-1.5
				c0.9-0.2,1.9-0.3,2.7-0.5c2-0.3,3.9-0.7,5.6-0.7c0.3,0,0.7,0,1,0c5.4,0.5,10.4,4.4,15.5,8.7c0.9,0.7,1.7,1.4,2.4,1.9
				c17.2,13.4,32.6,28.7,45.4,41.8c0.9,0.8,1.9,1.9,2.9,2.7C169,914.6,172.6,917.9,172.2,920.1z"/>
			<path fill="#7A9BCC" d="M173.8,903.8c-0.9-0.9-1.7-1.5-2.4-2.4c-11.6-11.9-25.3-25.3-40.6-37.9c-2-1.5-3.9-3.2-6-4.8
				c-0.8-0.7-1.5-1.2-2.4-1.9c-6-4.8-12.8-10.2-21.6-11c-0.7,0-1.4-0.2-2-0.2c-3.4,0-6.8,0.7-10.2,1.4h-0.2
				c-3.2,0.7-6.3,1.2-8.8,1.2c-2.7,0-4.4-0.5-5.8-1.9c-0.2,0-9.4-8.8-22.4-21.2c-4.8-4.5-10.1-9.7-15.6-15c-1.3-1.2-2.6-2.5-3.9-3.7
				c-4.1-3.9-8.3-7.9-12.5-11.9C9.7,785.3,0,776-8.3,768c-2.3-2.2-4.5-4.2-6.5-6.2c-1.7-1.6-3.2-3.1-4.7-4.5
				c-2.3-2.2-4.4-4.1-6.2-5.9c-4.8-4.6-7.6-7.4-7.6-7.4l-0.3-0.2c-5.8-4.9-11.4-7.3-16.7-7.3c-3.9,0-7.5,1.4-10.5,3.9
				c-4.2,3.6-6.8,8.7-7,14.3c-0.2,5.8,2.2,11.2,6.5,15.1c7.9,7.2,18.2,16.8,29.5,27.2c4.3,4,8.8,8,13.3,12.1
				c1.6,1.5,3.1,2.9,4.7,4.4c5.6,5.2,11.3,10.3,16.7,15.3c10.5,9.7,20.4,18.9,28.4,26.2c3.1,2.9,6,5.4,8.3,7.6
				c5.8,5.3,9.4,8.5,9.7,8.8c2.6,2.2,2.2,7.6,1.9,13.4c-0.5,7.5-0.9,16,4.1,23.1C64,920,75.3,929.7,86.2,939
				c3.1,2.7,6.3,5.4,9.4,8.2c1.9,1.7,3.9,3.6,5.8,5.4c5.8,5.6,11.7,11.4,19.4,15.1c3.9,1.9,8.2,2.9,12.4,2.9
				c9.5,0,19.5-4.8,30.6-14.8c1.4-1.2,2.9-2.5,4.4-4.1c7.8-7.6,14.3-20.2,15.5-30.4C184.5,913.4,178.3,907.8,173.8,903.8z
				 M172.2,920.1c-1,7.8-6.1,18-12.2,24c-1.4,1.4-2.7,2.5-4.1,3.7c-4.4,4.1-8.5,7-12.4,9c-3.9,2-7.5,2.9-10.7,2.9
				c-2.6,0-4.9-0.5-7.5-1.7c-6.1-3.1-11.2-8-16.7-13.3c-2-1.9-4.1-3.9-6.1-5.8c-3.1-2.9-6.5-5.6-9.5-8.3
				c-10.4-8.8-21.1-18.2-29.1-29.2c-2.7-3.7-2.4-9.7-2-15.8c0.5-7.8,1-16.5-5.4-22.4c-0.3-0.3-3.9-3.6-9.7-8.8
				c-2.4-2.2-5.3-4.8-8.3-7.6c-6-5.4-12.9-11.9-20.6-18.9c-5.3-4.8-10.8-9.9-16.3-15c-1.6-1.5-3.2-2.9-4.8-4.4c-4.3-4-8.7-8-13-11.9
				c-1.6-1.5-3.2-2.9-4.8-4.4c-1-1-2.1-1.9-3.1-2.9c-3.2-2.9-6.3-5.8-9.3-8.5c-0.9-0.8-1.8-1.7-2.7-2.5c-0.5-0.5-1.1-1-1.6-1.5
				c-0.9-0.8-1.8-1.6-2.7-2.5c-3.7-3.4-7.2-6.6-10.4-9.5c-0.6-0.6-1.3-1.2-1.9-1.7c-0.7-0.6-1.3-1.2-1.9-1.7
				c-1.9-1.7-2.9-4.1-2.7-6.6c0-2.4,1-4.4,2.9-6c1-0.9,2.2-1.4,3.4-1.4c1.7,0,4.8,0.9,9.4,4.6c0.2,0.1,0.4,0.4,0.8,0.7
				c0.1,0.1,0.3,0.3,0.5,0.5c1.3,1.2,3.4,3.2,6.2,5.9c0.2,0.2,0.5,0.4,0.7,0.7c0.7,0.7,1.5,1.5,2.4,2.2c0.5,0.4,0.9,0.9,1.4,1.3
				c0.5,0.5,1,0.9,1.5,1.4c0.4,0.4,0.9,0.9,1.4,1.3c1.6,1.5,3.3,3.2,5.1,4.9c1.1,1,2.2,2.1,3.3,3.2c6.8,6.5,14.5,13.8,22.5,21.4
				c4.1,3.9,8.2,7.8,12.3,11.7c1.5,1.4,3,2.8,4.5,4.2c0.7,0.6,1.4,1.3,2,1.9c1,1,2,1.9,3.1,2.9c3.6,3.4,7.1,6.8,10.3,9.9
				c2.9,2.9,5.8,5.6,8.5,8.2c12.2,11.7,20.9,19.9,20.9,20.1c3.6,3.4,8,5.1,13.6,5.1c3.7,0,7.5-0.7,11-1.5c0.9-0.2,1.9-0.3,2.7-0.5
				c2-0.3,3.9-0.7,5.6-0.7h1c5.4,0.5,10.4,4.4,15.5,8.7c0.9,0.7,1.7,1.4,2.4,1.9c17.2,13.4,32.6,28.7,45.4,41.8
				c0.9,0.8,1.9,1.9,2.9,2.7C169,914.6,172.5,917.9,172.2,920.1z"/>
		</g>
	</g>
</g>
</svg>
