<?xml version="1.0" encoding="utf-8"?>
<!-- Generator: Adobe Illustrator 18.1.1, SVG Export Plug-In . SVG Version: 6.00 Build 0)  -->
<!DOCTYPE svg PUBLIC "-//W3C//DTD SVG 1.1//EN" "http://www.w3.org/Graphics/SVG/1.1/DTD/svg11.dtd">
<svg version="1.1" id="whole" xmlns="http://www.w3.org/2000/svg" xmlns:xlink="http://www.w3.org/1999/xlink" x="0px" y="0px"
	 viewBox="-250 642 500 300" style="enable-background:new -250 642 500 300;" xml:space="preserve">
<style type="text/css">
	.st0{fill:#7A9BCC;}
	.st1{fill:#B2D6F9;}
</style>
<g id="water">
	<path class="st0" d="M230.7,783.4c-5.6,11.6-13.4,18.2-23.1,19.7c-14.8,2.4-29.8-8.3-36.9-14.5c-5.3,7.3-11.7,11.4-19.2,12.2
		c-11.4,1.4-22.1-5.4-27.9-10.2c-5.3,8.3-12.1,13.1-20.2,14.3c-1.4,0.2-2.6,0.3-3.9,0.3c-2.9,0-5.8-0.5-8.5-1.2
		c-9.7-2.7-18.2-9.2-23.1-13.4c-2.5,3.6-5.4,6.5-8.5,8.5c-3.4,2.4-7.1,3.7-11,4.2c-1.2,0.2-2.4,0.2-3.6,0.2c-9.7,0-18.4-5.1-23.5-9
		c-0.3,0.7-0.9,1.2-1.2,1.9c-1.9,2.7-4.1,5.1-6.5,7c-3.7,3.1-8,4.9-12.6,5.6c-1.4,0.2-2.9,0.3-4.2,0.3c-13.4,0-26.2-9.2-32.6-14.8
		c-5.3,7.3-11.7,11.4-19.2,12.2c-11.4,1.4-22.1-5.4-27.9-10.2c-5.3,8.3-12.1,13.1-20.2,14.3c-1.4,0.2-2.6,0.3-3.9,0.3
		c-12.9,0-25.3-9.2-31.6-14.6c-5.4,7.3-12.1,11.9-19.9,13.3c-17.3,3.2-33.7-9.7-34.3-10.2l5.9-7.3c0.2,0.2,10.2,8.2,21.4,8.7
		c1.7,0,3.4,0,5.1-0.3c2.9-0.5,5.4-1.7,8-3.4c3.2-2.4,6.1-5.8,8.7-10.2l3.2-5.6l4.4,4.8c0.2,0.2,16.8,17.8,31.4,15.6
		c6.5-1,11.9-5.8,16.1-14.5l3.1-6.1l4.6,4.9c0.2,0.2,12.4,13.1,24.5,11.6c5.8-0.7,11.1-4.9,15.3-12.4l3.1-5.4l4.4,4.6
		c0.2,0.2,17.7,18,33,15.6c2.5-0.3,4.8-1.4,7-2.9c2.4-1.7,4.6-3.9,6.5-7c1-1.4,1.9-3.1,2.7-4.8l2.7-5.6l0.2-0.3l4.6,4.6
		c0.2,0.2,11.9,11.6,23.8,10c2.9-0.3,5.8-1.7,8.3-3.7c2.7-2.2,5.3-5.3,7.5-9.4l3.2-5.6l4.4,4.8c0.2,0.2,16.8,17.9,31.5,15.6
		c6.5-1,11.7-5.8,16.1-14.5l3.1-6.1l4.8,4.9c0,0,2.6,2.5,6.1,5.3c2.4,1.7,5.3,3.4,8.3,4.8c3.2,1.2,6.6,2,9.9,1.5
		c5.8-0.7,11-4.9,15.3-12.4l3.1-5.4l4.4,4.6c0.2,0.2,17.7,18,33,15.6c6.5-1,11.9-5.9,16.1-14.4L230.7,783.4z"/>
</g>
<g id="boat">
	<g id="Layer_2">
		<path class="st0" d="M186.6,675.3c-33.5,15.4-69.5,25.3-105.9,30.8c-37.7,5.8-76.5,6.8-114.7,6.4c-37.3-0.3-74.2-2.5-111.1-8.6
			c-24.3-4-48.4-9.5-72-16.3c-0.8-0.2-1.6-0.5-2.4-0.7c0,0-9.3-2.9-9.3-2.9l3.6,9.2c0.3,1,9.7,24.4,24.3,49.6
			c19.9,34.5,39.3,54.6,57.3,59.5l2.6-9.1c-12.6-3.3-26.9-16.8-42.1-39.4c53.1,17.7,141.3,18,169.1,17.7c5.5-0.1,8.7-0.2,8.7-0.2
			c2.2-0.1,4.4-0.3,6.7-0.4c6.6-0.4,13.2-0.9,19.5-1.4c5-0.4,10-0.9,14.8-1.3c59.6-5.8,104.4-15,124.5-19.7
			c-7.4,16-16.1,31-25.3,40.5l9.7,7.1c30.4-31.3,47.9-112.4,48.6-115.6l1.7-9C195,671.4,186.7,675.3,186.6,675.3z M170.6,723.6
			c-39.5,17.8-107.2,25.6-151.2,28.9c-5.5,0.4-10.5,0.8-15.2,1c-8.7,0.5-15.7,0.8-20.5,1c-4.5,0.2-6.9,0.2-6.9,0.2
			c-2.9,0.1-5.8,0.1-8.7,0.2c-76.7,0.8-142.5-15.8-163.7-21.8c-7.6-13.5-13.5-26.3-17.1-34.5c28.7,7.9,58.1,14.1,87.7,17.6
			c69.8,8.3,144.4,9.5,213.9-2c15.3-2.5,30.5-5.9,45.5-10c7.9-2.2,15.8-4.6,23.5-7.3c3.1-1.1,23.2-6.4,23.9-9.2
			C180,695.7,176.1,709,170.6,723.6z"/>
	</g>
</g>
<g id="oar_1_">
	<g id="oar">
		<g>
			<path class="st1" d="M173.7,866.8c-1,7.8-6.1,18-12.2,24c-1.4,1.4-2.7,2.5-4.1,3.7c-4.4,4.1-8.5,7-12.4,9s-7.5,2.9-10.7,2.9
				c-2.6,0-4.9-0.5-7.5-1.7c-6.1-3.1-11.2-8-16.7-13.3c-2-1.9-4.1-3.9-6.1-5.8c-3.1-2.9-6.5-5.6-9.5-8.3
				c-10.4-8.8-21.1-18.2-29.1-29.2c-2.7-3.7-2.4-9.7-2-15.8c0.5-7.8,1-16.5-5.4-22.4c-0.3-0.3-3.9-3.6-9.7-8.8
				c-2.4-2.2-5.3-4.8-8.3-7.6c-6-5.4-12.9-11.9-20.6-18.9c-6.8-6.1-13.9-12.8-21.1-19.4c-19-17.5-38.4-35.4-51.2-47.1
				c-1.9-1.7-2.9-4.1-2.7-6.6c0-2.4,1-4.4,2.9-6c1-0.9,2.2-1.4,3.4-1.4c1.7,0,4.8,0.9,9.4,4.6c2.2,2,30.8,29.4,58,55.2
				c7,6.6,13.8,13.1,19.9,19c2.9,2.9,5.8,5.6,8.5,8.2c12.2,11.7,20.9,19.9,20.9,20.1c3.6,3.4,8,5.1,13.6,5.1c3.7,0,7.5-0.7,11-1.5
				c0.9-0.2,1.9-0.3,2.7-0.5c2-0.3,3.9-0.7,5.6-0.7c0.3,0,0.7,0,1,0c5.4,0.5,10.4,4.4,15.5,8.7c0.9,0.7,1.7,1.4,2.4,1.9
				c17.2,13.4,32.6,28.7,45.4,41.8c0.9,0.8,1.9,1.9,2.9,2.7C170.5,861.3,174.1,864.6,173.7,866.8z"/>
			<path class="st0" d="M175.4,850.5c-0.9-0.9-1.7-1.5-2.4-2.4c-11.6-11.9-25.3-25.3-40.6-37.9c-2-1.5-3.9-3.2-6-4.8
				c-0.8-0.7-1.5-1.2-2.4-1.9c-6-4.8-12.8-10.2-21.6-11c-0.7,0-1.4-0.2-2-0.2c-3.4,0-6.8,0.7-10.2,1.4H90c-3.2,0.7-6.3,1.2-8.8,1.2
				c-2.7,0-4.4-0.5-5.8-1.9c-0.2,0-9.4-8.8-22.4-21.2c-4.8-4.5-10.1-9.7-15.6-15c-1.3-1.2-2.6-2.5-3.9-3.7
				c-4.1-3.9-8.3-7.9-12.5-11.9c-9.7-9.3-19.5-18.5-27.8-26.5c-2.3-2.2-4.5-4.2-6.5-6.2c-1.7-1.6-3.2-3.1-4.7-4.5
				c-2.3-2.2-4.4-4.1-6.2-5.9c-4.8-4.6-7.6-7.4-7.6-7.4l-0.3-0.2c-5.8-4.9-11.4-7.3-16.7-7.3c-3.9,0-7.5,1.4-10.5,3.9
				c-4.2,3.6-6.8,8.7-7,14.3c-0.2,5.8,2.2,11.2,6.5,15.1c7.9,7.2,18.2,16.8,29.5,27.2c4.3,4,8.8,8,13.3,12.1
				c1.6,1.5,3.1,2.9,4.7,4.4c5.6,5.2,11.3,10.3,16.7,15.3c10.5,9.7,20.4,18.9,28.4,26.2c3.1,2.9,6,5.4,8.3,7.6
				c5.8,5.3,9.4,8.5,9.7,8.8c2.6,2.2,2.2,7.6,1.9,13.4c-0.5,7.5-0.9,16,4.1,23.1c8.8,12.1,20.1,21.8,30.9,31.1
				c3.1,2.7,6.3,5.4,9.4,8.2c1.9,1.7,3.9,3.6,5.8,5.4c5.8,5.6,11.7,11.4,19.4,15.1c3.9,1.9,8.2,2.9,12.4,2.9
				c9.5,0,19.5-4.8,30.6-14.8c1.4-1.2,2.9-2.5,4.4-4.1c7.8-7.6,14.3-20.2,15.5-30.4C186,860.1,179.9,854.5,175.4,850.5z
				 M173.7,866.8c-1,7.8-6.1,18-12.2,24c-1.4,1.4-2.7,2.5-4.1,3.7c-4.4,4.1-8.5,7-12.4,9c-3.9,2-7.5,2.9-10.7,2.9
				c-2.6,0-4.9-0.5-7.5-1.7c-6.1-3.1-11.2-8-16.7-13.3c-2-1.9-4.1-3.9-6.1-5.8c-3.1-2.9-6.5-5.6-9.5-8.3
				c-10.4-8.8-21.1-18.2-29.1-29.2c-2.7-3.7-2.4-9.7-2-15.8c0.5-7.8,1-16.5-5.4-22.4c-0.3-0.3-3.9-3.6-9.7-8.8
				c-2.4-2.2-5.3-4.8-8.3-7.6c-6-5.4-12.9-11.9-20.6-18.9c-5.3-4.8-10.8-9.9-16.3-15c-1.6-1.5-3.2-2.9-4.8-4.4c-4.3-4-8.7-8-13-11.9
				c-1.6-1.5-3.2-2.9-4.8-4.4c-1-1-2.1-1.9-3.1-2.9c-3.2-2.9-6.3-5.8-9.3-8.5c-0.9-0.8-1.8-1.7-2.7-2.5c-0.5-0.5-1.1-1-1.6-1.5
				c-0.9-0.8-1.8-1.6-2.7-2.5c-3.7-3.4-7.2-6.6-10.4-9.5c-0.6-0.6-1.3-1.2-1.9-1.7c-0.7-0.6-1.3-1.2-1.9-1.7
				c-1.9-1.7-2.9-4.1-2.7-6.6c0-2.4,1-4.4,2.9-6c1-0.9,2.2-1.4,3.4-1.4c1.7,0,4.8,0.9,9.4,4.6c0.2,0.1,0.4,0.4,0.8,0.7
				c0.1,0.1,0.3,0.3,0.5,0.5c1.3,1.2,3.4,3.2,6.2,5.9c0.2,0.2,0.5,0.4,0.7,0.7c0.7,0.7,1.5,1.5,2.4,2.2c0.5,0.4,0.9,0.9,1.4,1.3
				c0.5,0.5,1,0.9,1.5,1.4c0.4,0.4,0.9,0.9,1.4,1.3c1.6,1.5,3.3,3.2,5.1,4.9c1.1,1,2.2,2.1,3.3,3.2c6.8,6.5,14.5,13.8,22.5,21.4
				c4.1,3.9,8.2,7.8,12.3,11.7c1.5,1.4,3,2.8,4.5,4.2c0.7,0.6,1.4,1.3,2,1.9c1,1,2,1.9,3.1,2.9c3.6,3.4,7.1,6.8,10.3,9.9
				c2.9,2.9,5.8,5.6,8.5,8.2c12.2,11.7,20.9,19.9,20.9,20.1c3.6,3.4,8,5.1,13.6,5.1c3.7,0,7.5-0.7,11-1.5c0.9-0.2,1.9-0.3,2.7-0.5
				c2-0.3,3.9-0.7,5.6-0.7h1c5.4,0.5,10.4,4.4,15.5,8.7c0.9,0.7,1.7,1.4,2.4,1.9c17.2,13.4,32.6,28.7,45.4,41.8
				c0.9,0.8,1.9,1.9,2.9,2.7C170.5,861.3,174.1,864.6,173.7,866.8z"/>
		</g>
	</g>
</g>
</svg>
