<?xml version="1.0" encoding="utf-8"?>
<!-- Generator: Adobe Illustrator 18.1.1, SVG Export Plug-In . SVG Version: 6.00 Build 0)  -->
<!DOCTYPE svg PUBLIC "-//W3C//DTD SVG 1.1//EN" "http://www.w3.org/Graphics/SVG/1.1/DTD/svg11.dtd">
<svg version="1.1" id="Layer_1" xmlns="http://www.w3.org/2000/svg" xmlns:xlink="http://www.w3.org/1999/xlink" x="0px" y="0px"
	 viewBox="346.6 250.5 100 100" enable-background="new 346.6 250.5 100 100" xml:space="preserve">
<path fill="#D9E6F4" d="M396.6,350.5L396.6,350.5c-27.6,0-50-22.4-50-50v0c0-27.6,22.4-50,50-50h0c27.6,0,50,22.4,50,50v0
	C446.6,328.1,424.2,350.5,396.6,350.5z"/>
<g>
	<path fill="#7A9BCC" d="M430.6,306.4c-0.7,1.4-1.7,2.3-2.7,2.5c-1.3,0.2-2.6-0.5-3.5-1.1c-0.1-0.1-0.2-0.2-0.3-0.2
		c4.8-5.7,7.1-17.6,7.2-18.2l0.3-1.5l-1.5,0.6c-8.7,4-17.8,5.4-23.9,5.9c-5.2,0.4-9.2,0.2-10.6,0.1c-0.6-2.7-2.8-4.9-5.4-5.4
		c-0.6-0.1-1.1-0.2-1.6-0.1l-3-2.6l-0.2-0.1c-1.2-0.4-2.2-0.2-3,0.3c-1.1,0.9-1.2,2.4-1.2,2.6v0.3l2.7,2.7c-0.4,0.7-0.6,1.4-0.8,2
		c-10.1-0.1-22.2-3.8-22.3-3.8l-1.6-0.5l0.6,1.6c0.1,0.2,1.7,4.2,4.2,8.4c2.9,5,5.8,8.2,8.4,9.6c-0.5,0.3-1,0.6-1.4,0.6
		c-2.2,0.5-4.6-1.3-4.6-1.3l-1,1.2c0.1,0.1,2.9,2.3,5.8,1.8c1.4-0.2,2.5-1,3.4-2.2c1,1,3.2,2.5,5.4,2.5c0.2,0,0.4,0,0.6-0.1
		c1.4-0.2,2.6-1,3.4-2.4c1,0.8,2.8,2,4.7,1.8c1.3-0.2,2.3-0.9,3.3-2.1c1.2,1,3.6,2.8,6.1,2.5c1.4-0.2,2.6-1,3.5-2.5
		c1.6,1.5,2.7,2.5,2.8,2.6c0.3,0.3,0.3,1.1,0.2,1.9c-0.1,1.1-0.2,2.3,0.6,3.3c1.3,1.8,2.9,3.1,4.5,4.5c0.5,0.4,0.9,0.8,1.4,1.2
		c0.3,0.2,0.6,0.5,0.9,0.8c0.8,0.8,1.7,1.6,2.8,2.2c0.6,0.3,1.2,0.4,1.8,0.4c1.4,0,2.8-0.7,4.4-2.2c0.2-0.2,0.4-0.4,0.6-0.6
		c1.1-1.1,2.1-2.9,2.2-4.4c0.2-1.2-0.7-2-1.4-2.6c-0.2-0.1-0.2-0.2-0.3-0.3c-1.6-1.6-3.4-3.4-5.4-5.1c1.6,0,3.7-0.6,5.4-3
		c0.3,0.3,0.8,0.6,1.3,1c1.7,1.1,3.3,1.6,4.7,1.4c1.7-0.2,3-1.4,3.9-3.4L430.6,306.4z M406.2,296c5.8-0.5,14.5-1.8,23-5.4
		c-0.3,1.4-0.9,3.6-1.7,6c-8.3,4-21.9,4.8-26.5,5c-2-1.9-4.2-3.9-5.8-5.4C396.7,296.2,400.7,296.4,406.2,296z M382.8,288.9
		c0.1-0.3,0.2-0.7,0.5-1c0.3-0.2,0.8-0.2,1.4-0.2l2,1.8c-0.6,0.3-1.3,0.8-1.8,1.4L382.8,288.9z M362,292.4c3.8,1,13.4,3.4,21.7,3.4
		h0.6l0.2-0.6c0,0,0.3-1.4,0.9-2.2c1.2-1.8,2.8-2.7,4.5-2.3c1.9,0.4,3.5,2.1,4.1,4.1c-0.9-0.8-1.4-1.4-1.4-1.4
		c-0.4-0.4-0.8-0.6-1.2-0.8c-0.4-0.2-0.8-0.3-1.2-0.3c-1.8,0-2.6,1.9-2.9,3l-0.1,0.5l0.3,0.3c0.1,0.1,3,2.7,6.3,5.8
		c-13.4,0.3-25.1-2.6-28.9-3.7C363.6,296,362.5,293.8,362,292.4z M397.9,310.1c-2.5,0.4-5.4-2.6-5.4-2.6l-0.7-0.8l-0.6,1
		c-0.7,1.3-1.6,2-2.6,2.2c-2.1,0.2-4.2-1.9-4.2-2l-0.8-0.9l-0.6,1c-0.7,1.4-1.7,2.3-2.7,2.5c-2.5,0.4-5.4-2.6-5.4-2.6l-0.7-0.8
		l-0.6,1c-0.1,0.2-0.2,0.2-0.2,0.4c-2-0.8-4.2-3-6.5-6.5c9.9,3.3,27.1,3,29.9,3c1.2,1.1,2.5,2.2,3.5,3.2
		C399.8,309.3,398.9,310,397.9,310.1z M420.9,317.2c0.2,0.2,0.2,0.2,0.4,0.4c0.4,0.4,0.9,0.8,0.9,1.2c-0.2,1.1-0.9,2.6-1.8,3.4
		c-0.2,0.2-0.4,0.4-0.6,0.6c-0.6,0.6-1.2,1-1.8,1.3c-0.6,0.3-1,0.4-1.5,0.4c-0.4,0-0.7-0.1-1-0.2c-0.9-0.4-1.6-1.1-2.4-1.9
		c-0.3-0.2-0.6-0.6-0.9-0.8c-0.5-0.4-0.9-0.8-1.4-1.2c-1.5-1.3-3-2.6-4.2-4.2c-0.4-0.6-0.3-1.4-0.3-2.2c0.1-1.1,0.2-2.4-0.8-3.2
		c-0.3-0.2-14.2-13-16.6-15.3c0.2-0.6,0.6-1.4,1.2-1.4c0.2,0,0.7,0.1,1.4,0.6c0.6,0.6,15.4,14.6,15.4,14.7c0.5,0.4,1,0.6,1.8,0.6
		c0.6,0,1-0.1,1.6-0.2c0.4-0.1,0.9-0.2,1.2-0.2c0.1,0,0.1,0,0.2,0c0.8,0.1,1.5,0.6,2.2,1.2c0.1,0.1,0.2,0.2,0.3,0.3
		C416.8,313.1,419.1,315.4,420.9,317.2z M422.7,306.5c-0.2-0.2-0.2-0.2-0.2-0.2l-0.7-0.8l-0.6,1c-1.1,2-2.7,3-4.7,3
		c-1.5,0-2.8-0.6-2.8-0.7c-0.2-0.2-0.5-0.3-0.8-0.4c-0.3-0.1-0.6-0.2-0.9-0.2h-0.3c-0.5,0-1,0.1-1.5,0.2c-0.4,0.1-0.9,0.2-1.3,0.2
		c-0.4,0-0.6-0.1-0.8-0.3c0,0-1.7-1.6-3.9-3.8c2.6-0.2,5-0.4,7.2-0.7c0.9-0.1,1.7-0.2,2.4-0.4c6.9-1.1,10.9-2.7,12.6-3.6
		C425.4,302.3,424.2,304.7,422.7,306.5z"/>
	<path fill="#B2D6F9" d="M387.2,295.8l0.1-0.5c0.2-1.1,1.1-3,2.9-3c0.4,0,0.8,0.1,1.2,0.3c0.4,0.2,0.8,0.4,1.2,0.8
		c0,0,0.5,0.6,1.4,1.4c-0.6-2-2.2-3.7-4.1-4.1c-1.7-0.4-3.3,0.5-4.5,2.3c-0.6,0.9-0.9,2.2-0.9,2.2l-0.2,0.6h-0.6
		c-8.3,0-17.9-2.4-21.7-3.4c0.6,1.4,1.6,3.6,3,5.9c3.8,1,15.4,4,28.9,3.7c-3.4-3.1-6.2-5.8-6.3-5.8L387.2,295.8z M374.9,298.1
		C374.9,298.1,374.9,298.1,374.9,298.1L374.9,298.1C374.9,298.1,374.9,298.1,374.9,298.1z"/>
	<path fill="#B2D6F9" d="M397,304.8c-2.8,0.1-19.9,0.3-29.9-3c2.3,3.4,4.5,5.7,6.5,6.5c0.1-0.2,0.2-0.2,0.2-0.4l0.6-1l0.7,0.8
		c0,0,2.9,3,5.4,2.6c1-0.2,2-1,2.7-2.5l0.6-1l0.8,0.9c0,0.1,2.1,2.2,4.2,2c1-0.2,1.8-0.9,2.6-2.2l0.6-1l0.7,0.8c0,0,2.9,3,5.4,2.6
		c1-0.1,1.8-0.8,2.6-2.1C399.4,307,398.2,305.9,397,304.8z M382,307C382,307,382,307,382,307L382,307C382,307,382,307,382,307z"/>
	<path fill="#B2D6F9" d="M406.2,296c-5.5,0.4-9.5,0.2-11,0.2c1.6,1.5,3.8,3.5,5.8,5.4c4.6-0.2,18.2-1,26.5-5c0.8-2.4,1.4-4.6,1.7-6
		C420.7,294.2,412.1,295.5,406.2,296z M410,300.1C410,300,410,300,410,300.1L410,300.1C410,300,410,300.1,410,300.1z"/>
	<path fill="#B2D6F9" d="M413.7,303.3c-0.8,0.1-1.6,0.3-2.4,0.4c-2.1,0.3-4.5,0.5-7.2,0.7c2.2,2.2,3.9,3.8,3.9,3.8
		c0.2,0.2,0.4,0.3,0.8,0.3c0.4,0,0.9-0.1,1.3-0.2c0.5-0.2,1-0.2,1.5-0.2h0.3c0.3,0,0.6,0.1,0.9,0.2c0.3,0.1,0.5,0.2,0.8,0.4
		c0,0.1,1.3,0.7,2.8,0.7c2,0.1,3.6-1,4.7-3l0.6-1l0.7,0.8c0,0,0.1,0.1,0.2,0.2c1.5-1.8,2.7-4.2,3.7-6.7
		C424.6,300.6,420.6,302.2,413.7,303.3z M416,306.2C416,306.2,416,306.2,416,306.2L416,306.2C416,306.2,416,306.2,416,306.2z"/>
	<path fill="#99C2FF" d="M422.2,318.8c-0.2,1.1-0.9,2.6-1.8,3.4c-0.2,0.2-0.4,0.4-0.6,0.6c-0.6,0.6-1.2,1-1.8,1.3
		c-0.6,0.3-1,0.4-1.5,0.4c-0.4,0-0.7-0.1-1-0.2c-0.9-0.4-1.6-1.1-2.4-1.9c-0.3-0.2-0.6-0.6-0.9-0.8c-0.5-0.4-0.9-0.8-1.4-1.2
		c-1.5-1.3-3-2.6-4.2-4.2c-0.4-0.6-0.3-1.4-0.3-2.2c0.1-1.1,0.2-2.4-0.8-3.2c-0.3-0.2-14.2-13-16.6-15.3c0.2-0.6,0.6-1.4,1.2-1.4
		c0.2,0,0.7,0.1,1.4,0.6c0.6,0.6,15.4,14.6,15.4,14.7c0.5,0.4,1,0.6,1.8,0.6c0.6,0,1-0.1,1.6-0.2c0.4-0.1,0.9-0.2,1.2-0.2
		c0.1,0,0.1,0,0.2,0c0.8,0.1,1.5,0.6,2.2,1.2c0.1,0.1,0.2,0.2,0.3,0.3c2.5,1.9,4.7,4.2,6.6,6c0.2,0.2,0.2,0.2,0.4,0.4
		C421.7,318,422.2,318.4,422.2,318.8z"/>
	<path fill="#99C2FF" d="M386.6,289.4c-0.6,0.3-1.3,0.8-1.8,1.4l-2-2c0.1-0.3,0.2-0.7,0.5-1c0.3-0.2,0.8-0.2,1.4-0.2L386.6,289.4z"
		/>
</g>
</svg>
