<?xml version="1.0" encoding="utf-8"?>
<!-- Generator: Adobe Illustrator 18.1.1, SVG Export Plug-In . SVG Version: 6.00 Build 0)  -->
<!DOCTYPE svg PUBLIC "-//W3C//DTD SVG 1.1//EN" "http://www.w3.org/Graphics/SVG/1.1/DTD/svg11.dtd">
<svg version="1.1" id="whole" xmlns="http://www.w3.org/2000/svg" xmlns:xlink="http://www.w3.org/1999/xlink" x="0px" y="0px"
	 viewBox="-275 3306 550 300" enable-background="new -275 3306 550 300" xml:space="preserve">
<g id="boat">
	<g>
		<path fill="#7A9BCC" d="M215.5,3326.1c-38.1,17.5-79,28.8-120.4,35c-42.9,6.6-87,7.7-130.5,7.3c-42.4-0.3-84.4-2.8-126.4-9.8
			c-27.6-4.6-55-10.8-81.9-18.5c-0.9-0.2-1.8-0.6-2.7-0.8l-10.6-3.3l4.1,10.5c0.3,1.1,11,27.8,27.6,56.4
			c12.9,22.3,28.4,46.8,50.6,61c11.9,7.6,26.7,12.9,40.3,15.5c70.6,13.4,144.5,14.4,215.9,5.4c17.2-2.2,34.3-5.2,51-9.5
			c14.4-3.7,30.1-8.6,41.2-19.6c13.5-13.3,21.1-34.7,27.7-51.9c9-23.2,16.1-47.4,21.4-71.7l1.9-10.2
			C225.1,3321.7,215.6,3326.1,215.5,3326.1z M156.2,3454.6c-2.2,1.3-4.5,2.3-7,2.8c-45.5,9.8-92,15.1-138.5,16.4
			c-23.4,0.7-47.1,0.9-70.5-0.9c-22.8-1.7-46.3-2-68.9-6.3c-12.6-2.4-25-6.1-36.6-11.7c-12.8-6.2-20.4-13.9-29.1-24.9
			c-2.2-2.8-7.6-13.6-10.6-14.6c60.4,20.1,160.7,20.5,192.3,20.1c6.3-0.1,9.9-0.2,9.9-0.2c2.5-0.1,5-0.3,7.6-0.5
			c7.5-0.5,15-1,22.2-1.6c5.7-0.5,11.4-1,16.8-1.5c67.8-6.6,118.7-17.1,141.6-22.4C179.4,3422.6,170.4,3446,156.2,3454.6z
			 M197.3,3381.1c-44.9,20.2-121.9,29.1-172,32.9c-6.3,0.5-11.9,0.9-17.3,1.1c-9.9,0.6-17.9,0.9-23.3,1.1c-5.1,0.2-7.8,0.2-7.8,0.2
			c-3.3,0.1-6.6,0.1-9.9,0.2c-87.2,0.9-162.1-18-186.2-24.8c-8.6-15.4-15.4-29.9-19.4-39.2c32.6,9,66.1,16,99.7,20
			c79.4,9.4,164.2,10.8,243.3-2.3c17.4-2.8,34.7-6.7,51.7-11.4c9-2.5,18-5.2,26.7-8.3c3.5-1.3,26.4-7.3,27.2-10.5
			C208,3349.3,203.6,3364.5,197.3,3381.1z"/>
	</g>
	<path fill="#CEDFF4" d="M210,3340.2c-2,9.1-6.5,24.2-12.7,40.8c-44.9,20.2-121.9,29.1-172,32.9c-6.3,0.5-11.9,0.9-17.3,1.1
		c-9.9,0.6-17.9,0.9-23.3,1.1c-5.1,0.2-7.8,0.2-7.8,0.2c-3.3,0.1-6.6,0.1-9.9,0.2c-87.2,0.9-162.1-18-186.2-24.8
		c-8.6-15.4-15.4-29.9-19.4-39.2c32.6,9,66.1,16,99.7,20c79.4,9.4,164.2,10.8,243.3-2.3c17.4-2.8,34.7-6.7,51.7-11.4
		c9-2.5,18-5.2,26.7-8.3C186.4,3349.5,209.2,3343.4,210,3340.2z"/>
	<path fill="#CEDFF4" d="M185.5,3409.4c-6.1,13.2-15,36.6-29.3,45.2c-2.2,1.3-4.5,2.3-7,2.8c-45.5,9.8-92,15.1-138.5,16.4
		c-23.4,0.7-47.1,0.9-70.5-0.9c-22.8-1.7-46.3-2-68.9-6.3c-12.6-2.4-25-6.1-36.6-11.7c-12.8-6.2-20.4-13.9-29.1-24.9
		c-2.2-2.8-7.6-13.6-10.6-14.6c60.4,20.1,160.7,20.5,192.3,20.1c6.3-0.1,9.9-0.2,9.9-0.2c2.5-0.1,5-0.3,7.6-0.5
		c7.5-0.5,15-1,22.2-1.6c5.7-0.5,11.4-1,16.8-1.5C111.7,3425.2,162.6,3414.7,185.5,3409.4z"/>
</g>
<g id="water_1_">
	<g id="water">
		<path fill="#6187B5" d="M243.3,3450c-6.4,13.2-15.2,20.7-26.3,22.4c-16.8,2.7-33.9-9.4-42-16.5c-6,8.3-13.3,13-21.8,13.9
			c-13,1.6-25.1-6.1-31.7-11.6c-6,9.4-13.8,14.9-23,16.3c-1.6,0.2-3,0.3-4.4,0.3c-3.3,0-6.6-0.6-9.7-1.4
			c-11-3.1-20.7-10.5-26.3-15.2c-2.8,4.1-6.1,7.4-9.7,9.7c-3.9,2.7-8.1,4.2-12.5,4.8c-1.4,0.2-2.7,0.2-4.1,0.2
			c-11,0-20.9-5.8-26.7-10.2c-0.3,0.8-1,1.4-1.4,2.2c-2.2,3.1-4.7,5.8-7.4,8c-4.2,3.5-9.1,5.6-14.3,6.4c-1.6,0.2-3.3,0.3-4.8,0.3
			c-15.2,0-29.8-10.5-37.1-16.8c-6,8.3-13.3,13-21.8,13.9c-13,1.6-25.1-6.1-31.7-11.6c-6,9.4-13.8,14.9-23,16.3
			c-1.6,0.2-3,0.3-4.4,0.3c-14.7,0-28.8-10.5-35.9-16.6c-6.1,8.3-13.8,13.5-22.6,15.1c-19.7,3.6-38.3-11-39-11.6l6.7-8.3
			c0.2,0.2,11.6,9.3,24.3,9.9c1.9,0,3.9,0,5.8-0.3c3.3-0.6,6.1-1.9,9.1-3.9c3.6-2.7,6.9-6.6,9.9-11.6l3.6-6.4l5,5.5
			c0.2,0.2,19.1,20.2,35.7,17.7c7.4-1.1,13.5-6.6,18.3-16.5l3.5-6.9l5.2,5.6c0.2,0.2,14.1,14.9,27.9,13.2
			c6.6-0.8,12.6-5.6,17.4-14.1l3.5-6.1l5,5.2c0.2,0.2,20.1,20.5,37.5,17.7c2.8-0.3,5.5-1.6,8-3.3c2.7-1.9,5.2-4.4,7.4-8
			c1.1-1.6,2.2-3.5,3.1-5.5l3.1-6.4l0.2-0.3l5.2,5.2c0.2,0.2,13.5,13.2,27.1,11.4c3.3-0.3,6.6-1.9,9.4-4.2c3.1-2.5,6-6,8.5-10.7
			l3.6-6.4l5,5.5c0.2,0.2,19.1,20.4,35.8,17.7c7.4-1.1,13.3-6.6,18.3-16.5l3.5-6.9l5.5,5.6c0,0,3,2.8,6.9,6c2.7,1.9,6,3.9,9.4,5.5
			c3.6,1.4,7.5,2.3,11.3,1.7c6.6-0.8,12.5-5.6,17.4-14.1l3.5-6.1l5,5.2c0.2,0.2,20.1,20.5,37.5,17.7c7.4-1.1,13.5-6.7,18.3-16.4
			L243.3,3450z"/>
	</g>
	<path fill="#FFFFFF" d="M243.3,3450.1v143.8h-481.7v-125.4c0.7,0.6,19.3,15.2,39,11.6c8.9-1.6,16.5-6.8,22.6-15.1
		c7.2,6.1,21.3,16.6,35.9,16.6c1.5,0,2.8-0.1,4.4-0.3c9.2-1.4,16.9-6.8,23-16.3c6.6,5.5,18.8,13.2,31.7,11.6
		c8.5-0.9,15.8-5.6,21.8-13.9c7.3,6.4,21.8,16.8,37.1,16.8c1.5,0,3.2-0.1,4.8-0.3c5.2-0.8,10.1-2.8,14.3-6.4c2.7-2.2,5.2-4.9,7.4-8
		c0.3-0.8,1-1.4,1.4-2.2c5.8,4.4,15.7,10.2,26.7,10.2c1.4,0,2.7,0,4.1-0.2c4.4-0.6,8.6-2,12.5-4.8c3.5-2.3,6.8-5.6,9.7-9.7
		c5.6,4.8,15.2,12.2,26.3,15.2c3.1,0.8,6.4,1.4,9.7,1.4c1.5,0,2.8-0.1,4.4-0.3c9.2-1.4,16.9-6.8,23-16.3
		c6.6,5.5,18.8,13.2,31.7,11.6c8.5-0.9,15.8-5.6,21.8-13.9c8.1,7.1,25.1,19.2,42,16.5C228,3470.8,236.9,3463.2,243.3,3450.1z"/>
</g>
<g id="oar_1_">
	<g id="oar">
		<g>
			<path fill="#B2D6F9" d="M178.4,3544.9c-1.1,8.9-6.9,20.5-13.9,27.3c-1.6,1.6-3.1,2.8-4.7,4.2c-5,4.7-9.7,8-14.1,10.2
				s-8.5,3.3-12.2,3.3c-3,0-5.6-0.6-8.5-1.9c-6.9-3.5-12.7-9.1-19-15.1c-2.3-2.2-4.7-4.4-6.9-6.6c-3.5-3.3-7.4-6.4-10.8-9.4
				c-11.8-10-24-20.7-33.1-33.2c-3.1-4.2-2.7-11-2.3-18c0.6-8.9,1.1-18.8-6.1-25.5c-0.3-0.3-4.4-4.1-11-10c-2.7-2.5-6-5.5-9.4-8.6
				c-6.8-6.1-14.7-13.5-23.4-21.5c-7.7-6.9-15.8-14.6-24-22.1c-21.6-19.9-43.7-40.3-58.2-53.6c-2.2-1.9-3.3-4.7-3.1-7.5
				c0-2.7,1.1-5,3.3-6.8c1.1-1,2.5-1.6,3.9-1.6c1.9,0,5.5,1,10.7,5.2c2.5,2.3,35,33.4,66,62.8c8,7.5,15.7,14.9,22.6,21.6
				c3.3,3.3,6.6,6.4,9.7,9.3c13.9,13.3,23.8,22.6,23.8,22.9c4.1,3.9,9.1,5.8,15.5,5.8c4.2,0,8.5-0.8,12.5-1.7c1-0.2,2.2-0.3,3.1-0.6
				c2.3-0.3,4.4-0.8,6.4-0.8c0.3,0,0.8,0,1.1,0c6.1,0.6,11.8,5,17.6,9.9c1,0.8,1.9,1.6,2.7,2.2c19.6,15.2,37.1,32.6,51.6,47.5
				c1,0.9,2.2,2.2,3.3,3.1C174.8,3538.6,178.9,3542.4,178.4,3544.9z"/>
			<path fill="#7A9BCC" d="M180.4,3526.3c-1-1-1.9-1.7-2.7-2.7c-13.2-13.5-28.8-28.8-46.2-43.1c-2.3-1.7-4.4-3.6-6.8-5.5
				c-0.9-0.8-1.7-1.4-2.7-2.2c-6.8-5.5-14.6-11.6-24.6-12.5c-0.8,0-1.6-0.2-2.3-0.2c-3.9,0-7.7,0.8-11.6,1.6h-0.2
				c-3.6,0.8-7.2,1.4-10,1.4c-3.1,0-5-0.6-6.6-2.2c-0.2,0-10.7-10-25.5-24.1c-5.5-5.1-11.5-11-17.7-17.1c-1.5-1.4-3-2.8-4.4-4.2
				c-4.7-4.4-9.4-9-14.2-13.5c-11-10.6-22.2-21-31.6-30.1c-2.6-2.5-5.1-4.8-7.4-7.1c-1.9-1.8-3.6-3.5-5.3-5.1
				c-2.6-2.5-5-4.7-7.1-6.7c-5.5-5.2-8.6-8.4-8.6-8.4l-0.3-0.2c-6.6-5.6-13-8.3-19-8.3c-4.4,0-8.5,1.6-11.9,4.4
				c-4.8,4.1-7.7,9.9-8,16.3c-0.2,6.6,2.5,12.7,7.4,17.2c9,8.2,20.7,19.1,33.6,30.9c4.9,4.5,10,9.1,15.1,13.8c1.8,1.7,3.5,3.3,5.3,5
				c6.4,5.9,12.9,11.7,19,17.4c11.9,11,23.2,21.5,32.3,29.8c3.5,3.3,6.8,6.1,9.4,8.6c6.6,6,10.7,9.7,11,10c3,2.5,2.5,8.6,2.2,15.2
				c-0.6,8.5-1,18.2,4.7,26.3c10,13.8,22.9,24.8,35.1,35.4c3.5,3.1,7.2,6.1,10.7,9.3c2.2,1.9,4.4,4.1,6.6,6.1
				c6.6,6.4,13.3,13,22.1,17.2c4.4,2.2,9.3,3.3,14.1,3.3c10.8,0,22.2-5.5,34.8-16.8c1.6-1.4,3.3-2.8,5-4.7
				c8.9-8.6,16.3-23,17.6-34.6C192.4,3537.3,185.5,3530.9,180.4,3526.3z M178.4,3544.9c-1.1,8.9-6.9,20.5-13.9,27.3
				c-1.6,1.6-3.1,2.8-4.7,4.2c-5,4.7-9.7,8-14.1,10.2s-8.5,3.3-12.2,3.3c-3,0-5.6-0.6-8.5-1.9c-6.9-3.5-12.7-9.1-19-15.1
				c-2.3-2.2-4.7-4.4-6.9-6.6c-3.5-3.3-7.4-6.4-10.8-9.4c-11.8-10-24-20.7-33.1-33.2c-3.1-4.2-2.7-11-2.3-18
				c0.6-8.9,1.1-18.8-6.1-25.5c-0.3-0.3-4.4-4.1-11-10c-2.7-2.5-6-5.5-9.4-8.6c-6.8-6.1-14.7-13.5-23.4-21.5
				c-6-5.5-12.3-11.3-18.5-17.1c-1.8-1.7-3.6-3.3-5.5-5c-4.9-4.5-9.9-9.1-14.8-13.5c-1.8-1.7-3.6-3.3-5.5-5
				c-1.1-1.1-2.4-2.2-3.5-3.3c-3.6-3.3-7.2-6.6-10.6-9.7c-1-0.9-2-1.9-3.1-2.8c-0.6-0.6-1.3-1.1-1.8-1.7c-1-0.9-2-1.8-3.1-2.8
				c-4.2-3.9-8.2-7.5-11.8-10.8c-0.7-0.7-1.5-1.4-2.2-1.9c-0.8-0.7-1.5-1.4-2.2-1.9c-2.2-1.9-3.3-4.7-3.1-7.5c0-2.7,1.1-5,3.3-6.8
				c1.1-1,2.5-1.6,3.9-1.6c1.9,0,5.5,1,10.7,5.2c0.2,0.1,0.5,0.5,0.9,0.8c0.1,0.1,0.3,0.3,0.6,0.6c1.5,1.4,3.9,3.6,7.1,6.7
				c0.2,0.2,0.6,0.5,0.8,0.8c0.8,0.8,1.7,1.7,2.7,2.5c0.6,0.5,1,1,1.6,1.5c0.6,0.6,1.1,1,1.7,1.6c0.5,0.5,1,1,1.6,1.5
				c1.8,1.7,3.8,3.6,5.8,5.6c1.3,1.1,2.5,2.4,3.8,3.6c7.7,7.4,16.5,15.7,25.6,24.3c4.7,4.4,9.3,8.9,14,13.3c1.7,1.6,3.4,3.2,5.1,4.8
				c0.8,0.7,1.6,1.5,2.3,2.2c1.1,1.1,2.3,2.2,3.5,3.3c4.1,3.9,8.1,7.7,11.7,11.3c3.3,3.3,6.6,6.4,9.7,9.3
				c13.9,13.3,23.8,22.6,23.8,22.9c4.1,3.9,9.1,5.8,15.5,5.8c4.2,0,8.5-0.8,12.5-1.7c1-0.2,2.2-0.3,3.1-0.6c2.3-0.3,4.4-0.8,6.4-0.8
				H96c6.1,0.6,11.8,5,17.6,9.9c1,0.8,1.9,1.6,2.7,2.2c19.6,15.2,37.1,32.6,51.6,47.5c1,0.9,2.2,2.2,3.3,3.1
				C174.8,3538.6,178.9,3542.4,178.4,3544.9z"/>
		</g>
	</g>
</g>
</svg>
