<?xml version="1.0" encoding="utf-8"?>
<!-- Generator: Adobe Illustrator 18.1.1, SVG Export Plug-In . SVG Version: 6.00 Build 0)  -->
<!DOCTYPE svg PUBLIC "-//W3C//DTD SVG 1.1//EN" "http://www.w3.org/Graphics/SVG/1.1/DTD/svg11.dtd">
<svg version="1.1" id="Layer_1" xmlns="http://www.w3.org/2000/svg" xmlns:xlink="http://www.w3.org/1999/xlink" x="0px" y="0px"
	 viewBox="436.6 250.5 612 612" enable-background="new 436.6 250.5 612 612" xml:space="preserve">
<path fill="#FFFFFF" d="M742.6,862.5L742.6,862.5c-168.9,0-306-137.1-306-306l0,0c0-168.9,137.1-306,306-306l0,0
	c168.9,0,306,137.1,306,306l0,0C1048.6,725.4,911.5,862.5,742.6,862.5z"/>
<g>
	<path fill="#7A9BCC" d="M852.5,623c2.1,1.7,4.2,3.4,6.3,5.1C856.7,626.4,854.6,624.7,852.5,623z M725.4,565.1
		c-81.6,1.8-153-15.8-176.5-22.6c0.1,0.2,0.2,0.4,0.3,0.5c23.2,6.1,94.2,24.5,176.9,22.6C725.9,565.5,725.6,565.3,725.4,565.1z
		 M687.6,530.2c1.4,1.3,4.9,4.4,9.7,8.8C691.9,534,688.3,530.7,687.6,530.2z M667.7,494.6l2.5,2.5c0,0,0,0,0.1-0.1L667.7,494.6z"/>
	<path fill="#7A9BCC" d="M950.7,592.6c-4.3,8.6-10.4,14.1-16.5,15.3c-8,1.2-15.9-3.1-21.4-6.7c-0.6-0.6-1.2-1.2-1.8-1.2
		c29.4-34.9,43.4-107.7,44.1-111.4l1.8-9.2l-9.2,3.7c-53.2,24.5-108.9,33-146.3,36.1c-31.8,2.5-56.3,1.2-64.9,0.6
		c-3.7-16.5-17.1-30-33-33.1c-3.7-0.6-6.7-1.2-9.8-0.6l-18.4-15.9l-1.2-0.6c-7.3-2.4-13.5-1.2-18.4,1.8c-6.7,5.5-7.4,14.7-7.4,15.9
		v1.8l16.5,16.5c-2.5,4.3-3.7,8.6-4.9,12.2c-61.8-0.6-135.9-23.2-136.5-23.2l-9.8-3.1l3.7,9.8c0.6,1.2,10.4,25.7,25.7,51.4
		c17.8,30.6,35.5,50.2,51.4,58.8c-3.1,1.8-6.1,3.7-8.6,3.7c-13.5,3.1-28.1-8-28.1-8l-6.1,7.3c0.6,0.6,17.7,14.1,35.5,11
		c8.6-1.2,15.3-6.1,20.8-13.5c6.1,6.1,19.6,15.3,33,15.3c1.2,0,2.5,0,3.7-0.6c8.6-1.2,15.9-6.1,20.8-14.7c6.1,4.9,17.1,12.2,28.8,11
		c8-1.2,14.1-5.5,20.2-12.8c7.3,6.1,22,17.1,37.3,15.3c8.6-1.2,15.9-6.1,21.4-15.3c9.8,9.2,16.5,15.3,17.1,15.9
		c1.8,1.8,1.8,6.7,1.2,11.6c-0.6,6.7-1.2,14.1,3.7,20.2c8,11,17.8,19,27.5,27.5c3.1,2.4,5.5,4.9,8.6,7.3c1.8,1.2,3.7,3.1,5.5,4.9
		c4.9,4.9,10.4,9.8,17.1,13.5c3.7,1.8,7.4,2.4,11,2.4c8.6,0,17.1-4.3,26.9-13.5c1.2-1.2,2.5-2.5,3.7-3.7
		c6.7-6.7,12.9-17.8,13.5-26.9c1.2-7.3-4.3-12.2-8.6-15.9c-1.2-0.6-1.2-1.2-1.8-1.8c-9.8-9.8-20.8-20.8-33-31.2
		c9.8,0,22.7-3.7,33-18.4c1.8,1.8,4.9,3.7,8,6.1c10.4,6.7,20.2,9.8,28.8,8.6c10.4-1.2,18.4-8.6,23.9-20.8L950.7,592.6z M801.3,529
		c3.4-0.3,6.9-0.6,10.6-1c1.8-0.2,3.7-0.4,5.6-0.6c27.2-3.1,61.2-9.1,96.3-20.8c1.2-0.4,2.4-0.8,3.6-1.2c1.2-0.4,2.5-0.9,3.8-1.3
		c1.3-0.5,2.5-0.9,3.8-1.4c0.2-0.1,0.3-0.1,0.5-0.2c1.5-0.5,2.9-1.1,4.4-1.6c0,0,0,0,0,0c1-0.4,2-0.8,3-1.2c0.6-0.2,1.2-0.5,1.8-0.7
		c0.8-0.3,1.6-0.6,2.4-1c1.6-0.7,3.2-1.3,4.9-2c-1.8,8.6-5.5,22-10.4,36.7c-50.8,24.5-134,29.4-162.2,30.6
		c-12.2-11.6-25.7-23.9-35.5-33C743.2,530.2,767.7,531.4,801.3,529z M658.1,485.5c0.6-1.8,1.2-4.3,3.1-6.1c1.8-1.2,4.9-1.2,8.6-1.2
		l12.2,11c-3.7,1.8-8,4.9-11,8.6l-0.7-0.7c0,0,0,0-0.1,0.1l-2.5-2.5L658.1,485.5z M548.9,542.5L548.9,542.5c-0.1,0-0.2,0-0.3-0.1
		c-8-13.5-14.7-26.9-17.8-35.5c23.2,6.1,82,20.8,132.8,20.8h3.7l1.2-3.7c0,0,0,0,0-0.1c0,0,0-0.1,0-0.1c0-0.1,0.1-0.3,0.1-0.6
		c0.5-2.2,2.3-8.7,5.3-12.7c7.3-11,17.1-16.5,27.5-14.1c11.6,2.4,21.4,12.9,25.1,25.1c-5.5-4.9-8.6-8.6-8.6-8.6
		c-2.5-2.5-4.9-3.7-7.3-4.9c-2.5-1.2-4.9-1.8-7.4-1.8c-0.3,0-0.5,0-0.8,0c-0.2,0-0.4,0-0.6,0c-0.5,0-1,0.1-1.5,0.2
		c-0.1,0-0.2,0-0.4,0.1c-0.2,0-0.3,0.1-0.5,0.1c-0.1,0-0.2,0.1-0.4,0.1c0,0-0.1,0-0.1,0c-0.4,0.1-0.8,0.2-1.2,0.4
		c-7.3,3-10.9,11.8-12.4,17.3l-0.6,3.1l1.9,1.9c0.1,0.1,0.3,0.3,0.7,0.6c0.7,0.4,4.2,3.7,9.7,8.8c0.1,0.1,0.2,0.2,0.3,0.3
		c7.2,6.5,17.1,15.7,27.8,25.8h-0.1c0.2,0.2,0.5,0.4,0.7,0.6c-82.6,1.8-153.6-16.5-176.9-22.6C549.1,542.9,549,542.7,548.9,542.5z
		 M750.6,615.2c-7,1.1-14.5-2.1-20.6-6c-7.2-4.6-12.5-10-12.5-10l-4.3-4.9l-3.4,5.8l-0.2,0.4c-4.3,8-9.8,12.2-15.9,13.5
		c-8.5,0.8-16.9-4.5-21.7-8.4c-2.5-2-4-3.7-4-3.9l-4.9-5.5l-3.7,6.1c-1.3,2.5-2.7,4.7-4.2,6.7c-3.7,4.7-8,7.7-12.3,8.6
		c-15.3,2.4-33-15.9-33-15.9l-4.3-4.9l-3.7,6.1c-0.6,1.2-1.2,1.2-1.2,2.5c-12.2-4.9-25.7-18.4-39.8-39.8
		c60.6,20.2,165.8,18.4,183,18.4c7.3,6.7,15.3,13.5,21.4,19.6C762.2,610.4,756.7,614.6,750.6,615.2z M890.7,658.1
		c0.2,0.2,0.4,0.4,0.6,0.6c0,0,0,0,0,0c0,0,0.1,0.1,0.1,0.1c0,0,0.1,0.1,0.2,0.2c0,0,0.1,0.1,0.1,0.1c0.1,0.1,0.2,0.2,0.3,0.3
		c0.1,0.1,0.2,0.2,0.3,0.3c0,0,0.1,0,0.1,0.1c0.1,0.1,0.1,0.1,0.2,0.2c0,0,0.1,0.1,0.1,0.2c0.1,0,0.1,0.1,0.2,0.2
		c0,0,0.1,0.1,0.1,0.1c0,0,0.1,0.1,0.1,0.1c0.2,0.2,0.4,0.4,0.6,0.6c0.4,0.4,0.8,0.8,1.2,1.2c0.4,0.4,0.8,0.8,1.2,1.2
		c0.1,0.1,0.2,0.2,0.3,0.3c0.2,0.2,0.3,0.3,0.5,0.5c0.2,0.2,0.3,0.3,0.5,0.5c0.2,0.2,0.3,0.3,0.4,0.5c0.1,0.2,0.3,0.3,0.4,0.5
		c0.1,0.2,0.2,0.3,0.3,0.5c0.2,0.3,0.4,0.6,0.5,0.9c0.1,0.1,0.1,0.3,0.2,0.5c0,0.2,0.1,0.3,0.1,0.5c0,0,0,0,0,0c0,0.1,0,0.3,0,0.4
		c-1.2,6.7-5.5,15.9-11,20.8l-3.7,3.7c-3.7,3.7-7.3,6.1-11,8c-3.7,1.8-6.1,2.5-9.2,2.5c-2.5,0-4.3-0.6-6.1-1.2
		c-5.5-2.5-9.8-6.7-14.7-11.6c-1.8-1.2-3.7-3.7-5.5-4.9c-3.1-2.5-5.5-4.9-8.6-7.3c-9.2-8-18.4-15.9-25.7-25.7
		c-2.5-3.7-1.8-8.6-1.8-13.5c0.6-6.7,1.2-14.7-4.9-19.6c-1.8-1.2-86.9-79.6-101.6-93.6c1.2-3.7,3.7-8.6,7.3-8.6
		c1.2,0,4.3,0.6,8.6,3.7c3.7,3.7,94.2,89.4,94.2,90c3.1,2.5,6.1,3.7,11,3.7c3.7,0,6.1-0.6,9.8-1.2c2.5-0.6,5.5-1.2,7.3-1.2
		c0.6,0,0.6,0,1.2,0c4.9,0.6,9.2,3.7,13.5,7.3c0.6,0.6,1.2,1.2,1.8,1.8c0.7,0.5,1.4,1.1,2.1,1.7c2.1,1.7,4.2,3.4,6.3,5.1
		c0.1,0.1,0.2,0.2,0.3,0.3C871.1,638.5,881.9,649.2,890.7,658.1z M902.3,593.2c-1.2-1.2-1.2-1.2-1.2-1.2l-4.3-4.9l-3.7,6.1
		c-6.7,12.2-16.5,18.4-28.8,18.4c-9.2,0-17.1-3.7-17.1-4.3c-1.2-1.2-3.1-1.8-4.9-2.5c-1.8-0.6-3.7-1.2-5.5-1.2H835
		c-3.1,0-6.1,0.6-9.2,1.2c-2.5,0.6-5.5,1.2-8,1.2c-2.5,0-3.7-0.6-4.9-1.8c0,0-10.4-9.8-23.9-23.3c15.9-1.2,30.6-2.4,44.1-4.3
		c5.5-0.6,10.4-1.2,14.7-2.5c42.2-6.7,66.7-16.5,77.1-22C918.9,567.5,911.5,582.2,902.3,593.2z"/>
	<path fill="#B2D6F9" d="M697.6,539.3c-0.1-0.1-0.2-0.2-0.3-0.3c-5.5-5.1-9-8.4-9.7-8.8c0,0-0.1,0-0.1,0l-0.6-0.6l-1.9-1.9l0.6-3.1
		c1-5.5,4.9-14.4,12.4-17.3c0.4-0.2,0.8-0.3,1.2-0.4c0,0,0.1,0,0.1,0c0.1,0,0.2-0.1,0.4-0.1c0.2,0,0.3-0.1,0.5-0.1
		c0.1,0,0.2-0.1,0.4-0.1c0.5-0.1,1-0.2,1.5-0.2c0.2,0,0.4,0,0.6,0c0.2,0,0.5,0,0.8,0c2.5,0,4.9,0.6,7.4,1.8c2.4,1.2,4.9,2.4,7.3,4.9
		c0,0,3.1,3.7,8.6,8.6c-3.7-12.2-13.5-22.7-25.1-25.1c-10.4-2.4-20.2,3.1-27.5,14.1c-3,4.5-4.8,10.6-5.3,12.7
		c-0.1,0.2-0.1,0.4-0.1,0.6c0,0,0,0.1,0,0.1c0,0.1,0,0.1,0,0.1l-1.2,3.7h-3.7c-50.8,0-109.6-14.7-132.8-20.8
		c3.6,8.5,9.6,21.7,18,35.6h0c0.1,0.2,0.2,0.4,0.3,0.5c23.2,6.1,94.2,24.5,176.9,22.6c-0.2-0.2-0.5-0.4-0.7-0.6
		C714.5,555.1,704.5,545.8,697.6,539.3z"/>
	<path fill="#B2D6F9" d="M765.2,603.6c-3.1,6.7-8.6,11-14.7,11.6c-7,1.1-14.5-2.1-20.6-6c-7.2-4.6-12.5-10-12.5-10l-4.3-4.9
		l-3.4,5.8l-0.2,0.4c-4.3,8-9.8,12.2-15.9,13.5c-8.5,0.8-16.9-4.5-21.7-8.4c-2.5-2-4-3.7-4-3.9l-4.9-5.5l-3.7,6.1
		c-1.3,2.5-2.7,4.7-4.2,6.7c-3.7,4.7-8,7.7-12.3,8.6c-15.3,2.4-33-15.9-33-15.9l-4.3-4.9l-3.7,6.1c-0.6,1.2-1.2,1.2-1.2,2.5
		c-12.2-4.9-25.7-18.4-39.8-39.8c60.6,20.2,165.8,18.4,183,18.4C751.2,590.8,759.1,597.5,765.2,603.6z"/>
	<path fill="#B2D6F9" d="M937.2,497.9c-0.8,0.3-1.6,0.7-2.4,1c-0.6,0.2-1.2,0.5-1.8,0.7c-1,0.4-2,0.8-3,1.2c0,0,0,0,0,0
		c-1.5,0.6-2.9,1.1-4.4,1.6c-0.2,0.1-0.3,0.1-0.5,0.2c-1.3,0.5-2.6,0.9-3.8,1.4c-1.3,0.4-2.5,0.9-3.8,1.3
		c-38.8,13.3-76.3,19.6-105.5,22.6c-3.7,0.4-7.2,0.7-10.6,1c-33.7,2.4-58.1,1.2-67.3,1.2c9.8,9.2,23.3,21.4,35.5,33
		c28.1-1.2,111.4-6.1,162.2-30.6c4.9-14.7,8.6-28.2,10.4-36.7C940.5,496.6,938.9,497.3,937.2,497.9z"/>
	<path fill="#B2D6F9" d="M925,552.2c-6.1,15.3-13.5,30-22.6,41c-1.2-1.2-1.2-1.2-1.2-1.2l-4.3-4.9l-3.7,6.1
		c-6.7,12.2-16.5,18.4-28.8,18.4c-9.2,0-17.1-3.7-17.1-4.3c-1.2-1.2-3.1-1.8-4.9-2.5c-1.8-0.6-3.7-1.2-5.5-1.2H835
		c-3.1,0-6.1,0.6-9.2,1.2c-2.5,0.6-5.5,1.2-8,1.2c-2.5,0-3.7-0.6-4.9-1.8c0,0-10.4-9.8-23.9-23.3c15.9-1.2,30.6-2.4,44.1-4.3
		c5.5-0.6,10.4-1.2,14.7-2.5C890.1,567.5,914.6,557.7,925,552.2z"/>
	<path fill="#99C2FF" d="M899.3,668.5c-1.2,6.7-5.5,15.9-11,20.8l-3.7,3.7c-3.7,3.7-7.3,6.1-11,8c-3.7,1.8-6.1,2.5-9.2,2.5
		c-2.5,0-4.3-0.6-6.1-1.2c-5.5-2.5-9.8-6.7-14.7-11.6c-1.8-1.2-3.7-3.7-5.5-4.9c-3.1-2.5-5.5-4.9-8.6-7.3
		c-9.2-8-18.4-15.9-25.7-25.7c-2.5-3.7-1.8-8.6-1.8-13.5c0.6-6.7,1.2-14.7-4.9-19.6c-1.8-1.2-86.9-79.6-101.6-93.6
		c1.2-3.7,3.7-8.6,7.3-8.6c1.2,0,4.3,0.6,8.6,3.7c3.7,3.7,94.2,89.4,94.2,90c3.1,2.5,6.1,3.7,11,3.7c3.7,0,6.1-0.6,9.8-1.2
		c2.5-0.6,5.5-1.2,7.3-1.2c0.6,0,0.6,0,1.2,0c4.9,0.6,9.2,3.7,13.5,7.3c0.6,0.6,1.2,1.2,1.8,1.8c0.7,0.5,1.4,1.1,2.1,1.7
		c2.1,1.7,4.2,3.4,6.3,5.1c0.1,0.1,0.2,0.2,0.3,0.3c11.7,10,22.3,20.8,31.6,29.7c0.2,0.2,0.4,0.4,0.6,0.6c0,0,0.1,0.1,0.1,0.2
		c0,0,0.1,0.1,0.2,0.2c0,0,0.1,0.1,0.1,0.1c0.1,0.1,0.2,0.2,0.3,0.3c0.1,0.1,0.2,0.2,0.3,0.3c0,0,0.1,0,0.1,0.1
		c0.1,0.1,0.1,0.1,0.2,0.2c0,0,0.1,0.1,0.1,0.2c0.1,0,0.1,0.1,0.2,0.2c0,0,0.1,0.1,0.1,0.1c0,0,0.1,0.1,0.1,0.1
		c0.2,0.2,0.4,0.4,0.6,0.6c0.4,0.4,0.8,0.8,1.2,1.2c0.4,0.4,0.8,0.8,1.2,1.2c0.1,0.1,0.2,0.2,0.3,0.3c0.2,0.2,0.3,0.3,0.5,0.5
		c0.2,0.2,0.3,0.3,0.5,0.5c0.1,0.2,0.3,0.3,0.4,0.5c0.1,0.2,0.2,0.3,0.4,0.5c0.1,0.2,0.2,0.3,0.3,0.5c0.2,0.3,0.4,0.6,0.5,0.9
		c0.1,0.1,0.1,0.3,0.2,0.5c0,0.2,0.1,0.3,0.1,0.5c0,0,0,0,0,0C899.3,668.2,899.3,668.4,899.3,668.5z"/>
	<path fill="#99C2FF" d="M682,489.2c-3.7,1.8-8,4.9-11,8.6l-0.7-0.7l-2.6-2.5l-9.5-9.1c0.6-1.8,1.2-4.3,3.1-6.1
		c1.8-1.2,4.9-1.2,8.6-1.2L682,489.2z"/>
	<path fill="#99C2FF" d="M670.3,497.1C670.3,497.1,670.2,497.1,670.3,497.1l-2.6-2.5L670.3,497.1z"/>
</g>
</svg>
