<?xml version="1.0" encoding="utf-8"?>
<!-- Generator: Adobe Illustrator 18.1.1, SVG Export Plug-In . SVG Version: 6.00 Build 0)  -->
<!DOCTYPE svg PUBLIC "-//W3C//DTD SVG 1.1//EN" "http://www.w3.org/Graphics/SVG/1.1/DTD/svg11.dtd">
<svg version="1.1" id="Layer_1" xmlns="http://www.w3.org/2000/svg" xmlns:xlink="http://www.w3.org/1999/xlink" x="0px" y="0px"
	 viewBox="652.6 250.5 792 792" enable-background="new 652.6 250.5 792 792" xml:space="preserve">
<path fill="#FFFFFF" d="M1048.6,1042.5L1048.6,1042.5c-218.6,0-396-177.4-396-396l0,0c0-218.6,177.4-396,396-396l0,0
	c218.6,0,396,177.4,396,396l0,0C1444.6,865.1,1267.2,1042.5,1048.6,1042.5z"/>
<g>
	<path fill="#7A9BCC" d="M1190.8,732.6c2.7,2.2,5.4,4.4,8.2,6.6C1196.3,737,1193.5,734.8,1190.8,732.6z M1026.3,657.6
		c-105.6,2.3-198-20.4-228.4-29.2c0.1,0.3,0.3,0.5,0.4,0.6c30,7.9,121.9,31.7,228.9,29.2C1027,658.1,1026.6,657.9,1026.3,657.6z
		 M977.4,612.5c1.8,1.7,6.3,5.7,12.6,11.4C983,617.4,978.3,613.1,977.4,612.5z M951.7,566.4l3.2,3.2c0,0,0,0,0.1-0.1L951.7,566.4z"
		/>
	<path fill="#7A9BCC" d="M1317.9,693.2c-5.6,11.1-13.5,18.2-21.4,19.8c-10.4,1.6-20.6-4-27.7-8.7c-0.8-0.8-1.6-1.6-2.3-1.6
		c38-45.2,56.2-139.4,57.1-144.2l2.3-11.9l-11.9,4.8c-68.8,31.7-140.9,42.7-189.3,46.7c-41.2,3.2-72.9,1.6-84,0.8
		c-4.8-21.4-22.1-38.8-42.7-42.8c-4.8-0.8-8.7-1.6-12.7-0.8l-23.8-20.6L960,534c-9.4-3.1-17.5-1.6-23.8,2.3
		c-8.7,7.1-9.6,19-9.6,20.6v2.3l21.4,21.4c-3.2,5.6-4.8,11.1-6.3,15.8c-80-0.8-175.9-30-176.6-30l-12.7-4l4.8,12.7
		c0.8,1.6,13.5,33.3,33.3,66.5c23,39.6,45.9,65,66.5,76.1c-4,2.3-7.9,4.8-11.1,4.8c-17.5,4-36.4-10.4-36.4-10.4l-7.9,9.4
		c0.8,0.8,22.9,18.2,45.9,14.2c11.1-1.6,19.8-7.9,26.9-17.5c7.9,7.9,25.4,19.8,42.7,19.8c1.6,0,3.2,0,4.8-0.8
		c11.1-1.6,20.6-7.9,26.9-19c7.9,6.3,22.1,15.8,37.3,14.2c10.4-1.6,18.2-7.1,26.1-16.6c9.4,7.9,28.5,22.1,48.3,19.8
		c11.1-1.6,20.6-7.9,27.7-19.8c12.7,11.9,21.4,19.8,22.1,20.6c2.3,2.3,2.3,8.7,1.6,15c-0.8,8.7-1.6,18.2,4.8,26.1
		c10.4,14.2,23,24.6,35.6,35.6c4,3.1,7.1,6.3,11.1,9.4c2.3,1.6,4.8,4,7.1,6.3c6.3,6.3,13.5,12.7,22.1,17.5c4.8,2.3,9.6,3.1,14.2,3.1
		c11.1,0,22.1-5.6,34.8-17.5c1.6-1.6,3.2-3.2,4.8-4.8c8.7-8.7,16.7-23,17.5-34.8c1.6-9.4-5.6-15.8-11.1-20.6
		c-1.6-0.8-1.6-1.6-2.3-2.3c-12.7-12.7-26.9-26.9-42.7-40.4c12.7,0,29.4-4.8,42.7-23.8c2.3,2.3,6.3,4.8,10.4,7.9
		c13.5,8.7,26.1,12.7,37.3,11.1c13.5-1.6,23.8-11.1,30.9-26.9L1317.9,693.2z M1124.6,610.9c4.4-0.4,8.9-0.8,13.7-1.3
		c2.3-0.3,4.8-0.5,7.2-0.8c35.2-4,79.2-11.8,124.6-26.9c1.6-0.5,3.1-1,4.7-1.6c1.6-0.5,3.2-1.2,4.9-1.7c1.7-0.6,3.2-1.2,4.9-1.8
		c0.3-0.1,0.4-0.1,0.6-0.3c1.9-0.6,3.8-1.4,5.7-2.1l0,0c1.3-0.5,2.6-1,3.9-1.6c0.8-0.3,1.6-0.6,2.3-0.9c1-0.4,2.1-0.8,3.1-1.3
		c2.1-0.9,4.1-1.7,6.3-2.6c-2.3,11.1-7.1,28.5-13.5,47.5c-65.7,31.7-173.4,38-209.9,39.6c-15.8-15-33.3-30.9-45.9-42.7
		C1049.4,612.5,1081.1,614,1124.6,610.9z M939.2,554.6c0.8-2.3,1.6-5.6,4-7.9c2.3-1.6,6.3-1.6,11.1-1.6l15.8,14.2
		c-4.8,2.3-10.4,6.3-14.2,11.1l-0.9-0.9c0,0,0,0-0.1,0.1l-3.2-3.2L939.2,554.6z M797.9,628.4L797.9,628.4c-0.1,0-0.3,0-0.4-0.1
		c-10.4-17.5-19-34.8-23-45.9c30,7.9,106.1,26.9,171.9,26.9h4.8l1.6-4.8c0,0,0,0,0-0.1v-0.1c0-0.1,0.1-0.4,0.1-0.8
		c0.6-2.8,3-11.3,6.9-16.4c9.4-14.2,22.1-21.4,35.6-18.2c15,3.1,27.7,16.7,32.5,32.5c-7.1-6.3-11.1-11.1-11.1-11.1
		c-3.2-3.2-6.3-4.8-9.4-6.3c-3.2-1.6-6.3-2.3-9.6-2.3c-0.4,0-0.6,0-1,0c-0.3,0-0.5,0-0.8,0c-0.6,0-1.3,0.1-1.9,0.3
		c-0.1,0-0.3,0-0.5,0.1c-0.3,0-0.4,0.1-0.6,0.1c-0.1,0-0.3,0.1-0.5,0.1H992c-0.5,0.1-1,0.3-1.6,0.5c-9.4,3.9-14.1,15.3-16,22.4
		l-0.8,4l2.5,2.5c0.1,0.1,0.4,0.4,0.9,0.8c0.9,0.5,5.4,4.8,12.6,11.4c0.1,0.1,0.3,0.3,0.4,0.4c9.3,8.4,22.1,20.3,36,33.4h-0.1
		c0.3,0.3,0.6,0.5,0.9,0.8c-106.9,2.3-198.8-21.4-228.9-29.2C798.2,628.9,798.1,628.6,797.9,628.4z M1059,722.5
		c-9.1,1.4-18.8-2.7-26.7-7.8c-9.3-6-16.2-12.9-16.2-12.9l-5.6-6.3l-4.4,7.5l-0.3,0.5c-5.6,10.4-12.7,15.8-20.6,17.5
		c-11,1-21.9-5.8-28.1-10.9c-3.2-2.6-5.2-4.8-5.2-5l-6.3-7.1l-4.8,7.9c-1.7,3.2-3.5,6.1-5.4,8.7c-4.8,6.1-10.4,10-15.9,11.1
		c-19.8,3.1-42.7-20.6-42.7-20.6l-5.6-6.3l-4.8,7.9c-0.8,1.6-1.6,1.6-1.6,3.2c-15.8-6.3-33.3-23.8-51.5-51.5
		c78.4,26.1,214.6,23.8,236.8,23.8c9.4,8.7,19.8,17.5,27.7,25.4C1074,716.3,1066.8,721.7,1059,722.5z M1240.3,778
		c0.3,0.3,0.5,0.5,0.8,0.8l0,0l0.1,0.1c0,0,0.1,0.1,0.3,0.3l0.1,0.1c0.1,0.1,0.3,0.3,0.4,0.4s0.3,0.3,0.4,0.4c0,0,0.1,0,0.1,0.1
		c0.1,0.1,0.1,0.1,0.3,0.3c0,0,0.1,0.1,0.1,0.3c0.1,0,0.1,0.1,0.3,0.3l0.1,0.1l0.1,0.1c0.3,0.3,0.5,0.5,0.8,0.8c0.5,0.5,1,1,1.6,1.6
		s1,1,1.6,1.6c0.1,0.1,0.3,0.3,0.4,0.4c0.3,0.3,0.4,0.4,0.6,0.6c0.3,0.3,0.4,0.4,0.6,0.6c0.3,0.3,0.4,0.4,0.5,0.6
		c0.1,0.3,0.4,0.4,0.5,0.6c0.1,0.3,0.3,0.4,0.4,0.6c0.3,0.4,0.5,0.8,0.6,1.2c0.1,0.1,0.1,0.4,0.3,0.6c0,0.3,0.1,0.4,0.1,0.6l0,0
		c0,0.1,0,0.4,0,0.5c-1.6,8.7-7.1,20.6-14.2,26.9l-4.8,4.8c-4.8,4.8-9.4,7.9-14.2,10.4c-4.8,2.3-7.9,3.2-11.9,3.2
		c-3.2,0-5.6-0.8-7.9-1.6c-7.1-3.2-12.7-8.7-19-15c-2.3-1.6-4.8-4.8-7.1-6.3c-4-3.2-7.1-6.3-11.1-9.4
		c-11.9-10.4-23.8-20.6-33.3-33.3c-3.2-4.8-2.3-11.1-2.3-17.5c0.8-8.7,1.6-19-6.3-25.4c-2.3-1.6-112.5-103-131.5-121.1
		c1.6-4.8,4.8-11.1,9.4-11.1c1.6,0,5.6,0.8,11.1,4.8c4.8,4.8,121.9,115.7,121.9,116.5c4,3.2,7.9,4.8,14.2,4.8
		c4.8,0,7.9-0.8,12.7-1.6c3.2-0.8,7.1-1.6,9.4-1.6c0.8,0,0.8,0,1.6,0c6.3,0.8,11.9,4.8,17.5,9.4c0.8,0.8,1.6,1.6,2.3,2.3
		c0.9,0.6,1.8,1.4,2.7,2.2c2.7,2.2,5.4,4.4,8.2,6.6c0.1,0.1,0.3,0.3,0.4,0.4C1214.9,752.6,1228.9,766.5,1240.3,778z M1255.3,694
		c-1.6-1.6-1.6-1.6-1.6-1.6l-5.6-6.3l-4.8,7.9c-8.7,15.8-21.4,23.8-37.3,23.8c-11.9,0-22.1-4.8-22.1-5.6c-1.6-1.6-4-2.3-6.3-3.2
		c-2.3-0.8-4.8-1.6-7.1-1.6h-2.3c-4,0-7.9,0.8-11.9,1.6c-3.2,0.8-7.1,1.6-10.4,1.6c-3.2,0-4.8-0.8-6.3-2.3c0,0-13.5-12.7-30.9-30.2
		c20.6-1.6,39.6-3.1,57.1-5.6c7.1-0.8,13.5-1.6,19-3.2c54.6-8.7,86.3-21.4,99.8-28.5C1276.8,660.7,1267.2,679.8,1255.3,694z"/>
	<path fill="#B2D6F9" d="M990.4,624.2c-0.1-0.1-0.3-0.3-0.4-0.4c-7.1-6.6-11.6-10.9-12.6-11.4h-0.1l-0.8-0.8l-2.5-2.5l0.8-4
		c1.3-7.1,6.3-18.6,16-22.4c0.5-0.3,1-0.4,1.6-0.5h0.1c0.1,0,0.3-0.1,0.5-0.1s0.4-0.1,0.6-0.1c0.1,0,0.3-0.1,0.5-0.1
		c0.6-0.1,1.3-0.3,1.9-0.3c0.3,0,0.5,0,0.8,0c0.3,0,0.6,0,1,0c3.2,0,6.3,0.8,9.6,2.3c3.1,1.6,6.3,3.1,9.4,6.3c0,0,4,4.8,11.1,11.1
		c-4.8-15.8-17.5-29.4-32.5-32.5c-13.5-3.1-26.1,4-35.6,18.2c-3.9,5.8-6.2,13.7-6.9,16.4c-0.1,0.3-0.1,0.5-0.1,0.8v0.1
		c0,0.1,0,0.1,0,0.1l-1.6,4.8h-4.8c-65.7,0-141.8-19-171.9-26.9c4.7,11,12.4,28.1,23.3,46.1l0,0c0.1,0.3,0.3,0.5,0.4,0.6
		c30,7.9,121.9,31.7,228.9,29.2c-0.3-0.3-0.6-0.5-0.9-0.8C1012.2,644.7,999.3,632.7,990.4,624.2z"/>
	<path fill="#B2D6F9" d="M1077.8,707.5c-4,8.7-11.1,14.2-19,15c-9.1,1.4-18.8-2.7-26.7-7.8c-9.3-6-16.2-12.9-16.2-12.9l-5.6-6.3
		l-4.4,7.5l-0.3,0.5c-5.6,10.4-12.7,15.8-20.6,17.5c-11,1-21.9-5.8-28.1-10.9c-3.2-2.6-5.2-4.8-5.2-5l-6.3-7.1l-4.8,7.9
		c-1.7,3.2-3.5,6.1-5.4,8.7c-4.8,6.1-10.4,10-15.9,11.1c-19.8,3.1-42.7-20.6-42.7-20.6l-5.6-6.3l-4.8,7.9c-0.8,1.6-1.6,1.6-1.6,3.2
		c-15.8-6.3-33.3-23.8-51.5-51.5c78.4,26.1,214.6,23.8,236.8,23.8C1059.7,690.9,1070,699.6,1077.8,707.5z"/>
	<path fill="#B2D6F9" d="M1300.4,570.7c-1,0.4-2.1,0.9-3.1,1.3c-0.8,0.3-1.6,0.6-2.3,0.9c-1.3,0.5-2.6,1-3.9,1.6l0,0
		c-1.9,0.8-3.8,1.4-5.7,2.1c-0.3,0.1-0.4,0.1-0.6,0.3c-1.7,0.6-3.4,1.2-4.9,1.8c-1.7,0.5-3.2,1.2-4.9,1.7
		c-50.2,17.2-98.7,25.4-136.5,29.2c-4.8,0.5-9.3,0.9-13.7,1.3c-43.6,3.1-75.2,1.6-87.1,1.6c12.7,11.9,30.2,27.7,45.9,42.7
		c36.4-1.6,144.2-7.9,209.9-39.6c6.3-19,11.1-36.5,13.5-47.5C1304.7,569,1302.6,569.9,1300.4,570.7z"/>
	<path fill="#B2D6F9" d="M1284.6,640.9c-7.9,19.8-17.5,38.8-29.2,53.1c-1.6-1.6-1.6-1.6-1.6-1.6l-5.6-6.3l-4.8,7.9
		c-8.7,15.8-21.4,23.8-37.3,23.8c-11.9,0-22.1-4.8-22.1-5.6c-1.6-1.6-4-2.3-6.3-3.2c-2.3-0.8-4.8-1.6-7.1-1.6h-2.5
		c-4,0-7.9,0.8-11.9,1.6c-3.2,0.8-7.1,1.6-10.4,1.6c-3.2,0-4.8-0.8-6.3-2.3c0,0-13.5-12.7-30.9-30.2c20.6-1.6,39.6-3.1,57.1-5.6
		c7.1-0.8,13.5-1.6,19-3.2C1239.5,660.7,1271.2,648.1,1284.6,640.9z"/>
	<path fill="#99C2FF" d="M1251.4,791.4c-1.6,8.7-7.1,20.6-14.2,26.9l-4.8,4.8c-4.8,4.8-9.4,7.9-14.2,10.4c-4.8,2.3-7.9,3.2-11.9,3.2
		c-3.2,0-5.6-0.8-7.9-1.6c-7.1-3.2-12.7-8.7-19-15c-2.3-1.6-4.8-4.8-7.1-6.3c-4-3.2-7.1-6.3-11.1-9.4
		c-11.9-10.4-23.8-20.6-33.3-33.3c-3.2-4.8-2.3-11.1-2.3-17.5c0.8-8.7,1.6-19-6.3-25.4c-2.3-1.6-112.5-103-131.5-121.1
		c1.6-4.8,4.8-11.1,9.4-11.1c1.6,0,5.6,0.8,11.1,4.8c4.8,4.8,121.9,115.7,121.9,116.5c4,3.2,7.9,4.8,14.2,4.8
		c4.8,0,7.9-0.8,12.7-1.6c3.2-0.8,7.1-1.6,9.4-1.6c0.8,0,0.8,0,1.6,0c6.3,0.8,11.9,4.8,17.5,9.4c0.8,0.8,1.6,1.6,2.3,2.3
		c0.9,0.6,1.8,1.4,2.7,2.2c2.7,2.2,5.4,4.4,8.2,6.6c0.1,0.1,0.3,0.3,0.4,0.4c15.1,12.9,28.9,26.9,40.9,38.4c0.3,0.3,0.5,0.5,0.8,0.8
		c0,0,0.1,0.1,0.1,0.3c0,0,0.1,0.1,0.3,0.3l0.1,0.1c0.1,0.1,0.3,0.3,0.4,0.4c0.1,0.1,0.3,0.3,0.4,0.4c0,0,0.1,0,0.1,0.1
		c0.1,0.1,0.1,0.1,0.3,0.3c0,0,0.1,0.1,0.1,0.3c0.1,0,0.1,0.1,0.3,0.3l0.1,0.1l0.1,0.1c0.3,0.3,0.5,0.5,0.8,0.8c0.5,0.5,1,1,1.6,1.6
		s1,1,1.6,1.6c0.1,0.1,0.3,0.3,0.4,0.4c0.3,0.3,0.4,0.4,0.6,0.6c0.3,0.3,0.4,0.4,0.6,0.6c0.1,0.3,0.4,0.4,0.5,0.6
		c0.1,0.3,0.3,0.4,0.5,0.6c0.1,0.3,0.3,0.4,0.4,0.6c0.3,0.4,0.5,0.8,0.6,1.2c0.1,0.1,0.1,0.4,0.3,0.6c0,0.3,0.1,0.4,0.1,0.6l0,0
		C1251.4,791.1,1251.4,791.3,1251.4,791.4z"/>
	<path fill="#99C2FF" d="M970.2,559.4c-4.8,2.3-10.4,6.3-14.2,11.1l-0.9-0.9l-3.4-3.2l-12.3-11.8c0.8-2.3,1.6-5.6,4-7.9
		c2.3-1.6,6.3-1.6,11.1-1.6L970.2,559.4z"/>
	<path fill="#99C2FF" d="M955,569.6C955,569.6,954.9,569.6,955,569.6l-3.4-3.2L955,569.6z"/>
</g>
</svg>
