<?xml version="1.0" encoding="utf-8"?>
<!-- Generator: Adobe Illustrator 18.1.1, SVG Export Plug-In . SVG Version: 6.00 Build 0)  -->
<!DOCTYPE svg PUBLIC "-//W3C//DTD SVG 1.1//EN" "http://www.w3.org/Graphics/SVG/1.1/DTD/svg11.dtd">
<svg version="1.1" id="Layer_1" xmlns="http://www.w3.org/2000/svg" xmlns:xlink="http://www.w3.org/1999/xlink" x="0px" y="0px"
	 viewBox="0 0 1728 1728" style="enable-background:new 0 0 1728 1728;" xml:space="preserve">
<style type="text/css">
	.st0{fill:#E6E7E8;}
	.st1{fill:#D1D3D4;}
	.st2{fill:#FFFFFF;}
</style>
<g id="Layer_2">
</g>
<g id="Layer_1_1_">
	<path class="st0" d="M439.4,1349c0-0.4,0-0.4,0-0.9c0-11.7-9.5-21.2-21.2-21.2c-1.7,0-3.5,0-4.7,0.4c0-0.9,0-1.7,0-2.6
		c0-30.2-28.1-54.8-62.6-54.8c-32.4,0-59.1,21.6-62.2,49.6c-3.9-1.7-8.2-2.6-13-2.6c-17.3,0-31.5,14.2-31.5,31.5c0,1.3,0,2.2,0,3.5
		c-2.6-2.2-6-3.5-9.5-3.5c-8.6,0-15.5,6.9-15.5,15.5c0,6.5,3.9,11.7,9.1,14.2h233.5C461.5,1377.9,463.2,1354.2,439.4,1349z
		 M250.4,1366.7c-0.4-0.4-0.4-0.4-0.9-0.9l0.9-0.4C250.4,1365.8,250.4,1366.3,250.4,1366.7z"/>
	<path class="st1" d="M1291.2,166.2h161.4c3.9-1.7,6.5-5.6,6.5-9.9c0-6-4.7-10.8-10.8-10.8c-2.6,0-4.7,0.9-6.5,2.2
		c0-0.9,0-1.7,0-2.2c0-12.1-9.9-21.6-21.6-21.6c-3,0-6,0.9-9.1,1.7c-2.2-19.4-20.7-34.1-43.2-34.1c-23.7,0-43.2,16.8-43.2,38
		c0,0.4,0,1.3,0,1.7c-0.9-0.4-2.2-0.4-3.5-0.4c-8.2,0-14.7,6.5-14.7,14.7v0.4C1290.4,149.4,1291.2,166.2,1291.2,166.2z
		 M1437.6,157.1l0.4,0.4c0,0.4-0.4,0.4-0.4,0.9C1437.6,158,1437.6,157.6,1437.6,157.1z"/>
	<path class="st0" d="M1459.1,1570.6h161.4c3.9-1.7,6.5-5.6,6.5-9.9c0-6-4.7-10.8-10.8-10.8c-2.6,0-4.7,0.9-6.5,2.2
		c0-0.9,0-1.7,0-2.2c0-12.1-9.9-21.6-21.6-21.6c-3,0-6,0.9-9.1,1.7c-2.2-19.4-20.7-34.1-43.2-34.1c-23.7,0-43.2,16.8-43.2,38
		c0,0.4,0,1.3,0,1.7c-0.9-0.4-2.2-0.4-3.5-0.4c-8.2,0-14.7,6.5-14.7,14.7v0.4C1458.3,1553.7,1459.1,1570.6,1459.1,1570.6z
		 M1605.5,1561.5l0.4,0.4c0,0.4-0.4,0.4-0.4,0.9C1605.5,1562.4,1605.5,1561.9,1605.5,1561.5z"/>
	<path class="st2" d="M47.1,1297.2h521.5c12.1-5.6,20.3-17.7,20.3-31.5c0-19.4-15.5-35-35-35c-8.2,0-15.5,2.6-21.6,7.3
		c0.4-2.6,0.4-4.7,0.4-7.3c0-38.9-31.5-69.9-69.9-69.9c-10.4,0-19.9,2.2-28.5,6c-6.9-61.7-66.5-110.5-139.4-110.5
		c-77.3,0-139.9,54.8-139.9,122.2c0,2.2,0,3.9,0,6c-3.5-0.9-6.9-1.3-10.8-1.3c-26.3,0-47.5,21.6-47.5,47.9c0,0.9,0,1.3,0,2.2
		C43.2,1243.7,47.1,1297.2,47.1,1297.2z M518.9,1268.7l2.2,1.3c-0.4,0.9-0.9,1.3-1.7,2.2C519.3,1270.9,518.9,1269.6,518.9,1268.7z"
		/>
	<path class="st0" d="M434.6,169.8c0-0.3,0-1,0-1.7c0-20.6-16.7-37.5-37.4-37.5c-3.1,0-5.8,0.3-8.5,1c0-1.7,0-3.1,0-4.7
		c0-52.7-49.3-95.7-110.2-95.7c-57.1,0-104.4,38.2-109.5,86.6c-6.8-3.1-14.7-4.7-22.5-4.7c-30.7,0-55.1,24.7-55.1,54.8
		c0,2,0,4.1,0.3,5.7c-4.7-3.7-10.6-5.7-17-5.7c-15.3,0-27.6,12.1-27.6,27.4c0,10.8,6.5,20.3,16,24.7H474
		C473.7,220.1,476.7,178.2,434.6,169.8z M1001.1,576.7c-0.4-0.9-1.3-1.3-1.7-2.2l2.2-1.3C1001.5,574.6,1001.5,575.9,1001.1,576.7z"
		/>
	<path class="st0" d="M1523.4,400.2h167.9c3.9-1.7,6.5-5.6,6.5-10.4c0-6-5.2-11.2-11.2-11.2c-2.6,0-5.2,0.9-6.9,2.6
		c0-0.9,0-1.7,0-2.6c0-12.5-9.9-22.4-22.4-22.4c-3.5,0-6.5,0.9-9.1,2.2c-2.2-19.9-21.6-35.8-44.9-35.8c-25,0-44.9,17.7-44.9,39.3
		c0,0.9,0,1.3,0,1.7c-1.3-0.4-2.2-0.4-3.5-0.4c-8.6,0-15.5,6.9-15.5,15.5c0,0.4,0,0.4,0,0.4C1522.1,382.9,1523.4,400.2,1523.4,400.2
		z M1675.3,390.7l0.4,0.4c0,0.4-0.4,0.4-0.4,0.9C1675.8,391.5,1675.3,391.1,1675.3,390.7z"/>
</g>
</svg>
