<?xml version="1.0" encoding="utf-8"?>
<!-- Generator: Adobe Illustrator 18.1.1, SVG Export Plug-In . SVG Version: 6.00 Build 0)  -->
<!DOCTYPE svg PUBLIC "-//W3C//DTD SVG 1.1//EN" "http://www.w3.org/Graphics/SVG/1.1/DTD/svg11.dtd">
<svg version="1.1" id="Layer_1" xmlns="http://www.w3.org/2000/svg" xmlns:xlink="http://www.w3.org/1999/xlink" x="0px" y="0px"
	 viewBox="845 855 38.9 17.3" style="enable-background:new 845 855 38.9 17.3;" xml:space="preserve">
<style type="text/css">
	.st0{fill:#FFFFFF;}
</style>
<path class="st0" d="M845,872.3h37.4c0.9-0.4,1.5-1.3,1.5-2.3c0-1.4-1.1-2.5-2.5-2.5c-0.6,0-1.1,0.2-1.5,0.5c0-0.2,0-0.4,0-0.5
	c0-2.8-2.3-5-5-5c-0.7,0-1.4,0.2-2.1,0.4c-0.5-4.5-4.8-7.9-10-7.9c-5.5,0-10,3.9-10,8.8c0,0.1,0,0.3,0,0.4c-0.2-0.1-0.5-0.1-0.8-0.1
	c-1.9,0-3.4,1.5-3.4,3.4c0,0,0,0.1,0,0.1C844.7,868.5,845,872.3,845,872.3z M878.9,870.2l0.1,0.1c0,0.1-0.1,0.1-0.1,0.2
	C878.9,870.4,878.9,870.3,878.9,870.2z"/>
</svg>
