<?xml version="1.0" encoding="utf-8"?>
<!-- Generator: Adobe Illustrator 18.1.1, SVG Export Plug-In . SVG Version: 6.00 Build 0)  -->
<!DOCTYPE svg PUBLIC "-//W3C//DTD SVG 1.1//EN" "http://www.w3.org/Graphics/SVG/1.1/DTD/svg11.dtd">
<svg version="1.1" id="Layer_1" xmlns="http://www.w3.org/2000/svg" xmlns:xlink="http://www.w3.org/1999/xlink" x="0px" y="0px"
	 viewBox="-0.1 595.8 1728.2 768.5" style="enable-background:new -0.1 595.8 1728.2 768.5;" xml:space="preserve">
<style type="text/css">
	.st0{fill:#EAF3F9;}
</style>
<path class="st0" d="M0.1,1364.3h1661.4c40-17.8,66.6-57.7,66.6-102.2c0-62.2-48.9-111.1-111.1-111.1c-26.7,0-48.9,8.9-66.6,22.2
	c0-8.9,0-17.8,0-22.2c0-124.4-102.2-222.1-222.1-222.1c-31.1,0-62.2,8.9-93.3,17.8c-22.2-199.9-213.2-350.9-444.2-350.9
	c-244.3,0-444.2,173.2-444.2,390.9c0,4.4,0,13.3,0,17.8c-8.9-4.4-22.2-4.4-35.5-4.4c-84.4,0-151,66.6-151,151v4.4
	C-13.2,1195.5,0.1,1364.3,0.1,1364.3z M1506,1271l4.4,4.4c0,4.4-4.4,4.4-4.4,8.9C1506,1279.9,1506,1275.4,1506,1271z"/>
</svg>
