<?xml version="1.0" encoding="utf-8"?>
<!-- Generator: Adobe Illustrator 18.1.1, SVG Export Plug-In . SVG Version: 6.00 Build 0)  -->
<!DOCTYPE svg PUBLIC "-//W3C//DTD SVG 1.1//EN" "http://www.w3.org/Graphics/SVG/1.1/DTD/svg11.dtd">
<svg version="1.1" id="Layer_1" xmlns="http://www.w3.org/2000/svg" xmlns:xlink="http://www.w3.org/1999/xlink" x="0px" y="0px"
	 viewBox="845 855 38.9 17.3" style="enable-background:new 845 855 38.9 17.3;" xml:space="preserve">
<style type="text/css">
	.st0{fill:#D4DAE0;}
</style>
<path class="st0" d="M880.3,867.7c0,0,0-0.1,0-0.1c0-1.9-1.5-3.4-3.4-3.4c-0.3,0-0.5,0-0.8,0.1c0-0.1,0-0.3,0-0.4
	c0-4.8-4.5-8.8-10-8.8c-5.2,0-9.5,3.5-10,7.9c-0.6-0.3-1.3-0.4-2.1-0.4c-2.8,0-5,2.3-5,5c0,0.2,0,0.4,0,0.5c-0.4-0.3-1-0.5-1.5-0.5
	c-1.4,0-2.5,1.1-2.5,2.5c0,1,0.6,1.9,1.5,2.3h37.4C883.9,872.3,884.1,868.5,880.3,867.7z M850,870.5c0,0-0.1-0.1-0.1-0.2l0.1-0.1
	C850,870.3,850,870.4,850,870.5z"/>
</svg>
