<?xml version="1.0" encoding="utf-8"?>
<!-- Generator: Adobe Illustrator 18.1.1, SVG Export Plug-In . SVG Version: 6.00 Build 0)  -->
<!DOCTYPE svg PUBLIC "-//W3C//DTD SVG 1.1//EN" "http://www.w3.org/Graphics/SVG/1.1/DTD/svg11.dtd">
<svg version="1.1" xmlns="http://www.w3.org/2000/svg" xmlns:xlink="http://www.w3.org/1999/xlink" x="0px" y="0px"
	 viewBox="0 0 400.3 400.3" style="enable-background:new 0 0 400.3 400.3;" xml:space="preserve">
<style type="text/css">
	.st0{fill:#D1D3D4;}
	.st1{fill:#E6E7E8;}
</style>
<g id="Layer_2">
</g>
<g id="Layer_1">
	<path class="st0" d="M101.8,312.5c0-0.1,0-0.1,0-0.2c0-2.7-2.2-4.9-4.9-4.9c-0.4,0-0.8,0-1.1,0.1c0-0.2,0-0.4,0-0.6
		c0-7-6.5-12.7-14.5-12.7c-7.5,0-13.7,5-14.4,11.5c-0.9-0.4-1.9-0.6-3-0.6c-4,0-7.3,3.3-7.3,7.3c0,0.3,0,0.5,0,0.8
		c-0.6-0.5-1.4-0.8-2.2-0.8c-2,0-3.6,1.6-3.6,3.6c0,1.5,0.9,2.7,2.1,3.3h54.1C106.9,319.2,107.3,313.7,101.8,312.5z M58,316.6
		c-0.1-0.1-0.1-0.1-0.2-0.2l0.2-0.1C58,316.4,58,316.5,58,316.6z"/>
	<path class="st1" d="M116.3,337.9h80.9c1.9-0.8,3.1-2.7,3.1-4.9c0-3-2.4-5.4-5.4-5.4c-1.3,0-2.4,0.4-3.3,1.2c0-0.4,0.1-0.8,0.1-1.2
		c0-6-4.9-10.9-10.9-10.9c-1.6,0-3.1,0.3-4.4,0.9c-1-9.6-10.3-17.2-21.6-17.2c-12,0-21.7,8.5-21.7,19c0,0.3,0,0.6,0,0.9
		c-0.5-0.1-1.1-0.2-1.7-0.2c-4.1,0-7.4,3.3-7.4,7.4c0,0.1,0,0.2,0,0.3C115.8,329.6,116.3,337.9,116.3,337.9z M189.5,333.5l0.3,0.2
		c-0.1,0.1-0.2,0.2-0.2,0.3C189.6,333.8,189.5,333.6,189.5,333.5z"/>
	<path class="st0" d="M182.2,373.5h37.4c0.9-0.4,1.5-1.3,1.5-2.3c0-1.4-1.1-2.5-2.5-2.5c-0.6,0-1.1,0.2-1.5,0.5c0-0.2,0-0.4,0-0.5
		c0-2.8-2.3-5-5-5c-0.7,0-1.4,0.2-2.1,0.4c-0.5-4.5-4.8-7.9-10-7.9c-5.5,0-10,3.9-10,8.8c0,0.1,0,0.3,0,0.4
		c-0.2-0.1-0.5-0.1-0.8-0.1c-1.9,0-3.4,1.5-3.4,3.4c0,0,0,0.1,0,0.1C181.9,369.6,182.2,373.5,182.2,373.5z M216,371.4l0.1,0.1
		c0,0.1-0.1,0.1-0.1,0.2C216.1,371.6,216,371.5,216,371.4z"/>
	<path class="st0" d="M31.3,38.5h37.4c0.9-0.4,1.5-1.3,1.5-2.3c0-1.4-1.1-2.5-2.5-2.5c-0.6,0-1.1,0.2-1.5,0.5c0-0.2,0-0.4,0-0.5
		c0-2.8-2.3-5-5-5c-0.7,0-1.4,0.2-2.1,0.4c-0.5-4.5-4.8-7.9-10-7.9c-5.5,0-10,3.9-10,8.8c0,0.1,0,0.3,0,0.4
		c-0.2-0.1-0.5-0.1-0.8-0.1c-1.9,0-3.4,1.5-3.4,3.4c0,0,0,0.1,0,0.1C31.1,34.6,31.3,38.5,31.3,38.5z M65.2,36.4l0.1,0.1
		c0,0.1-0.1,0.1-0.1,0.2C65.2,36.6,65.2,36.5,65.2,36.4z"/>
	<path class="st1" d="M70.2,55.8h37.4c0.9-0.4,1.5-1.3,1.5-2.3c0-1.4-1.1-2.5-2.5-2.5c-0.6,0-1.1,0.2-1.5,0.5c0-0.2,0-0.4,0-0.5
		c0-2.8-2.3-5-5-5c-0.7,0-1.4,0.2-2.1,0.4c-0.5-4.5-4.8-7.9-10-7.9c-5.5,0-10,3.9-10,8.8c0,0.1,0,0.3,0,0.4
		c-0.2-0.1-0.5-0.1-0.8-0.1c-1.9,0-3.4,1.5-3.4,3.4c0,0,0,0.1,0,0.1C70,51.9,70.2,55.8,70.2,55.8z M104.1,53.7l0.1,0.1
		c0,0.1-0.1,0.1-0.1,0.2C104.1,53.9,104.1,53.8,104.1,53.7z"/>
	<path class="st1" d="M10.9,300.5h120.8c2.8-1.3,4.7-4.1,4.7-7.3c0-4.5-3.6-8.1-8.1-8.1c-1.9,0-3.6,0.6-5,1.7
		c0.1-0.6,0.1-1.1,0.1-1.7c0-9-7.3-16.2-16.2-16.2c-2.4,0-4.6,0.5-6.6,1.4C99,256,85.2,244.7,68.3,244.7
		c-17.9,0-32.4,12.7-32.4,28.3c0,0.5,0,0.9,0,1.4c-0.8-0.2-1.6-0.3-2.5-0.3c-6.1,0-11,5-11,11.1c0,0.2,0,0.3,0,0.5
		C10,288.1,10.9,300.5,10.9,300.5z M120.2,293.9l0.5,0.3c-0.1,0.2-0.2,0.3-0.4,0.5C120.3,294.4,120.2,294.1,120.2,293.9z"/>
	<path class="st0" d="M329.8,124.6c0-0.1,0-0.3,0-0.5c0-6.1-4.9-11.1-11-11.1c-0.9,0-1.7,0.1-2.5,0.3c0-0.5,0-0.9,0-1.4
		c0-15.6-14.5-28.3-32.4-28.3c-16.8,0-30.7,11.3-32.2,25.6c-2-0.9-4.3-1.4-6.6-1.4c-9,0-16.2,7.3-16.2,16.2c0,0.6,0,1.2,0.1,1.7
		c-1.4-1.1-3.1-1.7-5-1.7c-4.5,0-8.1,3.6-8.1,8.1c0,3.2,1.9,6,4.7,7.3h120.8C341.3,139.5,342.2,127.1,329.8,124.6z M231.9,133.6
		c-0.1-0.2-0.3-0.3-0.4-0.5l0.5-0.3C232,133.1,232,133.4,231.9,133.6z"/>
	<path class="st1" d="M366.3,143.1c0-0.1,0-0.2,0-0.3c0-4.7-3.8-8.5-8.5-8.5c-0.7,0-1.3,0.1-1.9,0.2c0-0.3,0-0.7,0-1.1
		c0-12-11.2-21.8-24.9-21.8c-13,0-23.6,8.7-24.8,19.7c-1.6-0.7-3.3-1.1-5.1-1.1c-6.9,0-12.5,5.6-12.5,12.5c0,0.5,0,0.9,0.1,1.3
		c-1.1-0.8-2.4-1.3-3.8-1.3c-3.4,0-6.2,2.8-6.2,6.2c0,2.5,1.5,4.7,3.6,5.6h93C375.2,154.6,375.9,145.1,366.3,143.1z M291,150.1
		c-0.1-0.1-0.2-0.2-0.3-0.4l0.3-0.2C291,149.7,291,149.9,291,150.1z"/>
	<path class="st1" d="M352.9,92.7h38.9c0.9-0.4,1.5-1.3,1.5-2.4c0-1.4-1.2-2.6-2.6-2.6c-0.6,0-1.2,0.2-1.6,0.6c0-0.2,0-0.4,0-0.6
		c0-2.9-2.3-5.2-5.2-5.2c-0.8,0-1.5,0.2-2.1,0.5c-0.5-4.6-5-8.3-10.4-8.3c-5.8,0-10.4,4.1-10.4,9.1c0,0.2,0,0.3,0,0.4
		c-0.3-0.1-0.5-0.1-0.8-0.1c-2,0-3.6,1.6-3.6,3.6c0,0.1,0,0.1,0,0.1C352.6,88.7,352.9,92.7,352.9,92.7z M388.1,90.5l0.1,0.1
		c0,0.1-0.1,0.1-0.1,0.2C388.2,90.7,388.1,90.6,388.1,90.5z"/>
	<g>
	</g>
	<g>
	</g>
	<g>
	</g>
	<g>
	</g>
	<g>
	</g>
	<g>
	</g>
</g>
</svg>
