<?xml version="1.0" encoding="utf-8"?>
<!-- Generator: Adobe Illustrator 18.1.1, SVG Export Plug-In . SVG Version: 6.00 Build 0)  -->
<!DOCTYPE svg PUBLIC "-//W3C//DTD SVG 1.1//EN" "http://www.w3.org/Graphics/SVG/1.1/DTD/svg11.dtd">
<svg version="1.1" xmlns="http://www.w3.org/2000/svg" xmlns:xlink="http://www.w3.org/1999/xlink" x="0px" y="0px" width="360px"
	 height="360px" viewBox="0 0 360 360" style="enable-background:new 0 0 360 360;" xml:space="preserve">
<style type="text/css">
	.st0{fill:#231F20;}
	.st1{fill:#7A9BCC;}
	.st2{fill:#9FBFE5;}
</style>
<g id="compass">
	<g>
		<path class="st0" d="M157.6,50.9C156.8,50.9,156.8,50.9,157.6,50.9C156.8,50.9,156.8,50.9,157.6,50.9L157.6,50.9z"/>
		<path class="st0" d="M156.8,215.4L156.8,215.4L156.8,215.4L156.8,215.4z"/>
		<path class="st1" d="M248.6,135.1L236,147.7l12.8-12.4C248.7,135.2,248.7,135.2,248.6,135.1z M224.5,248.5
			c-12.6,10.4-27.4,17.3-44.6,17.6v17.6c0.1,0,0.2,0,0.4,0v-17.6c17.2-0.4,31.9-7.1,44.4-17.5L224.5,248.5z M102.5,196
			c0.4,15.3,6,29.2,14.8,41l0.3-0.3C108.6,225.1,103.6,211.1,102.5,196z"/>
		<path class="st1" d="M114.2,216.3c-0.1-0.1-0.1-0.3-0.2-0.4c0.1,0.2,0.2,0.5,0.3,0.7C114.3,216.5,114.3,216.4,114.2,216.3z"/>
		<path class="st1" d="M246.8,121.8c-10.1-10.1-21.6-17.6-34.6-22.7c-1.1-6.1-3.6-11.2-6.5-15.1c2.5-4.7,4-9.7,4-15.1
			c0-16.6-13.7-30.2-30.2-30.2s-30.2,13.7-30.2,30.2c0,5,1.1,9,3.6,13.7c-2.5,3.6-5,8.6-6.5,15.1h0.4c-14.8,4.7-28.1,13-39.2,24.1
			C88.1,140.9,78,165.7,78,191.6c0,26.3,10.1,51.5,29.2,69.8c18.7,19.1,43.2,29.2,69.8,29.2s51.5-10.1,69.8-29.2
			c18.7-18.7,29.2-43.2,29.2-69.8C275.6,165.7,265.6,141.2,246.8,121.8z M248.6,135.1c0,0.1,0.1,0.1,0.1,0.2l0.2-0.2
			c12.2,15.1,19.1,33.8,19.4,53.3h-17.6c-0.4-15.1-6.1-29.2-14.8-40.7L248.6,135.1z M241.4,127.6l2.5,2.5l-12.6,12.6
			c-12.6-14-31.3-23-51.5-24.1v-17.6C203.6,101.3,225.2,111,241.4,127.6z M179.5,46.6c12.6,0,23,10.1,23,23c0,2.9-0.4,6.1-1.4,8.6
			c-1.4-1.1-2.5-2.2-4-2.5c0.4-2.2,1.1-4,1.1-6.1c0-10.1-8.6-18.7-18.7-18.7c-10.1,0-18.7,8.6-18.7,18.7c0,2.2,0.4,4,1.1,6.1
			c0,0,0,0-0.4,0c-1.1,0.4-2.2,1.1-3.6,2.2c-1.1-2.5-1.4-4.7-1.4-7.6C156.5,57,166.9,46.6,179.5,46.6z M190.7,69.6
			c0,1.1,0,2.5-0.4,3.6c-0.4,0-0.4,0-1.1,0h-0.4c-0.4,0-0.4,0-1.1,0c-0.4,0-0.4,0-1.1,0c-0.4,0-0.4,0-1.1,0c-0.4,0-0.4,0-1.1,0
			c-0.4,0-0.4,0-1.1,0h-0.4c-0.4,0-0.4,0-1.1,0c-0.4,0-0.4,0-1.1,0h-4c-0.4,0-1.1,0-1.1,0h-1.4c0,0,0,0-0.4,0h-2.5
			c-0.4,0-1.1,0-1.4,0.4c-0.4-1.1-0.4-2.5-0.4-3.6c0-6.1,5-11.5,11.5-11.5C184.9,58.1,190.7,63.5,190.7,69.6z M164.4,82.2
			c1.4-1.1,2.9-1.4,5-2.2c2.5-0.4,5.4-1.1,9-1.1c13,0,22,6.5,25.6,17.6c-8.6-2.5-17.6-3.6-27-3.6c-7.9,0-15.5,1.1-22.7,2.5
			C156.5,88.7,160.1,84.4,164.4,82.2z M173,100.2v17.6c-18,1.1-34.2,7.9-46.8,19.4L114,124.7C130.2,109.9,150.7,101.3,173,100.2z
			 M109,130.4l12.6,12.6c-11.2,12.2-18,28.1-18.7,45.7h-18C85.9,166.8,94.6,145.9,109,130.4z M105,249.2
			c-12.2-15.1-19.1-33.8-20.2-53.3h17.6c1.1,15.1,6.1,29.2,15.1,40.7l-0.3,0.3c0.1,0.1,0.2,0.3,0.3,0.4L105,249.2z M173.4,283.8H173
			c-23-1.1-44.3-10.4-60.8-26.6c-0.4-0.4-1.4-1.4-2.2-2.5l12.6-12.6c12.6,14,30.6,22.7,50.8,24.1V283.8z M129.4,239.5
			c-1.9-1.9-3.6-3.9-5.3-5.9c-1.3-1.7-2.6-3.5-3.8-5.3c0,0,0-0.1-0.1-0.1c-0.4-0.7-0.8-1.3-1.2-2c-0.7-1.2-1.4-2.4-2-3.6
			c0-0.1-0.1-0.1-0.1-0.2c-0.3-0.7-0.7-1.3-1-2c-0.2-0.3-0.3-0.7-0.5-1c-0.1-0.2-0.2-0.3-0.2-0.5c-0.1-0.2-0.1-0.3-0.2-0.5
			c-0.2-0.6-0.5-1.1-0.7-1.7c-0.1-0.2-0.2-0.5-0.3-0.7c-0.6-1.7-1.2-3.4-1.7-5.2c-0.1-0.3-0.2-0.6-0.3-1c-0.1-0.5-0.3-1-0.4-1.5
			c-0.1-0.5-0.2-1-0.4-1.6c-0.1-0.5-0.2-0.9-0.3-1.4c-0.1-0.5-0.2-0.9-0.3-1.4c-0.1-0.5-0.2-0.9-0.2-1.4c0-0.2-0.1-0.5-0.1-0.7
			c-0.3-2.1-0.5-4.3-0.6-6.4c0-0.5-0.1-1.1-0.1-1.6c0-0.6,0-1.3,0-1.9c0-37.2,30.2-67.4,67.4-67.4s67.4,30.2,67.4,67.4
			c0,32.4-22.9,59.5-53.4,65.9c-0.2,0-0.3,0.1-0.5,0.1c-4.4,1-8.9,1.5-13.5,1.5C158.4,259.3,141.5,251.7,129.4,239.5z M180.2,283.8
			L180.2,283.8c-0.1,0-0.2,0-0.4,0v-17.6c17.3-0.4,32-7.2,44.6-17.6l0.2,0.2c0.1,0,0.1-0.1,0.2-0.2l12.6,12.6
			C221.3,274.8,201.1,283.1,180.2,283.8z M242.5,256.1l-12.6-12.6c12.2-12.6,20.2-29.5,21.2-48.2h17.6
			C267.7,218.6,258.4,240.2,242.5,256.1z"/>
		<path class="st0" d="M156.8,215.4L156.8,215.4z"/>
		<path class="st2" d="M173,100.2v17.6c-18,1.1-34.2,7.9-46.8,19.4L114,124.7C130.2,109.9,150.7,101.3,173,100.2z"/>
		<path class="st2" d="M268.4,188.4h-17.6c-0.4-15.1-6.1-29.2-14.8-40.7l12.8-12.4l0.2-0.2C261.2,150.2,268.1,169,268.4,188.4z"/>
		<path class="st2" d="M248.8,135.3L236,147.7l12.6-12.6C248.7,135.2,248.7,135.2,248.8,135.3z"/>
		<path class="st2" d="M237.5,261.1c-16.2,13.7-36.4,22-57.2,22.7v-17.6c17.2-0.4,31.9-7.1,44.4-17.5c0.1,0,0.1-0.1,0.2-0.2
			L237.5,261.1z"/>
		<path class="st2" d="M117.6,237.4L105,249.2c-12.2-15.1-19.1-33.8-20.2-53.3h17.6c0.4,15.3,6,29.2,14.8,41
			C117.4,237.1,117.5,237.2,117.6,237.4z"/>
		<path class="st2" d="M117.6,236.6l-0.3,0.3c-8.8-11.8-14.4-25.7-14.8-41C103.6,211.1,108.6,225.1,117.6,236.6z"/>
	</g>
</g>
<g id="needle">
	<path class="st0" d="M389.5,248.8L389.5,248.8L389.5,248.8L389.5,248.8z"/>
	<path class="st1" d="M126.1,147.5c-0.8-0.3-1.5,0.5-1.2,1.2l31.8,70l0.1,0.3l0,0l66.7,24.7c0.7,0.3,1.4-0.5,1.1-1.2l-25.9-62.3
		c-0.1-0.2-0.3-0.4-0.5-0.5L126.1,147.5z M140.1,161.5l44.8,19.7c0.6,0.3,0.7,1.1,0.3,1.5L160,206.3c-0.4,0.4-1.2,0.3-1.4-0.3
		L139,162.7C138.6,162,139.4,161.2,140.1,161.5z"/>
	<path class="st0" d="M389.5,248.8"/>
</g>
</svg>
