<?xml version="1.0" encoding="utf-8"?>
<!-- Generator: Adobe Illustrator 18.1.1, SVG Export Plug-In . SVG Version: 6.00 Build 0)  -->
<!DOCTYPE svg PUBLIC "-//W3C//DTD SVG 1.1//EN" "http://www.w3.org/Graphics/SVG/1.1/DTD/svg11.dtd">
<svg version="1.1" id="Layer_1" xmlns="http://www.w3.org/2000/svg" xmlns:xlink="http://www.w3.org/1999/xlink" x="0px" y="0px"
	 viewBox="346.6 260.4 100 100" enable-background="new 346.6 260.4 100 100" xml:space="preserve">
<path fill="#FFFFFF" d="M396.6,360.4L396.6,360.4c-27.6,0-50-22.4-50-50v0c0-27.6,22.4-50,50-50h0c27.6,0,50,22.4,50,50v0
	C446.6,338,424.2,360.4,396.6,360.4z"/>
<g>
	<path fill="#231F20" d="M391.2,273.7C391,273.7,391,273.7,391.2,273.7C391,273.7,391,273.7,391.2,273.7L391.2,273.7z"/>
	<path fill="#231F20" d="M391,319.4L391,319.4L391,319.4L391,319.4z"/>
	<path fill="#7A9BCC" d="M416,293.4c-2.8-2.8-6-4.9-9.6-6.3c-0.3-1.7-1-3.1-1.8-4.2c0.7-1.3,1.1-2.7,1.1-4.2c0-4.6-3.8-8.4-8.4-8.4
		s-8.4,3.8-8.4,8.4c0,1.4,0.3,2.5,1,3.8c-0.7,1-1.4,2.4-1.8,4.2h0.1c-4.1,1.3-7.8,3.6-10.9,6.7c-5.4,5.3-8.2,12.2-8.2,19.4
		c0,7.3,2.8,14.3,8.1,19.4c5.2,5.3,12,8.1,19.4,8.1s14.3-2.8,19.4-8.1c5.2-5.2,8.1-12,8.1-19.4C424,305.6,421.2,298.8,416,293.4z
		 M416.6,297.1c3.4,4.2,5.3,9.4,5.4,14.8h-4.9c-0.1-4.2-1.7-8.1-4.1-11.3L416.6,297.1z M383.6,299.6c3.4-3.2,7.8-5.2,12.9-5.2
		c10.3-0.1,18.7,8.2,18.7,18.4c0,5-2,9.6-5.3,13l-6.3-16.9L383.6,299.6z M400,309.5l-8.1,6.7l-5.4-13.1L400,309.5z M414.5,295
		c0.3,0.3,0.4,0.4,0.7,0.7l-3.5,3.5c-3.5-3.9-8.7-6.4-14.3-6.7v-4.9C404,287.7,410,290.4,414.5,295z M397.3,272.5
		c3.5,0,6.4,2.8,6.4,6.4c0,0.8-0.1,1.7-0.4,2.4c-0.4-0.3-0.7-0.6-1.1-0.7c0.1-0.6,0.3-1.1,0.3-1.7c0-2.8-2.4-5.2-5.2-5.2
		s-5.2,2.4-5.2,5.2c0,0.6,0.1,1.1,0.3,1.7l0,0c0,0,0,0-0.1,0c-0.3,0.1-0.6,0.3-1,0.6c-0.3-0.7-0.4-1.3-0.4-2.1
		C390.9,275.4,393.8,272.5,397.3,272.5z M400.4,278.9c0,0.3,0,0.7-0.1,1c-0.1,0-0.1,0-0.3,0l0,0h-0.1c-0.1,0-0.1,0-0.3,0
		c-0.1,0-0.1,0-0.3,0c-0.1,0-0.1,0-0.3,0l0,0c-0.1,0-0.1,0-0.3,0c-0.1,0-0.1,0-0.3,0h-0.1c-0.1,0-0.1,0-0.3,0c-0.1,0-0.1,0-0.3,0
		h-0.1h-0.1h-0.1h-0.1c-0.3,0-0.4,0-0.7,0c-0.1,0-0.3,0-0.3,0h-0.1h-0.1h-0.1h-0.1c0,0,0,0-0.1,0h-0.1c-0.1,0-0.3,0-0.4,0h-0.1h-0.1
		c-0.1,0-0.3,0-0.4,0.1c-0.1-0.3-0.1-0.7-0.1-1c0-1.7,1.4-3.2,3.2-3.2C398.8,275.7,400.4,277.2,400.4,278.9z M393.1,282.4
		L393.1,282.4C393.1,282.3,393.1,282.3,393.1,282.4c0.4-0.3,0.8-0.4,1.4-0.6c0.7-0.1,1.5-0.3,2.5-0.3c3.6,0,6.1,1.8,7.1,4.9
		c-2.4-0.7-4.9-1-7.5-1c-2.2,0-4.3,0.3-6.3,0.7C390.9,284.2,391.9,283,393.1,282.4z M395.5,287.4v4.9c-5,0.3-9.5,2.2-13,5.4
		l-3.4-3.5C383.6,290.1,389.3,287.7,395.5,287.4z M377.7,295.8l3.5,3.5c-3.1,3.4-5,7.8-5.2,12.7h-5
		C371.3,305.9,373.7,300.1,377.7,295.8z M376.6,328.8c-3.4-4.2-5.3-9.4-5.6-14.8h4.9c0.1,4.3,1.7,8.2,4.2,11.5L376.6,328.8z
		 M395.5,338.4c-6.4-0.3-12.3-2.9-16.9-7.4c-0.1-0.1-0.4-0.4-0.6-0.7l3.5-3.5c3.5,3.9,8.5,6.3,14.1,6.7v4.9H395.5z M377.9,312.9
		c0-4.9,2-9.5,5.2-12.9l8,19.4v0.1l0,0l17.9,7.3c-3.4,2.9-7.7,4.8-12.4,4.8C386.3,331.6,377.9,323.2,377.9,312.9z M397.5,338.4v-4.9
		c4.8-0.1,8.9-2,12.4-4.9l3.5,3.5C408.9,335.9,403.3,338.2,397.5,338.4z M414.8,330.7l-3.5-3.5c3.4-3.5,5.6-8.2,5.9-13.4h4.9
		C421.8,320.3,419.2,326.3,414.8,330.7z"/>
	<path fill="#231F20" d="M391,319.4L391,319.4z"/>
	<polygon fill="#9FBFE5" points="400,309.5 391.9,316.2 386.4,303.1 	"/>
	<path fill="#9FBFE5" d="M395.5,287.4v4.9c-5,0.3-9.5,2.2-13,5.4l-3.4-3.5C383.6,290.1,389.3,287.7,395.5,287.4z"/>
	<path fill="#9FBFE5" d="M422,311.9h-4.9c-0.1-4.2-1.7-8.1-4.1-11.3l3.5-3.5C419.9,301.4,421.8,306.4,422,311.9z"/>
	<path fill="#9FBFE5" d="M413.2,332.1c-4.5,3.9-9.9,6-15.8,6.3v-4.9c4.8-0.1,8.9-2,12.4-4.9L413.2,332.1z"/>
	<path fill="#9FBFE5" d="M380.1,325.3l-3.5,3.5c-3.4-4.2-5.3-9.4-5.6-14.8h4.9C376.2,318.2,377.6,322.1,380.1,325.3z"/>
</g>
</svg>
