<?xml version="1.0" encoding="utf-8"?>
<!-- Generator: Adobe Illustrator 18.1.1, SVG Export Plug-In . SVG Version: 6.00 Build 0)  -->
<!DOCTYPE svg PUBLIC "-//W3C//DTD SVG 1.1//EN" "http://www.w3.org/Graphics/SVG/1.1/DTD/svg11.dtd">
<svg version="1.1" id="Layer_1" xmlns="http://www.w3.org/2000/svg" xmlns:xlink="http://www.w3.org/1999/xlink" x="0px" y="0px"
	 viewBox="-8.3 635.4 42 42" enable-background="new -8.3 635.4 42 42" xml:space="preserve">
<g>
	<g>
		<path fill="#C1812D" d="M31.3,665c-7.8,0.5-10.6,3-11.5,10.6c-5.6-5.2-9.4-5.3-15.6-0.7c-0.5-7.8-3-10.5-10.5-11.4
			c5.2-5.7,5.2-9.4,0.7-15.7c7.8-0.5,10.6-3,11.5-10.6c5.6,5.2,9.4,5.3,15.6,0.7c0.5,7.8,3,10.6,10.6,11.5
			C26.8,655,26.7,658.8,31.3,665z"/>
		<path fill="#AA6718" d="M20,676.2l-0.4-0.4c-2.9-2.7-5.3-3.9-7.7-3.9c-2.2,0-4.5,1-7.6,3.3l-0.4,0.3l0-0.5
			c-0.5-7.7-2.9-10.3-10.3-11.2l-0.5-0.1l0.4-0.4c5-5.5,5.2-9.1,0.6-15.4l-0.3-0.4l0.5,0c7.7-0.5,10.4-2.9,11.3-10.3l0.1-0.5
			l0.4,0.4c2.9,2.7,5.3,3.9,7.7,3.9c2.2,0,4.5-1,7.6-3.3l0.4-0.3l0,0.5c0.5,7.7,3,10.4,10.3,11.3l0.5,0.1l-0.4,0.4
			c-5.1,5.5-5.2,9-0.7,15.3l0.3,0.4l-0.5,0c-7.7,0.5-10.4,3-11.3,10.3L20,676.2z M11.9,671.3c2.4,0,4.8,1.2,7.6,3.7
			c0.5-3.7,1.5-6,3.2-7.6c1.7-1.5,4.2-2.4,8-2.7c-4.3-6.1-4.2-9.9,0.6-15.2c-3.7-0.5-6-1.5-7.6-3.2c-1.5-1.7-2.4-4.2-2.7-8
			c-3,2.1-5.4,3.1-7.6,3.1c-2.4,0-4.8-1.2-7.6-3.7c-1,7.1-3.8,9.7-11.2,10.3c4.3,6.1,4.2,10-0.6,15.3c7.1,0.9,9.6,3.7,10.2,11.1
			C7.4,672.3,9.7,671.3,11.9,671.3z"/>
	</g>
	<g>
		<path fill="#FBB040" d="M33.2,656.4c-6.8,3.8-8.3,7.2-6,14.5c-7.3-2.3-10.7-0.8-14.5,6C9,670,5.6,668.6-1.6,671
			c2.3-7.3,0.7-10.7-6.1-14.5c6.8-3.8,8.3-7.2,6-14.4c7.3,2.3,10.7,0.8,14.5-6c3.8,6.8,7.2,8.3,14.5,6
			C24.9,649.2,26.4,652.6,33.2,656.4z"/>
		<path fill="#AA6718" d="M12.7,677.4l-0.2-0.4c-2.7-4.9-5.1-6.8-8.6-6.8c-1.5,0-3.2,0.3-5.4,1.1l-0.5,0.2l0.2-0.5
			c2.2-7.1,0.8-10.4-5.9-14.2l-0.4-0.2l0.4-0.2c6.8-3.7,8.1-7,5.8-14.1l-0.2-0.5l0.5,0.2c2.1,0.7,3.9,1,5.3,1c3.6,0,6.1-1.9,8.9-6.9
			l0.2-0.4l0.2,0.4c2.7,5,5.2,6.9,8.8,6.9c1.5,0,3.2-0.3,5.4-1l0.5-0.2l-0.2,0.5c-2.3,7.1-0.9,10.4,5.8,14.1l0.4,0.2l-0.4,0.2
			c-6.8,3.7-8.1,7-5.9,14.1l0.2,0.5l-0.5-0.2c-2.1-0.7-3.9-1-5.4-1c-3.6,0-6.1,1.9-8.8,6.9L12.7,677.4z M3.9,669.6
			c2,0,3.6,0.6,5,1.7c1.3,1.1,2.5,2.6,3.8,5c1.3-2.3,2.6-3.9,3.9-5c1.5-1.2,3.1-1.7,5.1-1.7c1.4,0,3.1,0.3,5,0.9
			c-1.1-3.6-1.2-6.1-0.3-8.3c0.9-2.1,2.8-3.9,6.1-5.8c-3.3-1.9-5.2-3.7-6.1-5.8c-0.9-2.1-0.8-4.7,0.3-8.2c-2,0.6-3.6,0.9-5,0.9
			c-3.7,0-6.3-1.9-9-6.7c-2.8,4.9-5.3,6.8-9.1,6.8c-1.4,0-3-0.3-5-0.9c1.1,3.6,1.2,6.1,0.3,8.2c-0.9,2.1-2.8,3.9-6.1,5.8
			c6.5,3.7,8,7.2,5.9,14.1C0.8,669.9,2.4,669.6,3.9,669.6z"/>
	</g>
</g>
</svg>
