<?xml version="1.0" encoding="utf-8"?>
<!-- Generator: Adobe Illustrator 18.1.1, SVG Export Plug-In . SVG Version: 6.00 Build 0)  -->
<!DOCTYPE svg PUBLIC "-//W3C//DTD SVG 1.1//EN" "http://www.w3.org/Graphics/SVG/1.1/DTD/svg11.dtd">
<svg version="1.1" id="Layer_1" xmlns="http://www.w3.org/2000/svg" xmlns:xlink="http://www.w3.org/1999/xlink" x="0px" y="0px"
	 viewBox="-3.2 640.4 32 32" enable-background="new -3.2 640.4 32 32" xml:space="preserve">
<g>
	<g>
		<path fill="#C1812D" d="M27.1,663c-5.9,0.4-8.1,2.3-8.8,8c-4.3-4-7.1-4-11.9-0.5c-0.4-5.9-2.2-8-8-8.7c3.9-4.3,4-7.2,0.5-12
			c5.9-0.4,8.1-2.3,8.8-8c4.3,4,7.1,4,11.9,0.5c0.4,5.9,2.3,8.1,8,8.8C23.7,655.4,23.6,658.2,27.1,663z"/>
		<path fill="#AA6718" d="M18.5,671.5l-0.3-0.3c-2.2-2.1-4-3-5.8-3c-1.6,0-3.4,0.8-5.8,2.5l-0.3,0.2l0-0.4c-0.4-5.9-2.2-7.9-7.8-8.5
			l-0.4,0l0.3-0.3c3.8-4.2,3.9-6.9,0.5-11.7l-0.2-0.3l0.4,0c5.9-0.4,7.9-2.2,8.6-7.9l0.1-0.4l0.3,0.3c2.2,2.1,4,3,5.8,3
			c1.6,0,3.4-0.8,5.8-2.5l0.3-0.2l0,0.4c0.4,5.9,2.2,7.9,7.9,8.6l0.4,0.1l-0.3,0.3c-3.9,4.2-4,6.9-0.5,11.6l0.2,0.3l-0.4,0
			c-5.9,0.4-7.9,2.2-8.6,7.9L18.5,671.5z M12.4,667.8c1.8,0,3.6,0.9,5.8,2.8c0.4-2.8,1.2-4.6,2.5-5.8c1.3-1.2,3.2-1.8,6.1-2
			c-3.3-4.6-3.2-7.5,0.5-11.6c-2.8-0.4-4.6-1.2-5.8-2.5c-1.2-1.3-1.8-3.2-2-6.1c-2.3,1.6-4.1,2.4-5.8,2.4c-1.8,0-3.6-0.9-5.8-2.8
			c-0.8,5.4-2.9,7.4-8.5,7.8c3.3,4.7,3.2,7.6-0.5,11.6c5.4,0.7,7.3,2.8,7.8,8.5C8.9,668.5,10.7,667.8,12.4,667.8z"/>
	</g>
	<g>
		<path fill="#FBB040" d="M28.6,656.4c-5.2,2.9-6.3,5.5-4.6,11c-5.5-1.8-8.1-0.6-11,4.6c-2.8-5.2-5.4-6.3-10.9-4.5
			c1.7-5.6,0.6-8.2-4.6-11.1c5.2-2.9,6.3-5.5,4.5-11c5.6,1.7,8.1,0.6,11-4.6c2.9,5.2,5.5,6.3,11,4.6
			C22.2,650.9,23.4,653.5,28.6,656.4z"/>
		<path fill="#AA6718" d="M13,672.4l-0.2-0.3c-2.1-3.7-3.9-5.2-6.6-5.2c-1.1,0-2.5,0.3-4.1,0.8l-0.4,0.1l0.1-0.4
			c1.7-5.4,0.6-7.9-4.5-10.8l-0.3-0.2l0.3-0.2c5.2-2.8,6.2-5.4,4.4-10.7l-0.1-0.4l0.4,0.1c1.6,0.5,2.9,0.8,4,0.8
			c2.8,0,4.6-1.5,6.7-5.3l0.2-0.3l0.2,0.3c2.1,3.8,4,5.2,6.7,5.2c1.1,0,2.5-0.3,4.1-0.8l0.4-0.1l-0.1,0.4c-1.8,5.4-0.7,7.9,4.4,10.8
			l0.3,0.2l-0.3,0.2c-5.2,2.8-6.2,5.4-4.5,10.8l0.1,0.4l-0.4-0.1c-1.6-0.5-3-0.8-4.1-0.8c-2.7,0-4.6,1.5-6.7,5.2L13,672.4z
			 M6.3,666.5c1.5,0,2.7,0.4,3.8,1.3c1,0.8,1.9,2,2.9,3.8c1-1.8,2-3,3-3.8c1.1-0.9,2.4-1.3,3.9-1.3c1.1,0,2.3,0.2,3.8,0.7
			c-0.8-2.7-0.9-4.7-0.2-6.3c0.7-1.6,2.1-3,4.7-4.4c-2.5-1.5-4-2.8-4.7-4.4c-0.7-1.6-0.6-3.6,0.2-6.3c-1.5,0.5-2.7,0.7-3.8,0.7
			c-2.8,0-4.8-1.4-6.9-5.1c-2.1,3.7-4.1,5.1-6.9,5.1c-1.1,0-2.3-0.2-3.8-0.7c0.8,2.7,0.9,4.7,0.2,6.3c-0.7,1.6-2.1,3-4.7,4.4
			c4.9,2.8,6.1,5.5,4.5,10.7C3.9,666.7,5.2,666.5,6.3,666.5z"/>
	</g>
</g>
</svg>
