<?xml version="1.0" encoding="utf-8"?>
<!-- Generator: Adobe Illustrator 18.1.1, SVG Export Plug-In . SVG Version: 6.00 Build 0)  -->
<!DOCTYPE svg PUBLIC "-//W3C//DTD SVG 1.1//EN" "http://www.w3.org/Graphics/SVG/1.1/DTD/svg11.dtd">
<svg version="1.1" id="Layer_1" xmlns="http://www.w3.org/2000/svg" xmlns:xlink="http://www.w3.org/1999/xlink" x="0px" y="0px"
	 viewBox="-1115 1549 360 360" enable-background="new -1115 1549 360 360" xml:space="preserve">
<g>
	<path fill="#7A9BCC" d="M-800.3,1694.9c0.1-0.3,1.8-6.3-0.2-5.1c-3.7,2.4-15.7,11.5-17.2,8c-1.2-2,10.6-16.2,3.6-35.1
		c-0.4-0.9-15.5,17.2-24.1,14.3c-6.1-2.1-3.7-13.2-6.2-13.1c-2.6,0.3-25.7,18.5-35.2,28.4c-2.8,2.8-4.8,5.9-9.4,7.7
		c0.2-3.8,2.4-5.8,3.8-8.5c4.8-9.5,13.5-28.1,13.5-42.4c0-2.3-0.9-13.8-3.8-14.9c-1.6-0.6-3.4,3.9-4.2,5.1
		c-6,8.3-16.7,18.6-20.6,11.9c-7.5-13.5,8.7-25.3-0.3-44.2c-0.9-1.3-2.2-6-4-4.5c-1.3,1.1-2,4-2.8,5.5c-8.4,14.4-17.9,19.1-28.8,1.9
		l-5.2-8.7c-1-1.6-2.1-4.5-3.5-1.9c-1.8,3.7-4.6,16.8-9.4,21.9c-7.1,7.5-20.6-0.8-27.6-10.1c-2.6-3.4-5.3,14.1,1.1,30.6
		c2.7,7.2,6.2,19.5-1.9,20c-8.5,0.3-20.4-15.5-23.1-15c-3.7,1.1-2.1,16.9,2.6,27.4c4.4,9.7,10.5,18.8,16.9,27.3
		c1.8,2.3,4.2,4.6,5,7.4c-6.7-1.7-29-24.3-49.4-27.4c-5-0.9,1.7,11.8-5.7,14.2c-4.9,1.6-8.1-0.4-20.2-7.4c-1.2-0.8-2.8-2.3-4.2-2.7
		c-2.4-0.7-1.3,5-1.2,6.6c0.6,10,4.8,20,10.9,27.8c-5.6,0.3-11.2-2.4-16.3-4.4c-1.3-0.5-4.1-2.2-3.6,0.3c0.8,4.3,7.9,17.3,15.9,26.1
		c5.9,6.5,13,12,21.1,15.7c-5.2,2.9-14,11.2-11,13.2c7.3,5.1,30.3,15.8,59.9,15c-8.6,11.9-17.8,27.3-15.5,39.7
		c0.5,2.7,1.3,3.2,4,2.9c20.7-3.3,42.1-11.7,57.9-22c-1.2,0.8,2.4,6.7-1.6,25.7c-2,8.7-13,24.4-22.2,30.2c-3,1.9-6.8,4.4-4,8.1
		c2.8,3.7,8,7.2,12.6,4.8c7.6-4,19.1-21.4,23.5-29.3c7.2-13,9.1-28.1,8-42.5c19.8,10.1,48.3,11.7,62.7,11.8c2.3,0,7.1,0.7,8.9-1.1
		c5.3-5.4-4.6-20.8-17.9-35.4c-0.5-0.6-2.4-1.9-2.6-2.6c-0.4-1.2,1.2-1.1,2.1-1.3c22.1-4,40.7-15.1,52.4-24c0.8-0.7,2.3-1.3,2-2.4
		c-0.2-0.5-1.8-1.7-2.6-2.5c-3.2-2.8-7.2-5.5-11.5-6.9C-811.8,1727.4-803.9,1709.2-800.3,1694.9z M-990.7,1819.3
		c-1.1-0.2-1.5-0.7-1.6-1.4c0-0.2,0-0.3,0-0.5c0.1-0.7,0.3-1.4,0.5-2.2c2.7-9.4,10.2-21.6,25.1-39.7c0,0,0,0,0,0
		c-16.9,2.7-25.2,3.9-44.6-0.9c-5.2-0.8-21.4-5.2-21.7-7.5v-0.1c0-1.6,6.7-4.7,13.4-6.3l14.8-3.3c0,0-0.1,0-0.1,0
		c-22.7-5.4-34.5-7.8-48-25.8c-0.5-0.6-2-2.2-2.1-3.2c0-0.1,0-0.2,0-0.3c0-0.2,0.1-0.3,0.2-0.4c1.2-1,11.9-0.2,14.2-6.3
		c0.1-0.2,0.2-0.4,0.2-0.6c0-0.2,0.1-0.3,0.1-0.4c0-0.1,0-0.3,0-0.4c-0.1-0.4-0.3-0.8-0.9-1.4c-4.9-5.6-8.4-10.4-11-18.9
		c0,0,0,0,0,0c5.7,3,13.3,5,19.6,3c6-1.6,7.1-9.5,8.6-9.8c1.3-0.4,4.3,1.9,5.4,2.5c9.7,5,28,18.8,34.9,21c5.7,1.6,10.4-0.8,10.8-5.7
		c0.1-0.4,0.1-0.9,0-1.4c0-0.4-0.1-0.7-0.1-1.1c-0.1-0.4-0.2-0.7-0.2-1.1c-1.9-7.1-22.1-27.2-24.3-43.1v0c0,0,0-0.1,0-0.1
		c0.2-0.7,4.2,2.7,5.2,3.1c6.7,3.3,14.6,4,20.1-1.9c2-1.9,2-5.1,2.4-7.8v-0.1c0.3-2.3,0.3-4.6,0-6.9c-0.1-1.2-0.3-2.3-0.5-3.5
		c-0.7-3.4-2-6.7-3.8-9.7c-0.3-1.1-2.2-5.4-2.7-7.6c0-0.2-0.1-0.4-0.1-0.5c0-0.2,0-0.4,0-0.5c0.1-0.3,0.2-0.4,0.6-0.2
		c6.9,3.7,20,12.8,29.1-1.9c1.2-2,2.8-8.7,4.2-6.4c0.1,0.2,0.2,0.5,0.3,0.9c0.2,1.5-0.1,3.9-0.1,4.9l0.2,6.4
		c0.2,6.7,0.3,13.5-0.5,20.2c-0.1,0.7-0.2,1.3-0.3,2c-0.1,0.7-0.2,1.3-0.3,2c-0.5,2.6-1,5.1-1.5,7.4c-1.4,7.1-2.5,13.1-3.2,18.5
		c-0.2,1.6-0.4,3.2-0.6,4.7c-0.4,3.8-0.6,7.4-0.6,11c0,12.5,0.3,20,1.1,27.7c0,0.2,0.1,0.5,0.1,0.7c0,0.2,0,0.4,0.1,0.6
		c0,0.4,0.1,0.9,0.2,1.3c0,0.2,0.1,0.5,0.1,0.7c0.1,0.6,0.2,1.3,0.3,2c0.1,0.7,0.2,1.4,0.3,2.1c0,0.2,0.1,0.4,0.1,0.7
		c0.4,2.9,0.9,5.9,1.5,9.5c0.2,1.2,0.4,2.4,0.6,3.7l2.2,13.3l0,0c-16.1-2.4-41.1-15.1-62.2-27c-0.6-0.4-3.9-2.8-4.1-1.2v0
		c-0.1,0.7,2.2,2.6,2.6,3c5.5,5.3,8.1,7.5,10.7,9.6c13.6,10.8,32.6,19.1,44.1,23c1.2,0.4,9.9,4,10.7,2.9c0,0.1,0,0.2,0,0.2
		c-0.3,1.2-3.1,3.7-3.9,4.5c-4.8,5.5-13.9,12.3-20,16.5c-0.6,0.4-1.9,1-2.1,1.8c0,0,0,0.1,0,0.1c0,0,0,0,0,0v0
		c0,1.4,3.1-0.2,3.6-0.5c7.4-3,16.5-8.5,23.4-15.6c0.9,6.3,1.5,12.6,1.9,18.9c0,0,0,0.1,0,0.1
		C-954.6,1809-985.1,1820.5-990.7,1819.3z M-823.6,1723.9c-0.2,0.2-0.3,0.4-0.5,0.6c-1,1.1-2,2.1-3.1,3.1c-0.3,0.3-0.7,0.6-1,0.9
		c-0.3,0.3-0.7,0.6-1,0.9c-3.5,3-7.4,5.5-11.7,7.4l-10.1,4.5c-0.2,0.1-0.8,0.3-1.4,0.5c-0.2,0.1-0.4,0.1-0.6,0.2
		c-0.8,0.3-1.5,0.7-1.7,1c-0.3,0.7,0.4,0.9,1.2,1c0.7,0.1,1.5,0,1.9,0l12,0.4c0.4,0,0.8,0,1.2,0.1c0.4,0,0.8,0.1,1.2,0.1
		c3.5,0.4,6.6,1.5,8.8,2.8c2,1.1,0.7,1.7-0.8,2.6c-12.6,8-26.6,14.4-41.4,17c-0.5,0.1-1.1,0.2-1.6,0.3c-0.5,0.1-1.1,0.2-1.6,0.2
		c-1.1,0.1-2.1,0.2-3.2,0.3c-1.4,0.1-2.9,0.2-4.3,0.3c-0.7,0-1.4,0.1-2.2,0.1c-0.3,0-0.6,0-0.8,0c-1.2,0-2.4,0.1-3.5,0.1
		c-0.4,0-0.8,0-1.2,0c-0.1,0-0.3,0-0.4,0c-0.1,0-0.2,0-0.2,0c0,0,0,0-0.1,0c-0.5,0.1-0.7,0.4-0.2,1.2c1,1.6,11.6,9.8,16.8,15.4
		c6,6.3,12.7,13.8,15.2,22.3c-5,0.2-10.8,0.1-17-0.4c-1.9-0.1-3.8-0.3-5.7-0.5c-0.4,0-0.8-0.1-1.2-0.1c-1.2-0.1-2.3-0.3-3.5-0.4
		c-1.2-0.1-2.3-0.3-3.5-0.5c-1.2-0.2-2.3-0.3-3.5-0.5c-0.4-0.1-0.8-0.1-1.1-0.2c-0.8-0.1-1.5-0.3-2.3-0.4c-0.4-0.1-0.7-0.1-1.1-0.2
		c-0.7-0.1-1.5-0.3-2.2-0.4c-0.2,0-0.4-0.1-0.6-0.1c-1.6-0.3-3.2-0.7-4.7-1.1c0,0,0,0,0,0c-2-0.5-3.9-1-5.7-1.6c0,0,0,0,0,0
		c-6.3-1.9-11-4.2-12.7-6.6l-2.8-15.4c0,0,0,0,0.1,0c9.1,7,18.2,11,27.9,13.1c0.2,0,0.5,0.1,0.9,0.2c0,0,0,0,0.1,0
		c0.2,0,0.3,0.1,0.5,0.1c0.3,0.1,0.5,0.1,0.8,0.1c0.3,0,0.6,0.1,0.8,0c0.4-0.1,0.6-0.3,0.2-0.9c-0.3-0.6-2.4-1.2-3-1.5
		c-7.9-3.8-23.8-12.5-28.4-19.3c15.7-5.9,30.7-14.3,43.7-24.9c5.7-4.7,18.4-17.3,20.3-21.4c0.3-0.7,0.1-0.9-0.2-0.9
		c-0.1,0-0.2,0-0.3,0c0,0-0.1,0-0.2,0c-0.3,0.1-0.6,0.2-0.9,0.3c-7.9,3.8-35.6,27.9-57,34.4l-5.4,1.6l-2.5,0.5l-1,0.1c0,0,0,0,0,0
		c0,0,0,0,0,0c-4.2,0.2-11.3-54.4-7.6-90.4c1.9-18.5,2.6-27.6-0.9-45.9c-0.4-1.8-0.2-2.4,0.2-2.4h0c0.8,0.1,2.7,2.8,3.9,3.7
		c1.7,1.4,3.5,2.3,5.4,2.9c0.2,0.1,0.4,0.1,0.6,0.2c0.2,0.1,0.5,0.1,0.7,0.2c0.1,0,0.2,0,0.3,0.1c0.3,0.1,0.6,0.1,0.9,0.1
		c0.3,0,0.6,0.1,1,0.1s0.6,0,1,0c0.7,0,1.5-0.1,2.2-0.2c0.2,0,0.4-0.1,0.6-0.1c0.2,0,0.4-0.1,0.5-0.1c0.3,0,0.6-0.1,0.9-0.2
		c0.3-0.1,0.6-0.2,1-0.3c0.3-0.1,0.7-0.2,1-0.3c4-1.4,7.9-4.2,11.5-7.9c0,0,0,0,0,0.1c-1.2,13.3-11,34.2,6.6,40.9
		c0.4,0.2,0.9,0.3,1.3,0.4c0.3,0.1,0.6,0.1,0.9,0.2c0.1,0,0.3,0,0.4,0c0.1,0,0.2,0,0.4,0c0.6,0,1.3,0,1.9-0.1c0.2,0,0.4-0.1,0.7-0.1
		c6.9-1.3,12.7-8.7,14-8.6c0,0,0,0,0.1,0c0,0,0.1,0,0.1,0c0.7,0.7-0.8,5.7-1,6.4c-4.9,20.7-19.6,38.9-14.6,46.4
		c1,1.4,2.2,2.1,3.5,2.5c0.1,0,0.3,0.1,0.5,0.1c0.1,0,0.3,0.1,0.4,0.1c0.6,0.1,1.2,0.1,1.8,0c0.1,0,0.3,0,0.4-0.1
		c0.3,0,0.6-0.1,0.9-0.2c4.3-1.1,8.9-4.9,11.3-7.5c6.6-6.2,24.1-23.7,27.6-24.1c0.1,0,0.2,0,0.2,0c1.2,0.3,2.3,3.9,4,5.1
		c1.9,1.9,3.9,3,5.9,3.4c0.2,0.1,0.4,0.1,0.5,0.1c0.4,0.1,0.7,0.1,1.1,0.2c0.8,0.1,1.6,0.1,2.4,0c0.4,0,0.8-0.1,1.2-0.2
		c0.2,0,0.4-0.1,0.6-0.1c2.5-0.5,5.1-1.7,7.7-3.1c1-0.6,3.1-2.5,4.2-2.6c0.1,0,0.2,0,0.3,0c0.4,0.1,0.6,0.5,0.5,1.4
		c-0.5,5.5-2.8,11.3-5.7,16c-0.4,0.7-2.5,3-2.5,3.8c0,0.7,1.2,2.2,1.8,2.9c0.9,1,1.9,1.8,3,2.3c0.3,0.2,0.6,0.3,1,0.4
		c0.2,0.1,0.3,0.1,0.5,0.2c0.3,0.1,0.5,0.1,0.8,0.2c0.3,0.1,0.5,0.1,0.8,0.1c0.2,0,0.4,0,0.6,0c0.1,0,0.2,0,0.4,0
		c0.8,0,1.7,0,2.6-0.1c0.2,0,0.5-0.1,0.7-0.1c0.5-0.1,1-0.2,1.5-0.3c0.3-0.1,0.5-0.1,0.8-0.2c0.9-0.2,1.8-0.5,2.7-0.8c0,0,0,0,0,0
		c-2.7,6.3-6.3,12.4-10.8,17.7C-822.9,1723.1-823.3,1723.5-823.6,1723.9z"/>
	<path fill="#FFFFFF" d="M-928.4,1628.3c-1.9-0.5-3.7-1.5-5.4-2.9c-1.2-1-3.1-3.7-3.9-3.7c0.8-0.1,2.8,2.7,3.9,3.7
		C-932.1,1626.8-930.3,1627.8-928.4,1628.3z"/>
	<path fill="#FFFFFF" d="M-906.3,1620.1C-906.3,1620.1-906.2,1620-906.3,1620.1c-1.1,13.2-11,34.2,6.6,40.9c0.4,0.2,0.9,0.3,1.3,0.4
		c-0.5-0.1-0.9-0.2-1.3-0.4C-917.3,1654.3-907.5,1633.3-906.3,1620.1z"/>
	<path fill="#FFFFFF" d="M-897.5,1661.5c-0.3,0-0.6-0.1-0.9-0.2C-898.1,1661.4-897.8,1661.5-897.5,1661.5z"/>
	<path fill="#FFFFFF" d="M-897.7,1791.8c0.2,0,0.5,0.1,0.8,0.2C-897.2,1791.9-897.6,1791.8-897.7,1791.8
		c-9.7-2.2-18.8-6.1-27.9-13.1l0,0C-916.5,1785.7-907.3,1789.6-897.7,1791.8z"/>
	<path fill="#FFFFFF" d="M-895.7,1705.7c-5-7.5,9.7-25.7,14.6-46.4c0.2-0.7,1.8-5.7,1-6.4c0,0,0,0-0.1,0c0.1,0,0.1,0,0.1,0
		c0.7,0.7-0.8,5.7-1,6.4C-885.9,1679.9-900.6,1698.2-895.7,1705.7c1,1.3,2.2,2.1,3.5,2.5C-893.5,1707.8-894.7,1707-895.7,1705.7z"/>
	<path fill="#FFFFFF" d="M-920.4,1758.1l-5.4,1.6l-2.5,0.5l-1,0.1c0,0-0.1,0-0.1,0c0,0,0,0,0,0l1-0.1l2.5-0.5L-920.4,1758.1
		c21.3-6.5,49.1-30.6,57-34.4c0.3-0.1,0.6-0.3,0.9-0.3c-0.3,0.1-0.6,0.2-0.8,0.3C-871.2,1727.5-899,1751.7-920.4,1758.1z"/>
	<path fill="#FFFFFF" d="M-873.2,1784.9c6,6.3,12.7,13.8,15.2,22.3h0C-860.5,1798.7-867.2,1791.2-873.2,1784.9
		c-5.2-5.5-15.8-13.8-16.8-15.4c-0.5-0.8-0.3-1.1,0.2-1.2c-0.5,0.1-0.6,0.5-0.2,1.2C-888.9,1771.1-878.4,1779.3-873.2,1784.9z"/>
	<path fill="#FFFFFF" d="M-854.8,1742.9c0.2-0.4,0.9-0.7,1.7-1C-853.9,1742.2-854.6,1742.6-854.8,1742.9c-0.2,0.7,0.4,0.9,1.2,1
		C-854.5,1743.9-855.2,1743.7-854.8,1742.9z"/>
	<path fill="#FFFFFF" d="M-849.1,1676.5C-849,1676.5-849,1676.5-849.1,1676.5c1.2,0.3,2.4,3.9,4,5.1c1.9,1.9,3.8,3,5.9,3.4
		c-2-0.5-4-1.6-5.9-3.4C-846.7,1680.3-847.9,1676.8-849.1,1676.5z"/>
	<path fill="#FFFFFF" d="M-829.2,1749.9c-12.6,8-26.6,14.4-41.4,17c-0.5,0.1-1.1,0.2-1.6,0.3c0.5-0.1,1.1-0.2,1.6-0.3
		C-855.8,1764.3-841.8,1757.9-829.2,1749.9c1.4-1,2.7-1.5,0.7-2.6c-2.2-1.3-5.3-2.4-8.8-2.8c3.5,0.4,6.6,1.5,8.9,2.8
		C-826.4,1748.4-827.7,1749-829.2,1749.9z"/>
	<path fill="#FFFFFF" d="M-824.1,1705.6c0.3,0.1,0.6,0.3,1,0.4C-823.4,1705.9-823.8,1705.7-824.1,1705.6z"/>
	<path fill="#FFFFFF" d="M-824.1,1705.6c-1.1-0.5-2.2-1.2-3-2.3c-0.5-0.6-1.8-2.2-1.8-2.9c0-0.9,2-3.1,2.5-3.8
		c2.9-4.7,5.2-10.4,5.7-16c0.1-0.9-0.1-1.3-0.5-1.4c0.4,0.1,0.6,0.4,0.5,1.4c-0.5,5.5-2.8,11.3-5.7,16c-0.4,0.7-2.5,3-2.5,3.8
		c0,0.7,1.2,2.2,1.8,2.9C-826.2,1704.3-825.2,1705.1-824.1,1705.6z"/>
	<path fill="#FFFFFF" d="M-811.8,1705c-2.7,6.4-6.3,12.4-10.8,17.7C-818.1,1717.4-814.5,1711.3-811.8,1705
		C-811.8,1705-811.8,1705-811.8,1705z"/>
	<path fill="#FFFFFF" d="M-1040.6,1721.3c0.2-0.4,0.2-0.7,0.3-1C-1040.4,1720.6-1040.5,1720.9-1040.6,1721.3
		c-2.3,6.2-13.1,5.4-14.2,6.3c-0.1,0.1-0.2,0.3-0.2,0.4c0-0.2,0.1-0.3,0.2-0.5C-1053.7,1726.6-1043,1727.4-1040.6,1721.3z"/>
	<path fill="#FFFFFF" d="M-1004.9,1757.4c0,0,0.1,0,0.1,0l-14.8,3.3c-6.7,1.6-13.4,4.7-13.4,6.3c-0.2-1.5,6.6-4.7,13.4-6.3
		L-1004.9,1757.4z"/>
	<path fill="#FFFFFF" d="M-1032.7,1702.6c-6.3,2-13.8,0-19.6-3c0,0,0,0,0-0.1C-1046.6,1702.5-1039,1704.5-1032.7,1702.6
		c6-1.6,7.1-9.6,8.6-9.9c1.3-0.4,4.3,1.9,5.4,2.5c9.7,5,28,18.8,34.9,21c5.7,1.6,10.3-0.8,10.8-5.7c-0.4,4.9-5.1,7.3-10.8,5.7
		c-6.9-2.1-25.1-16-34.9-21c-1.1-0.6-4.1-2.9-5.4-2.5C-1025.6,1693-1026.7,1701-1032.7,1702.6z"/>
	<path fill="#FFFFFF" d="M-997.7,1663.6c0.1-0.9,4.2,2.6,5.2,3.1c6.7,3.4,14.6,4,20.1-1.9c2-1.9,2-5.1,2.4-7.8v0.1
		c-0.4,2.8-0.4,5.9-2.4,7.8c-5.4,5.9-13.4,5.3-20.1,1.9C-993.5,1666.3-997.5,1662.9-997.7,1663.6z"/>
	<path fill="#FFFFFF" d="M-966.7,1775.4c-14.9,18.1-22.4,30.4-25.1,39.7c-0.2,0.7-0.5,1.5-0.5,2.2c0-0.7,0.3-1.5,0.5-2.2
		C-989.1,1805.8-981.6,1793.5-966.7,1775.4C-966.7,1775.4-966.7,1775.4-966.7,1775.4z"/>
	<path fill="#FFFFFF" d="M-945.5,1746.6l2.2,13.4h0L-945.5,1746.6c-0.9-5.1-1.6-9.3-2.2-13.1
		C-947.1,1737.3-946.4,1741.5-945.5,1746.6z"/>
	<path fill="#FFFFFF" d="M-977.2,1628.3c0-0.3,0.2-0.4,0.6-0.2c6.9,3.7,20,12.8,29.1-1.9c1.2-1.9,2.8-8.7,4.2-6.4
		c0.1,0.2,0.2,0.6,0.3,0.9c-0.1-0.4-0.1-0.7-0.3-0.9c-1.4-2.2-3,4.5-4.2,6.4c-9.1,14.6-22.2,5.5-29.1,1.9
		C-977,1627.9-977.2,1628-977.2,1628.3z"/>
	<path fill="#FFFFFF" d="M-952.3,1767.5c-11.5-4-30.5-12.3-44.1-23c-2.6-2.1-5.2-4.2-10.7-9.6c-0.4-0.4-2.7-2.3-2.6-3
		c0,0.8,2.2,2.6,2.6,3c5.5,5.3,8.1,7.5,10.7,9.6C-982.8,1755.2-963.8,1763.5-952.3,1767.5c1.2,0.3,9.9,3.9,10.7,2.8v0
		C-942.3,1771.5-951.1,1767.9-952.3,1767.5z"/>
	<path fill="#FFFFFF" d="M-938.6,1796.3C-938.6,1796.4-938.7,1796.4-938.6,1796.3c-0.4-6.3-1.1-12.6-2-18.9
		c-6.9,7.1-16,12.6-23.4,15.6c-0.6,0.2-3.6,1.9-3.6,0.5v0c0.1,1.3,3.1-0.3,3.6-0.5c7.4-3,16.5-8.5,23.4-15.6
		C-939.7,1783.7-939,1790-938.6,1796.3z"/>
</g>
<path fill="#C7DDEF" d="M-938.7,1796.4c-16,12.6-46.5,24-52,22.8c-1.1-0.2-1.5-0.7-1.6-1.4c0-0.2,0-0.3,0-0.5
	c0.1-0.7,0.3-1.4,0.5-2.2c2.7-9.4,10.2-21.6,25.1-39.7c0,0,0,0,0,0c0,0,0,0,0,0c-16.9,2.7-25.2,3.9-44.7-0.9
	c-5.2-0.8-21.4-5.2-21.7-7.6c0-1.6,6.7-4.7,13.4-6.3l14.8-3.3c0,0-0.1,0-0.1,0l0.1,0c-22.7-5.4-34.6-7.8-48.1-25.8
	c-0.5-0.6-1.9-2.1-2.1-3.2c0-0.1,0-0.2,0-0.3c0-0.2,0.1-0.3,0.2-0.4c1.2-1,11.9-0.2,14.2-6.3c0.2-0.4,0.3-0.8,0.3-1.1
	c0-0.1,0-0.3,0-0.4c0-0.5-0.3-0.8-0.9-1.5c-4.9-5.6-8.4-10.3-11-18.8c5.7,3,13.3,5,19.6,3c6-1.6,7.1-9.5,8.6-9.8
	c1.3-0.4,4.3,1.9,5.4,2.5c9.7,5,28,18.8,34.9,21c5.7,1.6,10.4-0.8,10.8-5.7c0.1-0.4,0.1-0.9,0-1.4c0-0.7-0.2-1.5-0.4-2.2
	c-1.9-7.1-22.1-27.2-24.3-43.1c0,0,0-0.1,0-0.1c0.2-0.7,4.2,2.7,5.2,3.1c6.7,3.3,14.6,4,20.1-1.9c2-1.9,2-5.1,2.4-7.8v-0.1
	c0.3-2.3,0.3-4.6,0-6.9c-0.5-4.7-2-9.3-4.4-13.3c-0.3-1.2-2.5-6-2.8-8c0-0.2,0-0.4,0-0.5c0.1-0.3,0.2-0.4,0.6-0.2
	c6.9,3.7,20,12.8,29.1-1.9c1.2-2,2.8-8.7,4.2-6.4c0.1,0.2,0.2,0.5,0.3,0.9c0.2,1.5-0.1,3.9-0.1,4.9l0.2,6.4
	c0.2,6.7,0.3,13.5-0.5,20.2c-0.2,1.3-0.3,2.6-0.6,3.9c-2.1,10.4-3.7,18.7-4.8,26c-0.2,1.6-0.4,3.2-0.6,4.7c-0.4,3.8-0.6,7.4-0.6,11
	c0,12.5,0.3,20,1.1,27.7c0,0.2,0.1,0.5,0.1,0.7c0,0.2,0,0.4,0.1,0.6c0,0.4,0.1,0.9,0.2,1.3c0,0.2,0.1,0.5,0.1,0.7
	c0.1,0.6,0.2,1.3,0.3,2c0.1,0.7,0.2,1.4,0.3,2.1c0,0.2,0.1,0.4,0.1,0.7c0.6,3.8,1.3,8,2.2,13.1l2.2,13.3
	c-16.1-2.4-41.1-15.1-62.2-27c-0.6-0.4-3.9-2.8-4.1-1.2v0.1c-0.1,0.7,2.2,2.6,2.6,3c5.5,5.3,8.1,7.5,10.7,9.6
	c13.6,10.8,32.6,19.1,44.1,23c1.2,0.4,9.9,4,10.7,2.9c0,1.1-3.1,3.8-3.9,4.6c-4.8,5.5-13.9,12.3-20,16.5c-0.6,0.4-2.2,1.1-2.1,2
	c0,0,0,0,0,0v0c0,1.4,3.1-0.2,3.6-0.5c7.4-3,16.5-8.5,23.4-15.6C-939.7,1783.8-939,1790.1-938.7,1796.4z"/>
<path fill="#C7DDEF" d="M-811.8,1705c-2.7,6.3-6.3,12.4-10.8,17.7c-0.3,0.4-0.7,0.8-1.1,1.2c-0.2,0.2-0.3,0.4-0.5,0.6
	c-1,1.1-2,2.1-3.1,3.1c-0.3,0.3-0.7,0.6-1,0.9c-0.3,0.3-0.7,0.6-1,0.9c-3.5,2.9-7.4,5.4-11.7,7.3l-10.1,4.5
	c-0.3,0.1-0.8,0.3-1.4,0.5c-0.2,0.1-0.4,0.1-0.6,0.2c-0.8,0.3-1.5,0.7-1.7,1c-0.3,0.7,0.4,0.9,1.2,1c0.7,0.1,1.5,0,1.9,0l12,0.4
	c0.4,0,0.8,0,1.2,0.1c0.4,0,0.8,0.1,1.2,0.1c3.5,0.4,6.6,1.5,8.8,2.8c2,1.1,0.7,1.7-0.8,2.6c-12.6,8-26.6,14.4-41.4,17
	c-0.5,0.1-1.1,0.2-1.6,0.3c-0.5,0.1-1.1,0.2-1.6,0.2c-1.1,0.1-2.1,0.2-3.2,0.3c-1.4,0.1-2.9,0.2-4.3,0.3c-0.7,0-1.4,0.1-2.2,0.1
	c-0.3,0-0.6,0-0.8,0c-1.2,0-2.4,0.1-3.5,0.1c-0.4,0-0.8,0-1.2,0c-0.2,0-0.3,0-0.4,0c-0.1,0-0.2,0-0.2,0c0,0,0,0-0.1,0
	c-0.5,0.1-0.7,0.4-0.2,1.2c1,1.6,11.6,9.8,16.8,15.4c6,6.3,12.7,13.8,15.2,22.3c-5,0.2-10.8,0.1-17-0.4c-1.9-0.2-3.8-0.3-5.7-0.5
	c-0.4,0-0.8-0.1-1.2-0.1c-1.2-0.1-2.3-0.3-3.5-0.4c-1.2-0.2-2.3-0.3-3.5-0.5c-1.2-0.2-2.3-0.4-3.5-0.5c-0.4-0.1-0.8-0.1-1.1-0.2
	c-0.8-0.1-1.5-0.3-2.3-0.4c-0.4-0.1-0.7-0.1-1.1-0.2c-0.7-0.2-1.5-0.3-2.2-0.4c-0.2,0-0.4-0.1-0.6-0.1c-1.6-0.3-3.2-0.7-4.7-1.1
	c0,0,0,0,0,0c-2-0.5-3.9-1-5.7-1.6c0,0,0,0,0,0c-6.3-2-11-4.2-12.6-6.6l-2.8-15.3c9.1,7,18.2,11,27.9,13.1c0.2,0,0.5,0.1,0.9,0.2
	c0,0,0,0,0.1,0c0.2,0,0.3,0.1,0.5,0.1c0.3,0.1,0.5,0.1,0.8,0.1c0.3,0,0.6,0.1,0.8,0c0.5-0.1,0.7-0.3,0.3-0.9c-0.3-0.6-2.4-1.2-3-1.5
	c-7.9-3.8-23.8-12.5-28.4-19.3c15.7-5.9,30.7-14.3,43.7-24.9c5.7-4.7,18.4-17.3,20.3-21.4c0.3-0.7,0.1-0.9-0.3-0.9
	c-0.1,0-0.2,0-0.3,0c0,0-0.1,0-0.2,0c-0.3,0.1-0.6,0.2-0.9,0.3c-7.9,3.8-35.6,27.9-57,34.4l-5.4,1.6l-2.5,0.5l-1,0.1c0,0,0,0,0,0
	c0,0,0,0,0,0c-4.3-0.2-11.2-54.6-7.6-90.4c1.9-18.5,2.6-27.6-0.9-45.9c-0.4-1.7-0.2-2.4,0.1-2.4h0c0.8,0.1,2.7,2.8,3.9,3.7
	c1.7,1.4,3.5,2.3,5.4,2.9c0.2,0.1,0.4,0.1,0.6,0.2c0.2,0.1,0.5,0.1,0.7,0.2c0.1,0,0.2,0,0.3,0.1c0.3,0.1,0.6,0.1,0.9,0.1
	c0.3,0,0.6,0.1,1,0.1c0.3,0,0.6,0,1,0c0.7,0,1.5-0.1,2.2-0.2c0.2,0,0.4,0,0.6-0.1c0.2,0,0.4-0.1,0.5-0.1c0.3,0,0.6-0.1,0.9-0.2
	c0.3-0.1,0.6-0.2,1-0.3c0.3-0.1,0.7-0.2,1-0.3c4-1.4,7.9-4.1,11.5-7.8c-1.2,13.3-11,34.2,6.6,40.9c0.4,0.2,0.9,0.3,1.3,0.4
	c0.3,0.1,0.6,0.1,0.9,0.2c0.1,0,0.3,0,0.4,0c0.1,0,0.2,0,0.4,0c0.6,0,1.3,0,1.9-0.1c0.2,0,0.4-0.1,0.7-0.1c6.8-1.3,12.6-8.5,14-8.6
	c0,0,0,0,0.1,0c0,0,0.1,0,0.1,0c0.7,0.7-0.8,5.7-1,6.4c-4.9,20.7-19.6,38.9-14.6,46.4c1,1.4,2.2,2.1,3.5,2.5c0.1,0,0.3,0.1,0.5,0.1
	c0.1,0,0.3,0.1,0.4,0.1c0.6,0.1,1.2,0.1,1.8,0c0.1,0,0.3,0,0.4-0.1c0.3,0,0.6-0.1,0.9-0.2c4.3-1.1,8.9-4.9,11.3-7.5
	c6.5-6.2,24-23.5,27.5-24.1c0.1,0,0.2,0,0.2,0c1.2,0.3,2.3,3.9,4,5.1c1.9,1.9,3.9,3,5.9,3.4c0.2,0.1,0.4,0.1,0.5,0.1
	c0.4,0.1,0.7,0.1,1.1,0.2c0.8,0.1,1.6,0.1,2.4,0c0.4,0,0.8-0.1,1.2-0.2c0.2,0,0.4-0.1,0.6-0.1c2.5-0.5,5.2-1.7,7.7-3.1
	c1-0.6,3-2.4,4.2-2.6c0.1,0,0.2,0,0.3,0c0.4,0.1,0.6,0.5,0.5,1.4c-0.5,5.5-2.8,11.3-5.7,16c-0.4,0.7-2.5,3-2.5,3.8
	c0,0.7,1.2,2.2,1.8,2.9c0.9,1,1.9,1.8,3,2.3c0.3,0.2,0.6,0.3,1,0.4c0.2,0.1,0.3,0.1,0.5,0.2c0.3,0.1,0.5,0.1,0.8,0.2
	c0.3,0.1,0.5,0.1,0.8,0.1c0.2,0,0.4,0,0.6,0c0.1,0,0.2,0,0.4,0c0.8,0,1.7,0,2.6-0.1c0.2,0,0.5,0,0.7-0.1c0.5-0.1,1-0.2,1.5-0.3
	c0.3-0.1,0.5-0.1,0.8-0.2C-813.5,1705.6-812.6,1705.3-811.8,1705z"/>
</svg>
