<?xml version="1.0" encoding="utf-8"?>
<!-- Generator: Adobe Illustrator 18.1.1, SVG Export Plug-In . SVG Version: 6.00 Build 0)  -->
<!DOCTYPE svg PUBLIC "-//W3C//DTD SVG 1.1//EN" "http://www.w3.org/Graphics/SVG/1.1/DTD/svg11.dtd">
<svg version="1.1" xmlns="http://www.w3.org/2000/svg" xmlns:xlink="http://www.w3.org/1999/xlink" x="0px" y="0px"
	 viewBox="0 0 360 360" enable-background="new 0 0 360 360" xml:space="preserve">
<g id="background">
</g>
<g id="large">
	<g>
		<path fill="#7A9BCC" d="M198.7,37.5l-90.4,202h175.2L198.7,37.5z M198.5,54.3l28.6,68.1l-19.6-7.7l-11.5,27.4L185,114.6l-16.8,7.5
			L198.5,54.3z M164.1,131.3l17.3-7.8l14.6,36.2l15.3-36.4l19.5,7.6l42.7,101.7H118.7L164.1,131.3z"/>
		<polygon fill="#99C2FF" points="273.5,232.7 118.7,232.7 164.1,131.3 181.3,123.6 196,159.8 211.2,123.4 230.7,131 		"/>
		<polygon fill="#FFFFFF" points="227.1,122.4 207.6,114.7 196.1,142.1 185,114.6 168.2,122.1 198.5,54.3 		"/>
	</g>
</g>
<g id="little">
	<g>
		<path fill="#7A9BCC" d="M173.2,233.1l-45.8-78.4l-48.8,78.4H31.9v6.7h42.4v0h102.8v0h113.7v-6.7H173.2z M127.2,167.7l8,13.7
			l-2.5,16.4l-10-8.4l-14.3,8.6L127.2,167.7z M86.4,233.1l14.2-22.7l21.4-12.8l15.5,13.1l3-20l24.8,42.5v0L86.4,233.1z"/>
		<polygon fill="#B1D3FC" points="165.4,233.1 86.4,233.1 100.6,210.3 122,197.6 137.6,210.6 140.6,190.6 		"/>
	</g>
</g>
<g id="ground">
	<path fill="#99C2FF" d="M146.9,189.4L146.9,189.4z"/>
	<polygon fill="#99C2FF" points="165.4,233.1 86.4,233.1 86.4,233.1 165.4,233.1 	"/>
	<rect x="70.5" y="247.4" fill="#7A9BCC" width="224.8" height="6.7"/>
	<polygon fill="#FFFFFF" points="135.2,181.4 132.7,197.8 122.7,189.3 108.3,197.9 127.2,167.7 	"/>
</g>
</svg>
