<?xml version="1.0" encoding="utf-8"?>
<!-- Generator: Adobe Illustrator 18.1.1, SVG Export Plug-In . SVG Version: 6.00 Build 0)  -->
<!DOCTYPE svg PUBLIC "-//W3C//DTD SVG 1.1//EN" "http://www.w3.org/Graphics/SVG/1.1/DTD/svg11.dtd">
<svg version="1.1" id="Layer_1" xmlns="http://www.w3.org/2000/svg" xmlns:xlink="http://www.w3.org/1999/xlink" x="0px" y="0px"
	 viewBox="331.6 258.5 100 100" enable-background="new 331.6 258.5 100 100" xml:space="preserve">
<path fill="#D9E6F4" d="M381.6,358.5L381.6,358.5c-27.6,0-50-22.4-50-50v0c0-27.6,22.4-50,50-50h0c27.6,0,50,22.4,50,50v0
	C431.6,336.1,409.2,358.5,381.6,358.5z"/>
<g>
	<g>
		<path fill="#7A9BCC" d="M382.3,329.3h-28.4l0,0H382.3L382.3,329.3z"/>
		<path fill="#7A9BCC" stroke="#231F20" stroke-width="20" stroke-miterlimit="10" d="M373.9,315.4"/>
		<polygon fill="#7A9BCC" points="368,327.5 379.1,327.5 379.1,327.5 		"/>
		<polygon fill="#7A9BCC" points="372.6,316.5 372.5,316.3 372.5,316.2 		"/>
		<path fill="#7A9BCC" d="M391.7,273.4l-18.2,40.8l-4.9-8.4L355,327.5h-13v1.9h73.2L391.7,273.4z M391.7,278.1l7.9,18.8l-5.4-2.2
			l-3.1,7.6l-3.1-7.7l-4.7,2.2L391.7,278.1z M368.5,309.4l2.2,3.8l-0.7,4.6l-2.8-2.4l-4,2.4L368.5,309.4z M357.2,327.4l-0.1,0.1
			L357.2,327.4L357.2,327.4l3.9-6.2l6-3.6l4.3,3.6l0.8-5.5l0.4,0.5l0.1,0.2l6.5,11H357.2z M374.6,316.1l7.6-16.8l4.8-2.2l4.1,10.1
			l4.2-10.1l5.4,2.2l11.9,28.2h-31.3L374.6,316.1z"/>
		<polygon fill="#7A9BCC" points="379.1,327.5 357.1,327.5 357.1,327.5 		"/>
		<rect x="352.8" y="331.5" fill="#7A9BCC" width="62.4" height="1.9"/>
	</g>
	<polygon fill="#99C2FF" points="412.6,327.5 381.2,327.5 374.6,316.1 382.2,299.3 387,297.2 391.1,307.2 395.3,297.2 400.7,299.3 	
		"/>
	<path fill="#B1D3FC" d="M372.7,316.3l-0.1-0.2l-0.4-0.5l-0.8,5.5l-4.3-3.6l-6,3.6l-3.9,6.2h22L372.7,316.3z M367.5,323.6
		C367.5,323.6,367.5,323.6,367.5,323.6L367.5,323.6L367.5,323.6z M372.5,316.3v-0.1l0.1,0.2L372.5,316.3z"/>
</g>
</svg>
