<?xml version="1.0" encoding="utf-8"?>
<!-- Generator: Adobe Illustrator 18.1.1, SVG Export Plug-In . SVG Version: 6.00 Build 0)  -->
<!DOCTYPE svg PUBLIC "-//W3C//DTD SVG 1.1//EN" "http://www.w3.org/Graphics/SVG/1.1/DTD/svg11.dtd">
<svg version="1.1" id="Layer_1" xmlns="http://www.w3.org/2000/svg" xmlns:xlink="http://www.w3.org/1999/xlink" x="0px" y="0px"
	 viewBox="421.6 258.5 612 612" enable-background="new 421.6 258.5 612 612" xml:space="preserve">
<path fill="#FFFFFF" d="M727.6,870.5L727.6,870.5c-168.9,0-306-137.1-306-306l0,0c0-168.9,137.1-306,306-306l0,0
	c168.9,0,306,137.1,306,306l0,0C1033.6,733.4,896.5,870.5,727.6,870.5z"/>
<g>
	<g>
		<path fill="#7A9BCC" d="M731.9,691.8H558.1l0,0H731.9L731.9,691.8z"/>
		<path fill="#7A9BCC" stroke="#231F20" stroke-width="20" stroke-miterlimit="10" d="M680.5,606.7"/>
		<polygon fill="#7A9BCC" points="644.4,680.8 712.3,680.8 712.3,680.8 		"/>
		<polygon fill="#7A9BCC" points="672.5,613.5 671.9,612.2 671.9,611.6 		"/>
		<path fill="#7A9BCC" d="M789.4,349.7L678,599.4L648,548l-83.2,132.8h-79.6v11.6h448L789.4,349.7z M789.4,378.5l48.3,115.1
			l-33-13.5l-19,46.5l-19-47.1L738,492.9L789.4,378.5z M647.4,570l13.5,23.3l-4.3,28.2l-17.1-14.7L615,621.4L647.4,570z
			 M578.3,680.2l-0.6,0.6L578.3,680.2L578.3,680.2l23.9-37.9l36.7-22l26.3,22l4.9-33.7l2.4,3.1l0.6,1.2l39.8,67.3H578.3z M684.8,611
			l46.5-102.8l29.4-13.5l25.1,61.8l25.7-61.8l33,13.5l72.8,172.6H725.8L684.8,611z"/>
		<polygon fill="#7A9BCC" points="712.3,680.8 577.7,680.8 577.7,680.8 		"/>
		<rect x="551.3" y="705.3" fill="#7A9BCC" width="381.9" height="11.6"/>
	</g>
	<polygon fill="#99C2FF" points="917.3,680.8 725.2,680.8 684.8,611 731.3,508.2 760.6,495.3 785.7,556.5 811.4,495.3 844.5,508.2 	
		"/>
	<path fill="#B1D3FC" d="M673.1,612.2l-0.6-1.2l-2.4-3.1l-4.9,33.7l-26.3-22l-36.7,22l-23.9,37.9h134.6L673.1,612.2z M641.3,656.9
		L641.3,656.9L641.3,656.9L641.3,656.9z M671.9,612.2v-0.6l0.6,1.2L671.9,612.2z"/>
</g>
</svg>
