<?xml version="1.0" encoding="utf-8"?>
<!-- Generator: Adobe Illustrator 18.1.1, SVG Export Plug-In . SVG Version: 6.00 Build 0)  -->
<!DOCTYPE svg PUBLIC "-//W3C//DTD SVG 1.1//EN" "http://www.w3.org/Graphics/SVG/1.1/DTD/svg11.dtd">
<svg version="1.1" id="Layer_1" xmlns="http://www.w3.org/2000/svg" xmlns:xlink="http://www.w3.org/1999/xlink" x="0px" y="0px"
	 viewBox="207.7 -8.3 808.5 809" enable-background="new 207.7 -8.3 808.5 809" xml:space="preserve">
<g>
	<path fill="#C1812D" stroke="#AA6718" stroke-width="8" stroke-miterlimit="10" d="M970.9,563.3C820.4,573.8,765.8,620.9,747.5,768
		c-108.7-100.8-181.1-102.1-302.8-13.1c-10-150.1-57.2-204.2-204.2-221.2c100.4-109.5,101.2-182.4,12.7-305
		c150.5-10,205.1-57.6,223.4-204.7c108.7,100.8,181.1,102.1,302.8,13.1c10.5,150.5,57.6,205.1,204.7,223.4
		C883.2,369.2,882.3,441.6,970.9,563.3z"/>
	<path fill="#FBB040" stroke="#AA6718" stroke-width="8" stroke-miterlimit="10" d="M1008,396.2C875.8,469.1,846.5,535,891.9,676.4
		C751,631,684.7,660.2,611.8,792.4c-72.4-132.2-137.9-161-278.4-114.3C377.9,536.3,347.8,470,216,396.7
		c132.2-72.9,161.5-138.8,115.6-279.7C473,161.5,538.9,132.2,612.2,0C685.1,132.2,751,161.5,892.4,116.1
		C846.5,257,876.2,322.9,1008,396.2z"/>
</g>
</svg>
