<?xml version="1.0" encoding="utf-8"?>
<!-- Generator: Adobe Illustrator 18.1.1, SVG Export Plug-In . SVG Version: 6.00 Build 0)  -->
<!DOCTYPE svg PUBLIC "-//W3C//DTD SVG 1.1//EN" "http://www.w3.org/Graphics/SVG/1.1/DTD/svg11.dtd">
<svg version="1.1" id="Layer_1" xmlns="http://www.w3.org/2000/svg" xmlns:xlink="http://www.w3.org/1999/xlink" x="0px" y="0px"
	 viewBox="0 0 181.5 181.5" style="enable-background:new 0 0 181.5 181.5;" xml:space="preserve">
<style type="text/css">
	.st0{fill:#D19335;}
	.st1{fill:#FBB040;}
</style>
<g>
	<path class="st0" d="M173,129.1c-34.5,2.4-47,13.2-51.2,46.9c-24.9-23.1-41.5-23.4-69.4-3c-2.3-34.4-13.1-46.8-46.8-50.7
		c23-25.1,23.2-41.8,2.9-69.9c34.5-2.3,47-13.2,51.2-46.9c24.9,23.1,41.5,23.4,69.4,3c2.4,34.5,13.2,47,46.9,51.2
		C152.9,84.6,152.7,101.2,173,129.1z"/>
	<path class="st1" d="M181.5,90.8c-30.3,16.7-37,31.8-26.6,64.2c-32.3-10.4-47.5-3.7-64.2,26.6c-16.6-30.3-31.6-36.9-63.8-26.2
		c10.2-32.5,3.3-47.7-26.9-64.5c30.3-16.7,37-31.8,26.5-64.1C58.9,37,74,30.3,90.8,0c16.7,30.3,31.8,37,64.2,26.6
		C144.5,58.9,151.3,74,181.5,90.8z"/>
</g>
<g>
</g>
<g>
</g>
<g>
</g>
<g>
</g>
<g>
</g>
<g>
</g>
</svg>
