<?xml version="1.0" encoding="utf-8"?>
<!-- Generator: Adobe Illustrator 18.1.1, SVG Export Plug-In . SVG Version: 6.00 Build 0)  -->
<!DOCTYPE svg PUBLIC "-//W3C//DTD SVG 1.1//EN" "http://www.w3.org/Graphics/SVG/1.1/DTD/svg11.dtd">
<svg version="1.1" id="Layer_1" xmlns="http://www.w3.org/2000/svg" xmlns:xlink="http://www.w3.org/1999/xlink" x="0px" y="0px"
	 viewBox="868.6 250.5 1280 792" enable-background="new 868.6 250.5 1280 792" xml:space="preserve">
<path fill="#B2D6F9" d="M2089.6,1042.5H927.7c-32.6,0-59.1-26.4-59.1-59.1V309.6c0-32.6,26.4-59.1,59.1-59.1h1161.9
	c32.6,0,59.1,26.4,59.1,59.1v673.9C2148.6,1016.1,2122.2,1042.5,2089.6,1042.5z"/>
<path fill="#7A9BCC" d="M1006.2,677.6c-0.1,0.1-0.2,0.2-0.2,0.4c0,0,0,0,0,0c-0.1,1,1.2,2.6,2.6,1.9L1006.2,677.6z M993.3,787.4
	l-1.5-2.9c-0.1,0.3-0.2,0.5-0.2,0.8c-0.1,1.3,1.1,2.4,1.8,2.4L993.3,787.4z M1024.3,771.4l-3-4.5c-0.4,0.4-0.6,0.8-0.6,1.3
	c0,0,0,0,0,0c-0.1,1.6,1.4,3.4,3.8,3.4L1024.3,771.4z"/>
<g>
	<path fill="#7A9BCC" d="M1791,558.5c0.2-0.7,3.7-13.2-0.4-10.6c-7.8,5-32.8,24.1-36,16.7c-2.6-4.2,22.3-34,7.5-73.5
		c-0.9-2-32.5,36.1-50.5,29.9c-12.7-4.5-7.7-27.7-13-27.5c-5.5,0.6-53.7,38.7-73.6,59.5c-5.8,5.8-10,12.4-19.6,16.1
		c0.5-7.9,5.1-12.2,7.9-17.8c10-19.8,28.2-58.8,28.3-88.7c-0.1-4.9-1.8-28.9-7.9-31.3c-3.4-1.3-7.1,8.2-8.8,10.7
		c-12.5,17.4-34.9,38.9-43.2,24.9c-15.8-28.2,18.3-53-0.7-92.6c-1.8-2.7-4.6-12.6-8.3-9.4c-2.7,2.3-4.3,8.4-5.8,11.5
		c-17.5,30.1-37.5,40-60.2,3.9l-10.9-18.3c-2-3.3-4.4-9.5-7.3-3.9c-3.8,7.7-9.7,35.1-19.6,45.8c-14.9,15.8-43.2-1.7-57.7-21.1
		c-5.4-7.1-11.2,29.4,2.2,64c5.6,15.1,13.1,40.8-3.9,41.8c-17.9,0.6-42.8-32.5-48.3-31.4c-7.8,2.2-4.5,35.3,5.5,57.3
		c9.2,20.4,21.9,39.4,35.3,57.2c3.7,4.9,8.7,9.6,10.5,15.6c-14-3.5-60.8-50.9-103.5-57.4c-10.5-1.8,3.6,24.7-11.9,29.7
		c-10.3,3.3-16.9-0.8-42.2-15.4c-2.6-1.6-5.8-4.8-8.8-5.6c-5-1.4-2.7,10.5-2.5,13.8c1.2,20.9,10,41.8,22.9,58.1
		c-11.8,0.7-23.4-5-34.2-9.2c-2.8-1.1-8.6-4.6-7.6,0.7c1.6,9,16.5,36.3,33.2,54.7c12.4,13.6,27.3,25.1,44.2,32.8
		c-11,6-29.3,23.4-23,27.7c15.3,10.7,63.4,33,125.5,31.4c-18.1,24.9-37.2,57.2-32.4,83.1c1,5.6,2.8,6.8,8.4,6
		c43.3-7,88.1-24.4,121.3-46c-2.5,1.7,5,14.1-3.3,53.9c-4.1,18.2-27.3,51.1-46.5,63.3c-6.2,4-14.2,9.2-8.3,17
		c5.9,7.7,16.8,15,26.4,10c15.9-8.3,40-44.8,49.2-61.3c15-27.3,19.1-58.8,16.7-89c41.4,21.1,101.2,24.4,131.2,24.7
		c4.8,0,14.9,1.4,18.6-2.3c11.1-11.2-9.7-43.6-37.4-74.2c-1.1-1.2-5-4-5.5-5.5c-0.8-2.6,2.6-2.3,4.5-2.7
		c46.2-8.4,85.2-31.6,109.7-50.2c1.8-1.4,4.8-2.7,4.2-5.1c-0.5-1.1-3.8-3.6-5.5-5.3c-6.6-5.8-15-11.6-24.1-14.5
		C1766.9,626.6,1783.5,588.5,1791,558.5z M1392.4,818.9c-5-0.8-3.3-5-2.3-8.6c5.6-19.6,21.4-45.3,52.6-83.2
		c-35.4,5.6-52.8,8.1-93.5-1.8c-10.8-1.7-44.8-10.8-45.4-15.8c-0.3-3.2,13.8-9.9,28-13.2l31-6.9c-47.6-11.3-72.5-16.3-100.8-54.1
		c-1.3-1.7-6-6.3-4-8.3c2.4-2,24.9-0.4,29.8-13.2c1.1-3,0.9-3.6-1.3-6c-10.3-11.8-17.7-21.7-23.1-39.6c12,6.3,27.8,10.5,41,6.3
		c12.5-3.3,14.9-19.9,18.1-20.6c2.7-0.9,9,4,11.3,5.2c20.4,10.4,58.6,39.4,73,43.9c14.5,4.1,25.9-4.2,21.8-19.5
		c-3.9-14.8-46.2-57-50.9-90.2c-0.3-2.5,8.8,5.3,10.8,6.3c14,7,30.6,8.3,42-4c4.2-4,4.2-10.6,5-16.4c1.7-14.9-1.7-29.8-9.1-42.2
		c-0.8-3.3-9.1-20.7-4.6-18.4c14.5,7.7,41.9,26.7,61-3.9c2.5-4.1,5.8-18.2,8.8-13.5c1.4,2.3,0.3,9.5,0.4,12.2l0.4,13.5
		c0.4,16.8,0.8,33.9-2.2,50.4c-7.9,38.8-12.4,63.4-12.5,87.3c0.1,46.5,1.8,59.7,9.2,102.3l4.7,28c-33.7-5.1-86.1-31.6-130.3-56.6
		c-1.3-0.8-8.1-5.9-8.6-2.5c-0.2,1.5,4.5,5.5,5.4,6.4c11.6,11.2,16.9,15.8,22.4,20.1c28.4,22.5,68.2,39.9,92.3,48.2
		c2.5,0.8,20.8,8.3,22.3,6c0.1,2.3-6.5,8.1-8.2,9.8c-10,11.6-29.1,25.7-41.8,34.6c-1.3,0.9-4.5,2.4-4.4,4.1c0.1,2.9,6.4-0.5,7.6-1
		c15.4-6.2,34.5-17.8,49-32.6c1.8,13.2,3.2,26.5,4,39.8C1468,797.3,1404,821.4,1392.4,818.9z M1705.6,646.1l-21.2,9.4
		c-1.4,0.6-6.9,2-7.6,3.6c-1.2,2.8,4.7,2,6.3,2.1l25.2,0.8c9.6,0.3,17.9,2.8,23.7,6.2c4.2,2.4,1.5,3.5-1.6,5.5
		c-26.3,16.7-55.7,30.1-86.6,35.5c-12,2.1-24,2.3-36.2,2.7c-2.6,0.1-6.5-0.5-4.4,2.8c2.1,3.4,24.2,20.6,35.1,32.2
		c12.5,13.2,26.6,28.8,31.9,46.6c-44.4,2.2-124.2-11-135.8-27.6l-5.9-32.2c19.2,14.8,38.3,23.1,58.5,27.6c1.6,0.3,9.1,2.7,6.8-0.9
		c-0.7-1.2-5-2.5-6.2-3.1c-16.6-7.9-49.8-26.1-59.4-40.4c32.8-12.3,64.2-30,91.4-52.1c12-9.8,38.6-36.3,42.5-44.9
		c1.1-3-1.5-1.9-3.2-1.1c-16.5,8-74.6,58.5-119.4,72.1l-11.4,3.4l-5.2,1l-2,0.3c-8.9,1.6-23.8-113.6-16.1-189.2
		c3.9-38.8,5.5-57.8-1.8-96c-2.3-11.5,4.9-0.3,8.5,2.7c17.1,13.9,39.5,7.3,57.6-11.4c-2.4,27.8-23.1,71.7,13.7,85.7
		c19.6,7.5,38.7-19,41.3-16.9c1.5,1.4-1.7,12-2.2,13.4c-10.3,43.3-41,81.4-30.6,97.1c10.4,14.2,31.1-1.5,39.4-10.7
		c14.1-13.3,52.3-51.4,58.2-50.4c2.5,0.7,4.9,8.1,8.3,10.6c12.5,12.4,26.6,8.3,40.6,0.8c3.3-1.8,11.2-9.9,10.5-2.6
		c-1.1,11.6-5.9,23.6-11.9,33.4c-0.9,1.5-5.2,6.2-5.2,8c0,1.5,2.6,4.7,3.7,6c7.7,9.4,22.1,7.1,32,3.5
		C1754.8,608,1734.2,633.5,1705.6,646.1z"/>
	<path fill="#FFFFFF" d="M1676.9,659.1c-1.2,2.8,4.7,2,6.3,2.1l25.2,0.8c9.6,0.3,17.9,2.8,23.7,6.2c4.2,2.4,1.5,3.5-1.6,5.5
		c-26.3,16.7-55.7,30.1-86.6,35.5c-12,2.1-24,2.3-36.2,2.7c-2.6,0.1-6.5-0.5-4.4,2.8c2.1,3.4,24.2,20.6,35.1,32.2
		c12.5,13.2,26.6,28.8,31.9,46.6c-44.4,2.2-124.2-11-135.8-27.6l-5.9-32.2c19.2,14.8,38.3,23.1,58.5,27.6c1.6,0.3,9.1,2.7,6.8-0.9
		c-0.7-1.2-5-2.5-6.2-3.1c-16.6-7.9-49.8-26.1-59.4-40.4c32.8-12.3,64.2-30,91.4-52.1c12-9.8,38.6-36.3,42.5-44.9
		c1.1-3-1.5-1.9-3.2-1.1c-16.5,8-74.6,58.5-119.4,72.1l-11.4,3.4l-5.2,1l-2,0.3c-8.9,1.6-23.8-113.6-16.1-189.2
		c3.9-38.8,5.5-57.8-1.8-96c-2.3-11.5,4.9-0.3,8.5,2.7c17.1,13.9,39.5,7.3,57.6-11.4c-2.4,27.8-23.1,71.7,13.7,85.7
		c19.6,7.5,38.7-19,41.3-16.9c1.5,1.4-1.7,12-2.2,13.4c-10.3,43.3-41,81.4-30.6,97.1c10.4,14.2,31.1-1.5,39.4-10.7
		c14.1-13.3,52.3-51.4,58.2-50.4c2.5,0.7,4.9,8.1,8.3,10.6c12.5,12.4,26.6,8.3,40.6,0.8c3.3-1.8,11.2-9.9,10.5-2.6
		c-1.1,11.6-5.9,23.6-11.9,33.4c-0.9,1.5-5.2,6.2-5.2,8c0,1.5,2.6,4.7,3.7,6c7.7,9.4,22.1,7.1,32,3.5c-12,28.3-32.7,53.7-61.3,66.4
		l-21.2,9.4C1683,656.1,1677.6,657.5,1676.9,659.1z"/>
	<path fill="#FFFFFF" d="M1501.4,770.9c-33.4,26.4-97.4,50.4-109,47.9c-5-0.8-3.3-5-2.3-8.6c5.6-19.6,21.4-45.3,52.6-83.2
		c-35.4,5.6-52.8,8.1-93.5-1.8c-10.8-1.7-44.8-10.8-45.4-15.8c-0.3-3.2,13.8-9.9,28-13.2l31-6.9c-47.6-11.3-72.5-16.3-100.8-54.1
		c-1.3-1.7-6-6.3-4-8.3c2.4-2,24.9-0.4,29.8-13.2c1.1-3,0.9-3.6-1.3-6c-10.3-11.8-17.7-21.7-23.1-39.6c12,6.3,27.8,10.5,41,6.3
		c12.5-3.3,14.9-19.9,18.1-20.6c2.7-0.9,9,4,11.3,5.2c20.4,10.4,58.6,39.4,73,43.9c14.5,4.1,25.9-4.2,21.8-19.5
		c-3.9-14.8-46.2-57-50.9-90.2c-0.3-2.5,8.8,5.3,10.8,6.3c14,7,30.6,8.3,42-4c4.2-4,4.2-10.6,5-16.4c1.7-14.9-1.7-29.8-9.1-42.2
		c-0.8-3.3-9.1-20.7-4.6-18.4c14.5,7.7,41.9,26.7,61-3.9c2.5-4.1,5.8-18.2,8.8-13.5c1.4,2.3,0.3,9.5,0.4,12.2l0.4,13.5
		c0.4,16.8,0.8,33.9-2.2,50.4c-7.9,38.8-12.4,63.4-12.5,87.3c0.1,46.5,1.8,59.7,9.2,102.3l4.7,28c-33.7-5.1-86.1-31.6-130.3-56.6
		c-1.3-0.8-8.1-5.9-8.6-2.5c-0.2,1.5,4.5,5.5,5.4,6.4c11.6,11.2,16.9,15.8,22.4,20.1c28.4,22.5,68.2,39.9,92.3,48.2
		c2.5,0.8,20.8,8.3,22.3,6c0.1,2.3-6.5,8.1-8.2,9.8c-10,11.6-29.1,25.7-41.8,34.6c-1.3,0.9-4.5,2.4-4.4,4.1c0.1,2.9,6.4-0.5,7.6-1
		c15.4-6.2,34.5-17.8,49-32.6C1499.2,744.4,1500.7,757.6,1501.4,770.9z"/>
</g>
</svg>
